<?xml version="1.0" standalone="no"?>
<!DOCTYPE svg PUBLIC "-//W3C//DTD SVG 20010904//EN"
 "http://www.w3.org/TR/2001/REC-SVG-20010904/DTD/svg10.dtd">
<svg version="1.0" xmlns="http://www.w3.org/2000/svg"
 width="600.000000pt" height="597.000000pt" viewBox="0 0 600.000000 597.000000"
 preserveAspectRatio="xMidYMid meet">

<g transform="translate(0.000000,597.000000) scale(0.100000,-0.100000)"
fill="#000000" stroke="none">
<path d="M3890 5529 c-344 -243 -651 -459 -682 -481 l-57 -40 -561 402 c-309
220 -564 400 -566 398 -2 -2 1 -89 6 -193 5 -105 19 -383 30 -620 11 -236 22
-451 24 -477 l5 -47 -52 -5 c-29 -2 -286 -14 -572 -26 -658 -26 -1208 -50
-1217 -53 -7 -2 1515 -1188 1533 -1195 7 -3 207 114 247 144 2 1 -100 132
-227 291 -183 229 -226 289 -213 294 9 4 134 19 277 34 143 15 350 37 460 49
l200 22 3 70 c8 183 41 777 44 780 2 2 128 -75 279 -170 l275 -173 70 34 c38
18 209 101 379 184 171 83 338 164 372 179 l61 28 6 -36 c7 -42 34 -266 66
-542 36 -310 48 -401 53 -407 3 -2 151 -41 329 -85 178 -44 325 -83 328 -86 3
-2 1 -6 -5 -8 -23 -9 -530 -315 -532 -322 -2 -4 84 -162 191 -352 l193 -345
-41 -3 c-23 -2 -193 1 -379 8 -187 6 -340 10 -342 8 -4 -4 -36 -431 -55 -733
-7 -99 -15 -190 -18 -201 -6 -20 -37 1 -307 208 -164 127 -301 227 -302 222
-2 -5 -32 -63 -67 -128 l-63 -120 520 -780 521 -781 18 200 c9 110 26 315 38
455 12 140 32 379 45 530 13 151 31 373 41 493 10 119 21 217 25 217 6 0 827
-287 1314 -459 121 -43 221 -77 223 -76 2 2 -211 342 -472 756 -261 414 -474
754 -473 755 2 2 952 435 1077 491 l64 29 -699 235 -700 236 -6 54 c-4 30 -9
122 -13 204 -3 83 -15 321 -26 530 -11 209 -26 485 -33 613 l-12 232 -625
-441z"/>
<path d="M3730 4119 c-218 -53 -418 -100 -529 -126 l-123 -28 -202 -225 c-110
-124 -226 -252 -257 -285 -54 -58 -327 -364 -613 -684 -76 -86 -176 -196 -221
-246 -45 -49 -147 -162 -226 -251 -79 -88 -251 -281 -383 -427 l-238 -267 -38
33 c-20 17 -103 92 -183 165 l-147 134 -80 -57 c-44 -31 -80 -60 -80 -65 0 -4
86 -86 192 -181 356 -322 534 -483 789 -713 140 -127 287 -260 327 -298 39
-37 76 -68 80 -68 5 0 30 39 57 86 40 72 45 88 34 98 -8 7 -90 81 -182 166
l-168 153 24 26 c13 14 109 119 213 232 104 113 340 369 524 569 184 200 450
488 590 640 140 152 382 414 536 582 l282 305 11 69 c6 38 13 89 16 114 5 43
23 171 61 432 9 64 15 120 13 125 -2 6 -36 2 -79 -8z"/>
<path d="M738 1087 c-263 -290 -471 -517 -475 -517 -2 0 -25 16 -50 35 -28 22
-50 32 -57 27 -27 -21 -151 -116 -155 -119 -9 -6 172 -203 254 -276 88 -78
249 -203 291 -225 19 -10 25 -4 76 77 l54 88 -38 43 c-21 23 -38 46 -38 50 0
6 193 222 430 481 52 57 103 113 113 125 17 21 15 23 -142 167 -88 81 -162
147 -165 147 -2 0 -46 -46 -98 -103z"/>
</g>
</svg>
