<svg id="svg" xmlns="http://www.w3.org/2000/svg" xmlns:xlink="http://www.w3.org/1999/xlink" width="400" height="383.33333333333337" viewBox="0, 0, 400,383.33333333333337" version="1.1"><g id="svgg"><path id="path0" d="M174.160 24.167 C 168.565 37.458,158.350 61.683,151.460 78.000 L 138.932 107.667 97.632 107.500 C 74.918 107.409,51.158 107.157,44.833 106.940 C 38.064 106.707,33.333 106.795,33.333 107.153 C 33.333 107.487,46.983 124.890,63.667 145.825 C 80.350 166.760,94.000 184.037,94.000 184.217 C 94.000 184.398,84.775 192.132,73.500 201.404 C 62.225 210.677,43.700 225.911,32.333 235.258 C 20.967 244.605,9.059 254.370,5.872 256.959 C 2.684 259.548,0.059 261.831,0.038 262.032 C -0.002 262.421,8.814 263.890,56.000 271.354 C 72.317 273.936,93.024 277.237,102.016 278.691 C 111.008 280.144,119.033 281.333,119.849 281.333 C 120.665 281.333,121.338 281.708,121.344 282.167 C 121.349 282.625,121.946 302.650,122.669 326.667 C 123.393 350.683,123.988 373.258,123.992 376.833 C 123.996 380.408,124.238 383.333,124.528 383.333 C 124.819 383.333,141.195 369.967,160.920 353.631 C 180.645 337.294,197.025 324.019,197.321 324.131 C 197.880 324.342,201.613 327.674,235.089 357.833 C 246.178 367.825,255.384 376.000,255.546 376.000 C 255.707 376.000,256.063 356.050,256.336 331.667 C 256.785 291.536,256.934 287.333,257.907 287.333 C 258.498 287.333,279.951 290.343,305.581 294.021 C 331.210 297.700,352.245 300.625,352.325 300.521 C 352.405 300.418,349.405 293.583,345.658 285.333 C 335.815 263.663,317.382 222.925,315.566 218.829 L 314.013 215.325 357.007 193.832 C 380.653 182.010,399.999 172.187,399.999 172.002 C 399.998 171.818,390.323 167.505,378.499 162.418 C 317.398 136.134,308.955 132.467,308.427 131.981 C 308.112 131.691,316.156 115.046,326.304 94.993 C 336.451 74.939,344.616 58.394,344.449 58.227 C 344.282 58.060,328.738 62.161,309.906 67.341 C 272.553 77.615,252.277 83.212,250.571 83.719 C 249.770 83.957,246.557 80.237,238.598 69.856 C 232.616 62.052,223.659 50.369,218.694 43.895 C 213.729 37.420,204.126 24.895,197.354 16.061 C 190.582 7.228,184.882 -0.000,184.687 -0.000 C 184.492 -0.000,179.755 10.875,174.160 24.167 M216.667 97.463 C 227.483 112.920,236.495 125.805,236.694 126.096 C 236.892 126.388,247.392 122.483,260.027 117.419 C 272.662 112.354,283.074 108.263,283.165 108.326 C 283.256 108.389,279.281 117.778,274.332 129.191 C 269.383 140.603,265.333 150.212,265.333 150.544 C 265.333 150.876,277.183 156.646,291.667 163.367 C 306.150 170.088,317.988 175.755,317.974 175.960 C 317.960 176.165,307.741 183.218,295.265 191.632 C 282.790 200.046,272.487 207.096,272.370 207.298 C 272.254 207.501,277.651 218.917,284.365 232.667 L 296.572 257.667 269.528 258.108 C 249.606 258.433,242.354 258.760,241.990 259.350 C 241.717 259.791,240.542 264.842,239.378 270.576 C 234.036 296.891,230.247 314.061,229.782 314.065 C 229.502 314.067,221.281 307.078,211.513 298.534 C 201.745 289.991,193.202 282.604,192.530 282.120 C 191.054 281.057,193.040 279.623,171.584 297.244 C 162.491 304.712,154.975 310.562,154.881 310.244 C 154.787 309.927,153.340 296.331,151.665 280.032 C 149.990 263.733,148.552 250.330,148.470 250.247 C 148.387 250.164,138.722 248.281,126.993 246.061 C 92.332 239.503,89.349 238.905,88.860 238.415 C 88.603 238.158,98.530 227.807,110.920 215.413 L 133.447 192.879 119.808 166.273 L 106.169 139.667 109.251 139.198 C 110.946 138.941,121.783 138.105,133.333 137.342 C 144.883 136.579,155.263 135.810,156.399 135.633 C 158.350 135.329,159.521 133.472,177.399 102.341 C 187.813 84.208,196.483 69.369,196.667 69.366 C 196.850 69.363,205.850 82.007,216.667 97.463 M198.629 121.112 C 193.418 134.907,186.602 147.822,178.458 159.333 C 158.265 187.875,155.566 193.929,156.171 209.333 C 158.098 258.457,227.206 267.825,242.239 221.000 C 247.453 204.762,243.821 190.733,228.951 169.667 C 214.641 149.393,209.693 140.923,203.657 126.373 C 200.679 119.195,199.728 118.201,198.629 121.112 M226.000 207.667 L 226.000 215.333 200.000 215.333 L 174.000 215.333 174.000 207.667 L 174.000 200.000 200.000 200.000 L 226.000 200.000 226.000 207.667 " stroke="none" fill="#000000" fill-rule="evenodd"></path></g></svg>