<svg id="svg" xmlns="http://www.w3.org/2000/svg" xmlns:xlink="http://www.w3.org/1999/xlink" width="400" height="491.8032786885246" viewBox="0, 0, 400,491.8032786885246" version="1.1"><g id="svgg"><path id="path0" d="M133.037 99.385 C 96.609 154.047,66.680 199.047,66.530 199.385 C 66.380 199.723,83.041 200.000,103.555 200.000 L 140.853 200.000 141.317 205.123 C 141.749 209.894,146.741 313.831,146.727 317.770 C 146.722 319.281,147.448 319.713,151.434 320.578 C 154.027 321.140,156.516 321.699,156.967 321.820 C 173.645 326.306,226.355 326.306,243.033 321.820 C 243.484 321.699,245.973 321.140,248.566 320.578 C 252.552 319.713,253.278 319.281,253.273 317.770 C 253.259 313.831,258.251 209.894,258.683 205.123 L 259.147 200.000 296.445 200.000 C 316.959 200.000,333.620 199.723,333.470 199.385 C 332.324 196.808,200.598 0.000,200.019 0.000 C 199.608 0.000,169.466 44.723,133.037 99.385 M100.000 267.998 C -9.399 297.260,-33.439 362.854,48.963 407.259 C 77.514 422.644,119.434 433.418,166.803 437.544 C 175.351 438.288,224.733 438.283,233.197 437.537 C 332.525 428.778,400.000 392.182,400.000 347.069 C 400.000 324.405,382.985 303.962,349.590 286.503 C 335.300 279.032,292.116 263.908,290.502 265.808 C 290.420 265.905,289.463 284.358,288.375 306.817 C 286.779 339.744,286.170 347.790,285.226 348.373 C 271.206 357.038,204.923 363.646,169.430 359.916 C 152.081 358.093,119.295 351.167,114.766 348.368 C 113.713 347.717,110.082 289.378,109.881 269.877 C 109.856 267.510,109.559 265.601,109.221 265.635 C 108.883 265.668,104.734 266.732,100.000 267.998 M0.000 402.491 C 0.000 431.043,36.088 461.238,88.115 476.218 C 93.074 477.646,99.529 479.520,102.459 480.383 C 140.965 491.726,209.618 494.864,260.656 487.615 C 341.796 476.089,400.000 440.416,400.000 402.209 L 400.000 396.518 393.648 402.767 C 315.399 479.736,83.675 479.515,5.788 402.396 L 0.000 396.665 0.000 402.491 " stroke="none" fill="#000000" fill-rule="evenodd"></path></g></svg>