<svg id="svg" xmlns="http://www.w3.org/2000/svg" xmlns:xlink="http://www.w3.org/1999/xlink" width="400" height="396.6666666666667" viewBox="0, 0, 400,396.6666666666667"><g id="svgg"><path id="path0" d="M292.726 0.928 C 292.303 1.439,291.265 4.589,290.421 7.930 C 288.509 15.490,289.077 15.108,282.888 13.010 C 268.724 8.209,246.791 3.839,244.097 5.282 C 242.522 6.124,242.207 7.560,241.669 16.333 C 241.106 25.505,239.382 45.756,238.887 49.000 C 237.965 55.050,208.730 117.153,199.906 131.807 C 196.437 137.567,197.021 136.983,172.333 159.377 C 151.764 178.035,136.419 192.369,132.636 196.458 C 126.154 203.462,115.333 220.656,115.333 223.951 C 115.333 228.252,143.661 279.397,147.282 281.635 C 147.624 281.847,151.451 282.097,155.785 282.191 C 173.525 282.578,181.081 291.261,186.657 317.667 C 188.692 327.306,191.774 337.785,193.503 340.941 C 193.959 341.776,198.535 346.481,203.671 351.396 C 212.914 360.243,240.925 386.686,248.000 393.245 L 251.667 396.643 322.333 396.645 C 361.200 396.646,393.322 396.426,393.715 396.156 C 397.386 393.643,387.498 364.397,378.449 351.000 C 369.791 338.184,359.323 331.299,336.483 323.399 C 315.474 316.133,309.182 313.238,309.677 311.067 C 310.144 309.023,313.167 289.813,314.725 279.000 C 316.366 267.613,316.687 261.683,315.973 256.000 C 313.567 236.871,313.741 203.022,316.319 188.667 C 316.813 185.917,317.018 183.477,316.775 183.246 C 316.532 183.015,308.062 176.681,297.953 169.171 C 277.416 153.915,276.942 153.398,277.482 146.880 C 278.029 140.289,282.496 136.396,289.050 136.799 C 293.608 137.080,291.549 135.796,313.217 151.862 C 328.880 163.474,326.947 162.947,331.322 156.801 C 334.462 152.392,342.942 142.011,349.941 134.011 C 351.515 132.211,351.789 131.522,351.153 130.954 C 350.702 130.551,342.268 124.264,332.411 116.984 C 313.354 102.909,312.052 101.583,312.015 96.210 C 311.955 87.601,321.572 81.943,329.000 86.217 C 330.985 87.360,360.533 109.010,367.183 114.195 C 367.811 114.684,370.169 112.771,376.183 106.893 C 380.666 102.512,387.183 96.604,390.667 93.763 C 394.150 90.922,397.675 88.036,398.500 87.349 C 405.120 81.841,377.415 50.321,347.000 28.758 C 324.923 13.106,295.248 -2.110,292.726 0.928 M168.000 24.709 C 152.417 24.973,119.267 25.515,94.333 25.913 C 19.947 27.101,20.256 27.081,22.465 30.591 C 23.185 31.735,23.249 31.742,67.667 35.642 C 78.667 36.608,94.117 37.971,102.000 38.672 C 109.883 39.373,121.733 40.413,128.333 40.983 C 134.933 41.554,143.483 42.311,147.333 42.666 C 155.254 43.396,187.131 46.183,204.667 47.680 C 211.083 48.228,217.139 48.812,218.123 48.979 C 220.638 49.406,222.667 39.129,222.667 25.964 L 222.667 24.000 209.500 24.114 C 202.258 24.177,183.583 24.445,168.000 24.709 M171.333 92.053 C 162.717 92.329,139.767 93.026,120.333 93.602 C 62.652 95.311,63.046 95.275,65.109 98.556 C 65.862 99.754,69.384 100.306,89.000 102.301 C 94.867 102.898,105.067 103.973,111.667 104.690 C 118.267 105.407,125.317 106.158,127.333 106.361 C 129.350 106.563,132.050 106.857,133.333 107.014 C 134.617 107.171,144.517 108.213,155.333 109.330 C 166.150 110.447,175.900 111.482,177.000 111.630 C 178.100 111.778,181.013 112.105,183.473 112.357 L 187.945 112.816 192.973 102.412 C 195.738 96.690,198.000 91.856,198.000 91.670 C 198.000 91.283,193.195 91.352,171.333 92.053 M0.800 157.467 C -1.841 160.108,0.345 161.540,8.667 162.622 C 11.783 163.027,20.633 164.236,28.333 165.308 C 44.482 167.557,75.256 171.826,96.000 174.694 C 103.883 175.784,113.598 177.140,117.589 177.707 L 124.844 178.739 130.922 172.855 C 134.265 169.619,139.500 164.653,142.555 161.819 L 148.111 156.667 74.855 156.667 C 18.768 156.667,1.413 156.854,0.800 157.467 " stroke="none" fill="#000000" fill-rule="evenodd"></path></g></svg>