<?xml version="1.0" standalone="no"?>
<!DOCTYPE svg PUBLIC "-//W3C//DTD SVG 20010904//EN"
 "http://www.w3.org/TR/2001/REC-SVG-20010904/DTD/svg10.dtd">
<svg version="1.0" xmlns="http://www.w3.org/2000/svg"
 width="600.000000pt" height="403.000000pt" viewBox="0 0 600.000000 403.000000"
 preserveAspectRatio="xMidYMid meet">

<g transform="translate(0.000000,403.000000) scale(0.100000,-0.100000)"
fill="#000000" stroke="none">
<path d="M1645 3971 c-55 -32 -191 -110 -302 -174 -112 -64 -294 -170 -405
-234 -464 -267 -592 -340 -760 -437 l-178 -101 0 -1005 0 -1005 73 -41 c39
-23 173 -100 297 -172 124 -71 403 -232 620 -357 698 -402 745 -429 748 -437
2 -4 20 3 40 16 20 13 156 92 302 176 421 242 795 458 920 530 63 37 199 115
303 174 l187 108 0 344 0 344 475 0 475 0 0 -285 c0 -157 4 -285 8 -285 4 0
143 78 307 173 165 95 510 294 768 442 257 148 467 271 467 275 0 3 -150 92
-332 197 -385 221 -618 355 -951 547 -130 75 -244 139 -252 142 -13 5 -15 -32
-15 -280 l0 -286 -475 0 -475 0 0 343 0 344 -587 338 c-324 186 -715 412 -871
502 -156 90 -284 163 -285 163 -1 0 -47 -27 -102 -59z m420 -761 c165 -95 429
-247 588 -338 l287 -165 0 -183 0 -183 -637 -3 c-628 -3 -639 -3 -683 -24 -65
-31 -121 -84 -155 -145 -27 -49 -30 -62 -30 -149 0 -80 4 -102 23 -138 35 -66
88 -119 150 -149 l57 -28 638 -3 637 -3 0 -183 0 -184 -482 -277 c-266 -153
-534 -308 -597 -344 -110 -63 -114 -65 -140 -50 -14 9 -179 104 -366 211 -187
108 -441 254 -565 326 l-225 129 -5 688 -5 688 35 22 c19 13 204 120 410 238
206 118 456 262 555 320 99 58 187 104 195 103 8 -2 150 -81 315 -176z"/>
</g>
</svg>
