<svg id="svg" xmlns="http://www.w3.org/2000/svg" xmlns:xlink="http://www.w3.org/1999/xlink" width="400" height="387.3333333333333" viewBox="0, 0, 400,387.3333333333333" version="1.1"><g id="svgg"><path id="path0" d="M323.032 129.878 C 322.663 130.286,322.122 130.620,321.830 130.620 C 321.538 130.620,321.133 131.056,320.930 131.589 C 320.728 132.122,320.397 132.558,320.195 132.558 C 319.993 132.558,319.631 133.153,319.391 133.880 C 319.151 134.608,318.711 135.296,318.413 135.411 C 318.114 135.525,317.545 136.329,317.147 137.197 C 316.749 138.065,316.340 138.692,316.239 138.590 C 316.137 138.489,316.027 138.761,315.994 139.197 C 315.962 139.632,315.576 140.299,315.138 140.679 C 314.700 141.059,314.341 141.665,314.341 142.026 C 314.341 142.386,314.203 142.596,314.034 142.492 C 313.865 142.387,313.700 142.659,313.667 143.096 C 313.634 143.533,313.249 144.141,312.811 144.448 C 312.374 144.754,312.016 145.352,312.016 145.775 C 312.016 146.525,311.761 146.943,310.368 148.477 C 309.995 148.888,309.734 149.359,309.787 149.523 C 309.840 149.687,309.491 150.243,309.012 150.759 C 308.532 151.275,308.140 152.013,308.140 152.399 C 308.140 152.785,307.777 153.464,307.333 153.907 C 306.890 154.350,306.335 155.263,306.101 155.936 C 305.867 156.608,305.357 157.499,304.969 157.916 C 304.581 158.332,304.264 158.989,304.264 159.375 C 304.264 159.762,304.089 160.078,303.876 160.078 C 303.663 160.078,303.488 160.259,303.488 160.481 C 303.488 160.703,303.146 161.253,302.727 161.703 C 302.308 162.153,302.056 162.669,302.168 162.849 C 302.280 163.030,302.207 163.178,302.005 163.178 C 301.804 163.178,301.340 163.636,300.973 164.195 C 300.607 164.754,300.500 165.093,300.736 164.947 C 300.971 164.801,300.798 165.303,300.350 166.062 C 299.902 166.821,299.379 167.442,299.187 167.442 C 298.994 167.442,298.837 167.627,298.837 167.852 C 298.837 168.078,299.055 168.132,299.322 167.972 C 299.990 167.570,298.820 169.054,297.965 169.693 C 297.592 169.971,297.287 170.587,297.287 171.060 C 297.287 171.534,296.938 172.173,296.512 172.481 C 296.085 172.788,295.736 173.437,295.736 173.923 C 295.736 174.409,295.562 174.806,295.349 174.806 C 295.136 174.806,294.961 175.068,294.961 175.388 C 294.961 175.707,294.787 175.969,294.574 175.969 C 294.360 175.969,294.186 176.231,294.186 176.550 C 294.186 176.870,293.881 177.445,293.508 177.827 C 292.309 179.055,291.617 180.024,292.180 179.685 C 292.913 179.244,291.996 180.732,290.589 182.265 C 289.997 182.911,289.605 183.532,289.718 183.646 C 289.831 183.759,289.619 184.201,289.245 184.628 C 288.872 185.055,288.772 185.284,289.024 185.138 C 289.309 184.971,289.256 185.323,288.884 186.069 C 288.556 186.727,288.044 187.359,287.748 187.473 C 287.452 187.587,287.209 188.184,287.209 188.801 C 287.209 189.418,287.059 189.922,286.876 189.922 C 286.692 189.922,285.983 190.972,285.299 192.255 C 284.615 193.537,283.930 194.509,283.775 194.413 C 283.621 194.318,283.467 194.597,283.434 195.034 C 283.402 195.471,283.005 196.087,282.553 196.404 C 282.101 196.721,281.824 197.222,281.937 197.518 C 282.051 197.814,281.768 198.407,281.309 198.834 C 280.850 199.262,280.418 200.005,280.350 200.484 C 280.282 200.964,279.879 201.646,279.454 202.000 C 278.596 202.715,278.413 203.285,279.167 202.896 C 279.433 202.759,279.295 202.966,278.859 203.358 C 277.632 204.461,276.775 205.668,277.519 205.244 C 277.839 205.063,277.665 205.406,277.132 206.008 C 276.599 206.609,276.424 206.973,276.744 206.816 C 277.064 206.659,276.933 206.877,276.453 207.300 C 275.974 207.724,275.581 208.273,275.581 208.520 C 275.581 208.768,275.320 209.231,275.001 209.551 C 274.681 209.870,274.304 210.599,274.163 211.171 C 274.021 211.742,273.582 212.439,273.187 212.720 C 272.791 213.001,272.557 213.376,272.666 213.552 C 272.775 213.728,272.592 213.977,272.260 214.104 C 271.928 214.231,271.753 214.491,271.870 214.682 C 271.988 214.873,271.827 215.242,271.512 215.504 C 271.197 215.765,271.031 216.129,271.144 216.312 C 271.387 216.705,270.285 218.503,269.186 219.506 C 268.760 219.896,268.613 220.113,268.859 219.990 C 269.198 219.821,269.198 220.001,268.859 220.733 C 268.613 221.264,268.280 221.701,268.120 221.702 C 267.960 221.704,267.829 221.967,267.829 222.287 C 267.829 222.607,267.655 222.868,267.442 222.868 C 267.229 222.868,267.054 223.050,267.054 223.272 C 267.054 223.494,266.705 224.050,266.279 224.508 C 265.853 224.966,265.504 225.743,265.504 226.236 C 265.504 226.729,265.362 227.132,265.189 227.132 C 265.015 227.132,264.634 227.742,264.341 228.488 C 264.048 229.234,263.667 229.845,263.494 229.845 C 263.320 229.845,263.178 230.065,263.178 230.333 C 263.178 230.602,262.815 231.048,262.371 231.326 C 261.923 231.605,261.656 232.073,261.773 232.377 C 261.888 232.677,261.728 233.178,261.418 233.488 C 261.107 233.799,260.853 234.213,260.853 234.408 C 260.853 234.604,260.504 235.079,260.078 235.465 C 259.651 235.851,259.302 236.488,259.302 236.882 C 259.302 237.275,258.953 237.946,258.527 238.372 C 258.101 238.798,257.752 239.340,257.752 239.576 C 257.752 239.812,257.229 240.665,256.589 241.473 C 255.950 242.280,255.426 243.287,255.426 243.710 C 255.426 244.133,255.034 244.770,254.554 245.126 C 254.075 245.481,253.944 245.649,254.264 245.498 C 254.614 245.333,254.518 245.596,254.024 246.158 C 253.572 246.672,253.088 247.578,252.947 248.172 C 252.807 248.765,252.357 249.538,251.947 249.888 C 251.538 250.239,251.300 250.683,251.418 250.875 C 251.537 251.067,251.264 251.484,250.811 251.802 C 250.358 252.119,250.087 252.541,250.210 252.740 C 250.333 252.938,250.269 253.101,250.067 253.101 C 249.866 253.101,249.402 253.558,249.035 254.117 C 248.591 254.795,248.544 255.033,248.894 254.830 C 249.182 254.663,249.046 254.947,248.591 255.461 C 248.136 255.975,247.633 256.831,247.473 257.364 C 247.313 257.897,246.770 258.750,246.266 259.258 C 245.761 259.767,245.349 260.533,245.349 260.960 C 245.349 261.387,245.044 261.959,244.671 262.232 C 244.297 262.505,243.992 262.946,243.992 263.212 C 243.992 263.478,243.750 263.776,243.454 263.875 C 243.092 263.995,243.018 263.889,243.227 263.550 C 243.447 263.194,243.359 263.115,242.924 263.282 C 242.556 263.423,241.870 263.120,241.213 262.525 C 238.655 260.210,238.257 259.905,238.532 260.465 C 238.689 260.785,238.530 260.698,238.180 260.271 C 237.829 259.845,237.380 259.540,237.182 259.593 C 236.984 259.646,236.822 259.505,236.822 259.279 C 236.822 259.054,236.667 258.965,236.478 259.081 C 236.018 259.366,235.200 258.348,235.565 257.945 C 235.723 257.770,235.654 257.741,235.412 257.879 C 235.170 258.018,234.756 257.871,234.493 257.554 C 234.229 257.236,233.779 256.977,233.493 256.977 C 233.207 256.977,232.784 256.623,232.552 256.191 C 232.321 255.758,231.966 255.507,231.763 255.632 C 231.561 255.757,231.395 255.665,231.395 255.426 C 231.395 255.188,231.241 255.089,231.052 255.205 C 230.581 255.496,229.782 254.471,230.139 254.034 C 230.297 253.841,230.264 253.815,230.066 253.978 C 229.867 254.141,229.186 253.792,228.552 253.203 C 227.918 252.614,227.529 252.393,227.687 252.713 C 227.845 253.033,227.654 252.930,227.262 252.484 C 226.871 252.039,225.984 251.451,225.291 251.178 C 224.598 250.905,224.031 250.528,224.031 250.341 C 224.031 250.153,223.769 250.000,223.450 250.000 C 223.130 250.000,222.912 249.782,222.965 249.516 C 223.018 249.249,222.770 249.079,222.413 249.138 C 222.041 249.200,221.658 248.911,221.515 248.460 C 221.378 248.028,221.022 247.674,220.724 247.674 C 220.426 247.674,219.993 247.321,219.762 246.888 C 219.530 246.456,219.194 246.193,219.013 246.305 C 218.833 246.416,218.582 246.235,218.454 245.903 C 218.327 245.571,218.047 245.408,217.832 245.541 C 217.618 245.674,217.442 245.640,217.442 245.466 C 217.442 245.293,216.400 244.454,215.127 243.602 C 213.854 242.751,212.807 241.923,212.801 241.764 C 212.796 241.604,212.463 241.473,212.063 241.473 C 211.287 241.473,210.345 240.602,210.662 240.178 C 210.767 240.037,210.755 239.991,210.635 240.076 C 210.515 240.160,210.007 239.848,209.506 239.384 C 209.004 238.919,208.115 238.283,207.530 237.971 C 206.945 237.659,205.953 236.924,205.326 236.339 C 204.698 235.753,204.028 235.371,203.837 235.489 C 203.645 235.608,203.488 235.520,203.488 235.294 C 203.488 235.068,203.221 234.884,202.894 234.884 C 202.567 234.884,201.705 234.317,200.977 233.624 C 199.063 231.801,198.533 231.395,198.065 231.395 C 197.836 231.395,197.038 230.785,196.292 230.039 C 195.546 229.293,194.695 228.682,194.400 228.682 C 194.106 228.682,193.236 228.072,192.468 227.326 C 191.700 226.579,190.813 225.969,190.497 225.969 C 190.181 225.969,189.922 225.795,189.922 225.581 C 189.922 225.348,188.307 225.194,185.853 225.194 C 183.398 225.194,181.783 225.040,181.783 224.806 C 181.783 224.593,181.598 224.419,181.372 224.419 C 181.147 224.419,181.042 224.549,181.141 224.709 C 181.239 224.869,180.317 225.038,179.091 225.084 C 176.492 225.182,174.642 225.778,175.023 226.395 C 175.213 226.702,175.074 226.707,174.525 226.413 C 174.070 226.170,173.621 226.147,173.411 226.356 C 173.218 226.549,172.395 226.752,171.581 226.807 C 170.767 226.861,170.015 227.044,169.911 227.213 C 169.807 227.381,169.306 227.519,168.798 227.519 C 168.291 227.519,167.767 227.694,167.636 227.907 C 167.504 228.120,166.992 228.295,166.497 228.295 C 166.003 228.295,165.390 228.546,165.135 228.853 C 164.881 229.160,164.423 229.316,164.119 229.199 C 163.815 229.082,163.566 229.180,163.566 229.416 C 163.566 229.652,163.236 229.845,162.832 229.845 C 162.429 229.845,161.994 230.118,161.866 230.451 C 161.738 230.784,161.453 230.945,161.232 230.809 C 161.012 230.673,160.531 230.931,160.164 231.383 C 159.796 231.836,159.060 232.233,158.527 232.267 C 157.994 232.300,157.268 232.651,156.913 233.046 C 156.557 233.441,155.915 233.791,155.486 233.823 C 155.056 233.855,154.783 234.008,154.877 234.161 C 154.972 234.315,154.699 234.552,154.269 234.688 C 153.840 234.824,153.488 235.109,153.488 235.320 C 153.488 235.532,153.302 235.590,153.075 235.449 C 152.847 235.308,152.567 235.554,152.451 235.995 C 152.336 236.435,151.868 236.913,151.412 237.055 C 150.955 237.198,150.095 237.820,149.500 238.438 C 148.905 239.055,148.246 239.455,148.037 239.325 C 147.827 239.196,147.703 239.321,147.762 239.603 C 147.820 239.885,147.637 240.068,147.355 240.010 C 147.073 239.951,146.940 240.062,147.060 240.257 C 147.180 240.451,146.985 240.848,146.627 241.138 C 146.067 241.593,146.021 241.585,146.302 241.085 C 146.481 240.766,145.994 241.102,145.219 241.834 C 144.444 242.566,143.893 243.247,143.995 243.349 C 144.096 243.450,143.985 243.767,143.748 244.053 C 143.270 244.629,144.023 247.046,144.575 246.705 C 144.994 246.445,145.792 247.489,145.442 247.839 C 145.284 247.997,145.417 248.068,145.736 247.997 C 146.089 247.919,146.267 248.097,146.189 248.450 C 146.118 248.769,146.185 248.905,146.339 248.751 C 146.493 248.597,147.132 248.902,147.758 249.429 C 148.384 249.956,149.145 250.388,149.448 250.388 C 149.752 250.388,150.000 250.647,150.000 250.964 C 150.000 251.281,150.623 251.800,151.384 252.118 C 152.146 252.437,152.670 252.857,152.550 253.052 C 152.429 253.247,152.547 253.509,152.812 253.633 C 154.630 254.486,156.375 255.810,156.266 256.255 C 156.195 256.545,156.271 256.649,156.436 256.484 C 156.600 256.320,157.425 256.843,158.269 257.647 C 159.113 258.451,159.683 258.847,159.535 258.527 C 159.387 258.207,159.557 258.338,159.913 258.818 C 160.269 259.297,160.777 259.690,161.042 259.690 C 161.851 259.690,163.591 261.272,163.314 261.756 C 163.171 262.005,163.196 262.081,163.369 261.925 C 163.542 261.768,163.879 261.909,164.120 262.237 C 164.360 262.565,164.813 262.873,165.127 262.920 C 166.081 263.064,166.694 263.595,166.419 264.040 C 166.273 264.276,166.338 264.351,166.566 264.209 C 166.790 264.071,167.074 264.220,167.197 264.541 C 167.320 264.861,167.556 265.078,167.722 265.023 C 167.888 264.968,168.372 265.231,168.798 265.608 C 172.448 268.835,174.591 270.543,174.992 270.543 C 175.674 270.543,177.523 272.342,177.205 272.696 C 177.058 272.859,177.133 272.881,177.371 272.746 C 177.609 272.610,178.112 272.840,178.488 273.256 C 178.865 273.672,179.316 273.925,179.490 273.817 C 179.664 273.710,180.196 274.150,180.673 274.795 C 181.151 275.441,181.661 275.969,181.807 275.969 C 181.953 275.969,182.749 276.599,183.575 277.370 C 184.402 278.140,185.651 279.018,186.353 279.320 C 187.121 279.650,187.521 280.042,187.359 280.304 C 187.198 280.565,187.264 280.632,187.522 280.473 C 187.760 280.326,188.423 280.731,188.995 281.374 C 189.568 282.016,190.362 282.645,190.760 282.772 C 191.175 282.904,191.373 283.196,191.223 283.458 C 191.079 283.709,191.098 283.791,191.266 283.639 C 191.623 283.317,194.961 285.517,194.961 286.075 C 194.961 286.283,195.397 286.619,195.930 286.822 C 196.463 287.024,196.899 287.366,196.899 287.580 C 196.899 287.794,197.335 288.079,197.868 288.213 C 198.401 288.347,198.837 288.612,198.837 288.802 C 198.837 288.992,199.058 289.147,199.328 289.147 C 199.598 289.147,200.845 290.194,202.100 291.473 C 203.354 292.752,204.610 293.798,204.890 293.798 C 205.170 293.798,205.579 294.135,205.800 294.547 C 206.020 294.959,206.593 295.415,207.073 295.561 C 207.553 295.706,208.416 296.329,208.990 296.944 C 209.564 297.559,210.287 298.062,210.596 298.062 C 210.905 298.062,211.258 298.324,211.380 298.643 C 211.503 298.963,211.770 299.225,211.974 299.225 C 212.306 299.225,213.267 300.019,215.738 302.336 C 216.187 302.757,216.735 303.101,216.957 303.101 C 217.178 303.101,217.460 303.364,217.583 303.686 C 217.707 304.008,217.969 304.226,218.167 304.170 C 218.364 304.115,219.547 305.005,220.794 306.147 C 222.041 307.290,223.760 308.622,224.612 309.107 C 225.465 309.593,226.115 310.197,226.056 310.450 C 225.998 310.703,226.129 310.800,226.347 310.665 C 226.565 310.530,226.744 310.602,226.744 310.825 C 226.744 311.048,227.367 311.490,228.129 311.808 C 229.011 312.177,229.411 312.552,229.232 312.842 C 229.063 313.115,229.117 313.195,229.366 313.041 C 229.595 312.899,230.046 313.047,230.367 313.369 C 230.689 313.690,231.150 313.953,231.391 313.953 C 231.632 313.953,231.721 314.128,231.589 314.342 C 231.457 314.555,231.785 314.896,232.317 315.098 C 232.850 315.301,233.467 315.804,233.687 316.216 C 233.908 316.628,234.499 317.068,235.001 317.194 C 235.503 317.320,236.119 317.873,236.369 318.423 C 236.620 318.973,236.972 319.333,237.152 319.221 C 237.332 319.110,237.847 319.362,238.297 319.781 C 238.747 320.200,239.293 320.543,239.510 320.543 C 239.727 320.543,240.190 320.979,240.540 321.512 C 240.889 322.045,241.397 322.481,241.670 322.481 C 241.942 322.481,242.266 322.742,242.388 323.062 C 242.511 323.382,242.874 323.643,243.196 323.643 C 243.517 323.643,244.066 324.079,244.415 324.612 C 244.765 325.145,245.273 325.581,245.546 325.581 C 245.818 325.581,246.146 325.854,246.274 326.187 C 246.402 326.521,246.662 326.697,246.853 326.579 C 247.043 326.461,247.437 326.658,247.727 327.017 C 248.182 327.577,248.174 327.623,247.674 327.343 C 247.212 327.085,247.188 327.121,247.558 327.520 C 247.938 327.931,248.254 327.911,249.286 327.411 C 249.981 327.074,250.715 326.901,250.916 327.025 C 251.118 327.150,251.157 327.049,251.004 326.801 C 250.849 326.549,250.993 326.249,251.332 326.119 C 251.665 325.991,251.938 325.676,251.938 325.419 C 251.938 325.162,252.294 324.571,252.728 324.104 C 253.163 323.638,253.381 323.251,253.213 323.244 C 253.045 323.238,253.212 323.054,253.585 322.837 C 253.958 322.620,254.264 322.264,254.264 322.047 C 254.264 321.829,254.814 320.852,255.486 319.874 C 256.159 318.897,256.507 318.222,256.261 318.374 C 256.014 318.527,256.179 318.030,256.627 317.271 C 257.075 316.512,257.556 315.891,257.697 315.891 C 257.838 315.891,258.182 315.524,258.463 315.076 C 258.743 314.627,258.797 314.368,258.582 314.501 C 258.368 314.633,258.461 314.203,258.790 313.544 C 259.119 312.885,259.630 312.253,259.926 312.139 C 260.223 312.026,260.465 311.592,260.465 311.176 C 260.465 310.760,260.603 310.505,260.772 310.609 C 260.941 310.714,261.104 310.467,261.135 310.061 C 261.166 309.655,261.551 308.937,261.991 308.465 C 262.431 307.992,262.791 307.332,262.791 306.997 C 262.791 306.662,263.115 306.186,263.511 305.938 C 263.908 305.691,264.337 304.965,264.465 304.325 C 264.592 303.685,265.184 302.690,265.779 302.113 C 266.374 301.536,266.599 301.207,266.279 301.382 C 265.798 301.645,265.780 301.597,266.179 301.105 C 266.443 300.778,266.565 300.415,266.449 300.299 C 266.333 300.183,266.640 299.762,267.131 299.363 C 268.163 298.524,269.408 297.005,268.728 297.413 C 268.444 297.583,268.498 297.231,268.868 296.490 C 269.196 295.831,269.708 295.199,270.004 295.085 C 270.300 294.971,270.543 294.619,270.543 294.303 C 270.543 293.986,270.891 293.283,271.318 292.741 C 271.744 292.199,272.093 291.355,272.093 290.865 C 272.093 290.304,272.391 289.880,272.897 289.719 C 273.340 289.579,273.620 289.382,273.519 289.282 C 273.419 289.181,273.755 288.649,274.265 288.098 C 274.776 287.547,275.194 286.773,275.194 286.378 C 275.194 285.982,275.397 285.659,275.646 285.659 C 275.895 285.659,275.985 285.545,275.846 285.407 C 275.707 285.268,275.896 284.906,276.266 284.603 C 276.635 284.299,276.707 284.169,276.425 284.314 C 275.691 284.690,276.702 282.939,277.616 282.250 C 277.989 281.969,278.295 281.313,278.295 280.792 C 278.295 280.271,278.426 279.845,278.588 279.845 C 278.749 279.845,279.124 279.295,279.421 278.624 C 279.718 277.952,280.241 277.124,280.582 276.783 C 280.923 276.442,281.202 275.901,281.202 275.581 C 281.202 275.262,281.463 275.058,281.783 275.129 C 282.103 275.200,282.240 275.135,282.089 274.983 C 281.763 274.657,282.816 272.481,283.300 272.481 C 283.484 272.481,283.611 272.175,283.581 271.802 C 283.551 271.426,283.755 271.171,284.040 271.231 C 284.323 271.289,284.455 271.178,284.335 270.984 C 284.215 270.789,284.377 270.415,284.694 270.151 C 285.012 269.888,285.271 269.345,285.271 268.945 C 285.271 268.545,285.637 267.851,286.085 267.404 C 286.532 266.956,287.307 265.666,287.806 264.536 C 288.306 263.407,288.927 262.412,289.186 262.326 C 289.446 262.239,289.713 261.809,289.780 261.369 C 289.847 260.929,290.435 259.999,291.086 259.301 C 291.738 258.604,292.178 257.940,292.065 257.827 C 291.951 257.714,292.148 257.302,292.501 256.911 C 292.854 256.521,293.025 256.202,292.880 256.202 C 292.734 256.202,292.886 255.678,293.217 255.039 C 293.548 254.399,293.946 253.876,294.103 253.876 C 294.259 253.876,294.616 253.509,294.897 253.060 C 295.177 252.612,295.216 252.362,294.984 252.505 C 294.753 252.648,295.089 251.874,295.731 250.784 C 296.374 249.695,296.899 248.636,296.899 248.433 C 296.899 248.229,297.074 248.062,297.287 248.062 C 297.500 248.062,297.674 247.827,297.674 247.541 C 297.674 247.254,298.023 246.704,298.450 246.318 C 298.876 245.932,299.230 245.338,299.237 244.998 C 299.254 244.148,300.200 242.971,300.585 243.320 C 300.758 243.477,300.783 243.401,300.641 243.153 C 300.499 242.905,300.780 242.207,301.266 241.603 C 302.944 239.517,303.293 238.999,302.837 239.273 C 302.553 239.443,302.606 239.092,302.976 238.350 C 303.305 237.691,303.816 237.059,304.112 236.946 C 304.409 236.832,304.651 236.489,304.651 236.183 C 304.651 235.877,305.000 235.252,305.426 234.794 C 305.853 234.337,306.202 233.678,306.202 233.330 C 306.202 232.982,306.717 232.120,307.347 231.414 C 307.978 230.708,308.470 230.023,308.443 229.891 C 308.337 229.392,309.512 227.305,310.175 226.815 C 310.555 226.534,310.774 226.156,310.663 225.975 C 310.551 225.795,310.902 225.122,311.441 224.481 C 311.981 223.839,312.375 223.167,312.316 222.987 C 312.257 222.807,312.602 222.237,313.081 221.722 C 313.561 221.206,313.953 220.468,313.953 220.082 C 313.953 219.696,314.302 219.031,314.729 218.605 C 315.155 218.178,315.504 217.481,315.504 217.054 C 315.504 216.628,315.678 216.279,315.891 216.279 C 316.105 216.279,316.279 216.017,316.279 215.698 C 316.279 215.378,316.435 215.116,316.625 215.116 C 316.815 215.116,317.070 214.719,317.192 214.234 C 317.314 213.748,318.031 212.658,318.786 211.811 C 319.542 210.964,320.090 210.088,320.005 209.864 C 319.920 209.639,320.267 209.055,320.777 208.565 C 321.286 208.074,321.613 207.529,321.504 207.352 C 321.395 207.175,321.485 206.919,321.705 206.783 C 321.926 206.647,322.009 206.379,321.891 206.187 C 321.772 205.996,322.031 205.617,322.466 205.346 C 322.900 205.074,323.256 204.625,323.256 204.348 C 323.256 204.071,323.605 203.469,324.031 203.011 C 324.457 202.554,324.806 201.863,324.806 201.477 C 324.806 201.091,325.155 200.426,325.581 200.000 C 326.008 199.574,326.226 199.220,326.066 199.213 C 325.906 199.207,326.080 199.023,326.453 198.806 C 326.827 198.589,327.132 198.081,327.132 197.678 C 327.132 197.275,327.306 196.837,327.519 196.705 C 327.733 196.574,327.907 196.117,327.907 195.691 C 327.907 195.264,328.081 195.023,328.295 195.155 C 328.508 195.287,328.682 195.112,328.682 194.767 C 328.682 194.375,328.864 194.245,329.167 194.419 C 329.433 194.572,329.521 194.555,329.362 194.379 C 329.203 194.204,329.518 193.477,330.062 192.764 C 330.606 192.052,330.950 191.306,330.827 191.107 C 330.704 190.908,330.826 190.604,331.096 190.431 C 331.762 190.006,332.897 188.524,332.267 188.902 C 332.000 189.063,332.148 188.573,332.596 187.814 C 333.044 187.055,333.596 186.434,333.824 186.434 C 334.051 186.434,334.124 186.321,333.985 186.182 C 333.847 186.043,334.036 185.681,334.405 185.378 C 334.775 185.074,334.847 184.945,334.564 185.089 C 334.065 185.345,334.667 183.896,335.293 183.333 C 335.412 183.227,335.738 182.573,336.019 181.880 C 336.299 181.187,336.677 180.620,336.859 180.620 C 337.177 180.620,338.367 178.613,338.407 178.008 C 338.418 177.846,338.676 177.574,338.981 177.403 C 339.286 177.233,339.535 176.743,339.535 176.314 C 339.535 175.886,339.673 175.621,339.842 175.725 C 340.011 175.830,340.176 175.564,340.208 175.134 C 340.240 174.705,340.625 174.042,341.064 173.662 C 341.502 173.282,341.860 172.764,341.860 172.511 C 341.860 172.259,342.297 171.410,342.829 170.626 C 343.362 169.842,343.798 168.987,343.798 168.728 C 343.798 168.468,344.016 168.116,344.283 167.946 C 344.994 167.490,346.080 166.040,345.406 166.446 C 344.774 166.826,345.917 164.941,347.081 163.683 C 347.514 163.215,347.839 162.692,347.804 162.521 C 347.769 162.349,347.921 161.991,348.142 161.725 C 348.364 161.458,348.397 161.240,348.217 161.240 C 348.037 161.240,348.277 160.969,348.751 160.637 C 349.225 160.305,349.612 159.763,349.612 159.433 C 349.612 159.103,350.136 158.172,350.775 157.364 C 351.415 156.557,351.938 155.616,351.938 155.274 C 351.938 154.931,352.141 154.651,352.390 154.651 C 352.639 154.651,352.729 154.538,352.590 154.399 C 352.451 154.260,352.640 153.898,353.010 153.595 C 353.425 153.254,353.460 153.152,353.101 153.328 C 352.781 153.485,352.955 153.121,353.488 152.519 C 354.021 151.918,354.196 151.554,353.876 151.711 C 353.556 151.868,353.643 151.679,354.070 151.289 C 354.496 150.900,354.845 150.320,354.845 150.000 C 354.845 149.680,355.063 149.462,355.329 149.516 C 355.596 149.569,355.786 149.482,355.751 149.322 C 355.629 148.753,356.577 146.899,356.990 146.899 C 357.221 146.899,357.314 146.743,357.196 146.552 C 357.078 146.361,357.267 146.096,357.616 145.962 C 357.965 145.828,358.145 145.613,358.017 145.484 C 357.705 145.173,358.833 143.023,359.308 143.023 C 359.758 143.023,359.686 141.075,359.213 140.441 C 359.014 140.174,359.051 139.884,359.306 139.727 C 359.925 139.344,355.837 135.380,354.651 135.213 C 354.118 135.139,353.682 134.833,353.682 134.535 C 353.682 134.236,353.246 133.926,352.713 133.845 C 352.180 133.765,351.686 133.529,351.615 133.322 C 351.544 133.115,351.151 132.946,350.743 132.946 C 350.334 132.946,350.000 132.771,350.000 132.558 C 350.000 132.345,349.574 132.171,349.054 132.171 C 348.534 132.171,348.003 132.001,347.875 131.793 C 347.596 131.342,344.793 130.518,343.354 130.465 C 342.790 130.444,341.998 130.126,341.592 129.760 C 340.414 128.693,324.010 128.797,323.032 129.878 " stroke="none" fill="#e16868" fill-rule="evenodd"></path><path id="path1" d="M7.946 0.689 C 6.124 1.735,1.365 6.632,0.648 8.198 C 0.045 9.514,-0.000 22.506,-0.000 194.056 L -0.000 378.499 1.308 380.441 C 2.893 382.795,4.990 384.934,7.208 386.460 L 8.861 387.597 138.285 387.597 C 253.065 387.597,267.843 387.531,268.886 387.010 C 270.356 386.277,275.969 380.448,275.969 379.655 C 275.969 379.333,276.102 379.070,276.265 379.070 C 276.648 379.070,277.916 376.266,278.545 374.031 C 279.443 370.839,279.272 318.132,278.361 317.308 C 276.851 315.942,273.256 317.514,273.256 319.540 C 273.256 319.695,272.765 320.551,272.164 321.442 C 271.564 322.333,270.774 323.709,270.409 324.499 C 270.045 325.289,269.588 326.034,269.394 326.154 C 269.200 326.274,268.801 326.848,268.507 327.430 C 267.793 328.843,266.906 330.381,266.667 330.620 C 266.560 330.727,266.255 331.206,265.988 331.686 C 265.722 332.166,265.286 332.951,265.019 333.430 C 264.753 333.910,264.448 334.390,264.341 334.496 C 263.958 334.880,262.738 337.030,262.528 337.694 C 262.409 338.067,262.159 338.372,261.970 338.372 C 261.782 338.372,261.628 338.563,261.628 338.797 C 261.628 339.030,261.299 339.684,260.898 340.250 C 260.497 340.816,259.815 341.909,259.384 342.679 C 257.729 345.635,257.552 345.936,257.359 346.124 C 257.250 346.231,256.763 347.103,256.277 348.062 C 255.792 349.021,255.075 350.226,254.684 350.740 L 253.974 351.673 252.665 350.752 C 251.946 350.246,251.128 349.610,250.848 349.338 C 250.568 349.067,248.999 347.845,247.360 346.624 C 245.721 345.403,244.118 344.120,243.798 343.774 C 243.479 343.428,243.026 343.074,242.791 342.987 C 242.557 342.900,241.685 342.271,240.854 341.587 C 238.934 340.011,235.008 336.919,233.326 335.659 C 232.614 335.126,231.499 334.254,230.847 333.721 C 229.357 332.503,229.048 332.258,225.969 329.845 C 224.583 328.759,223.185 327.661,222.861 327.405 C 222.537 327.148,220.862 325.868,219.139 324.561 C 217.416 323.253,215.675 321.912,215.270 321.581 C 213.539 320.162,210.078 317.436,207.558 315.505 C 206.066 314.362,204.758 313.326,204.651 313.204 C 204.545 313.081,203.818 312.504,203.037 311.922 C 202.256 311.340,201.384 310.640,201.099 310.366 C 200.815 310.091,198.576 308.358,196.124 306.513 C 193.672 304.668,191.231 302.748,190.698 302.247 C 190.165 301.745,189.118 300.912,188.372 300.395 C 187.626 299.879,186.928 299.355,186.822 299.233 C 186.715 299.110,185.287 298.010,183.648 296.788 C 182.009 295.566,180.439 294.350,180.160 294.085 C 179.880 293.821,179.012 293.128,178.231 292.545 C 177.450 291.962,176.578 291.258,176.293 290.981 C 176.008 290.705,175.165 290.053,174.419 289.533 C 173.672 289.013,172.626 288.181,172.093 287.683 C 171.560 287.185,170.644 286.488,170.058 286.135 C 169.472 285.781,168.992 285.355,168.992 285.188 C 168.992 285.021,168.752 284.884,168.458 284.884 C 168.165 284.884,167.685 284.596,167.393 284.243 C 167.101 283.891,165.989 282.935,164.923 282.119 C 163.857 281.303,161.764 279.671,160.271 278.492 C 158.779 277.313,156.304 275.390,154.772 274.217 C 153.240 273.045,151.757 271.866,151.477 271.598 C 151.198 271.331,149.628 270.110,147.989 268.885 C 146.350 267.661,144.780 266.443,144.501 266.178 C 144.221 265.914,142.946 264.913,141.667 263.953 C 140.388 262.994,138.207 261.277,136.822 260.137 C 133.110 257.084,132.967 256.977,132.601 256.977 C 132.417 256.977,132.026 256.689,131.734 256.336 C 131.442 255.984,130.313 255.039,129.226 254.236 C 128.139 253.433,127.005 252.544,126.706 252.260 C 126.407 251.976,125.203 251.008,124.031 250.108 C 122.859 249.209,121.380 248.051,120.746 247.537 L 119.593 246.601 123.847 242.179 C 126.187 239.748,129.147 236.631,130.426 235.253 C 131.705 233.875,133.362 232.250,134.109 231.642 C 134.855 231.033,136.424 229.622,137.597 228.506 C 139.868 226.343,146.310 221.360,147.284 221.013 C 147.605 220.898,148.365 220.459,148.973 220.038 C 150.790 218.777,158.997 214.729,159.735 214.729 C 160.111 214.729,160.527 214.554,160.659 214.341 C 160.791 214.128,161.314 213.953,161.822 213.953 C 162.329 213.953,162.853 213.779,162.984 213.566 C 163.116 213.353,163.640 213.178,164.147 213.178 C 164.655 213.178,165.178 213.004,165.310 212.791 C 165.442 212.578,166.140 212.403,166.860 212.403 C 167.581 212.403,168.279 212.229,168.411 212.016 C 168.543 211.802,169.153 211.628,169.767 211.628 C 170.382 211.628,170.992 211.453,171.124 211.240 C 171.256 211.027,172.190 210.853,173.201 210.853 C 174.212 210.853,175.204 210.703,175.407 210.521 C 176.400 209.625,192.777 208.845,193.624 209.653 C 193.827 209.846,194.689 210.391,195.541 210.863 C 197.063 211.707,198.047 212.399,205.996 218.217 C 208.181 219.816,211.323 222.083,212.980 223.256 C 214.636 224.428,216.192 225.562,216.436 225.775 C 217.575 226.770,220.132 228.682,220.323 228.682 C 220.520 228.682,223.327 230.715,224.908 232.002 C 225.283 232.308,225.674 232.558,225.776 232.558 C 225.954 232.558,228.579 234.477,230.620 236.100 C 231.153 236.523,232.069 237.158,232.655 237.511 C 233.241 237.863,233.721 238.288,233.721 238.456 C 233.721 238.623,233.956 238.760,234.242 238.760 C 234.529 238.760,235.079 239.109,235.465 239.535 C 237.551 241.840,240.052 240.315,242.615 235.174 C 243.120 234.162,243.637 233.333,243.765 233.333 C 243.892 233.333,244.241 232.766,244.540 232.074 C 244.839 231.381,245.384 230.378,245.752 229.845 C 246.120 229.312,246.790 228.222,247.241 227.422 C 247.693 226.623,248.411 225.359,248.837 224.612 C 249.264 223.866,249.961 222.645,250.388 221.899 C 250.814 221.153,251.512 219.932,251.938 219.186 C 252.364 218.440,253.089 217.175,253.548 216.376 C 254.007 215.577,254.749 214.225,255.195 213.372 C 255.642 212.519,256.097 211.734,256.207 211.628 C 256.316 211.521,256.823 210.606,257.334 209.593 C 257.844 208.580,258.366 207.752,258.493 207.752 C 258.621 207.752,258.970 207.185,259.269 206.492 C 259.567 205.799,260.135 204.767,260.531 204.197 C 260.926 203.628,261.744 202.232,262.348 201.096 C 262.952 199.960,263.850 198.333,264.344 197.481 C 264.839 196.628,265.487 195.454,265.786 194.872 C 266.084 194.290,266.477 193.722,266.659 193.609 C 266.841 193.497,267.636 192.098,268.425 190.501 C 269.214 188.904,269.971 187.597,270.107 187.597 C 270.242 187.597,270.598 187.030,270.896 186.337 C 271.195 185.644,271.763 184.612,272.159 184.042 C 272.554 183.473,273.372 182.077,273.976 180.941 C 274.580 179.805,275.480 178.178,275.977 177.326 C 276.473 176.473,277.271 174.990,277.749 174.031 L 278.619 172.287 278.895 94.283 C 279.111 33.115,279.068 15.882,278.694 14.438 C 277.304 9.066,272.553 2.389,268.880 0.646 C 266.737 -0.371,9.717 -0.329,7.946 0.689 M293.411 18.979 L 292.442 19.723 292.442 31.589 L 292.442 43.455 293.411 44.200 C 294.336 44.910,295.244 44.944,313.401 44.953 L 332.423 44.961 333.266 44.064 C 334.092 43.184,334.109 42.944,334.109 31.535 L 334.109 19.903 333.211 19.060 C 331.885 17.814,295.025 17.739,293.411 18.979 M359.302 18.979 L 358.333 19.723 358.333 31.589 L 358.333 43.455 359.302 44.200 C 360.170 44.866,360.965 44.945,366.905 44.953 C 374.242 44.962,375.349 45.347,375.655 47.992 C 375.884 49.966,377.049 50.182,388.174 50.310 C 401.501 50.463,400.000 51.354,400.000 43.286 C 400.000 36.284,399.431 33.789,397.462 32.155 C 397.152 31.898,396.899 31.513,396.899 31.298 C 396.899 31.083,396.332 30.271,395.640 29.492 C 394.947 28.713,394.033 27.601,393.610 27.022 C 393.186 26.443,392.689 25.969,392.506 25.969 C 392.323 25.969,391.404 25.291,390.463 24.463 C 388.253 22.518,381.831 19.334,379.614 19.084 C 378.665 18.977,377.796 18.738,377.681 18.553 C 377.206 17.785,360.348 18.175,359.302 18.979 M375.920 74.672 C 374.925 75.871,375.156 114.133,376.163 114.893 C 376.813 115.385,378.795 115.481,388.469 115.492 L 400.000 115.504 400.000 94.767 L 400.000 74.031 388.226 74.031 C 377.746 74.031,376.393 74.101,375.920 74.672 M327.131 128.973 C 327.130 129.133,328.657 129.217,330.522 129.160 C 336.543 128.976,337.135 128.819,332.074 128.750 C 329.356 128.713,327.131 128.813,327.131 128.973 M321.876 130.026 C 321.244 130.505,321.225 130.597,321.755 130.608 C 322.102 130.615,322.603 130.359,322.868 130.039 C 323.487 129.294,322.856 129.286,321.876 130.026 M341.739 129.880 C 342.267 130.530,344.186 130.804,344.186 130.228 C 344.186 130.017,343.851 129.845,343.443 129.845 C 343.034 129.845,342.380 129.725,341.989 129.579 C 341.403 129.359,341.359 129.411,341.739 129.880 M345.349 130.673 C 345.882 130.891,346.812 131.317,347.415 131.620 C 348.710 132.270,349.764 132.342,349.403 131.757 C 349.262 131.530,349.048 131.443,348.926 131.565 C 348.805 131.686,348.343 131.551,347.899 131.265 C 347.456 130.979,346.483 130.639,345.736 130.510 C 344.547 130.305,344.499 130.325,345.349 130.673 M351.550 133.333 C 351.550 133.547,351.785 133.721,352.072 133.721 C 352.358 133.721,352.909 134.070,353.295 134.496 C 354.035 135.315,355.039 135.538,355.039 134.884 C 355.039 134.671,354.717 134.496,354.324 134.496 C 353.930 134.496,353.293 134.147,352.907 133.721 C 352.149 132.884,351.550 132.712,351.550 133.333 M318.676 134.193 C 318.133 134.735,318.077 135.271,318.563 135.271 C 318.918 135.271,319.503 134.102,319.266 133.866 C 319.194 133.793,318.928 133.940,318.676 134.193 M356.589 136.223 C 356.589 136.494,358.530 138.372,358.811 138.372 C 358.948 138.372,358.558 137.849,357.946 137.209 C 356.848 136.064,356.589 135.875,356.589 136.223 M315.382 139.567 C 314.782 140.402,314.402 141.085,314.537 141.085 C 314.873 141.085,315.592 140.271,316.209 139.191 C 317.053 137.714,316.549 137.943,315.382 139.567 M359.047 139.535 C 359.093 139.855,359.267 140.334,359.433 140.601 C 359.599 140.867,359.611 141.287,359.459 141.533 C 359.288 141.810,359.353 141.875,359.630 141.704 C 360.233 141.331,360.194 140.615,359.521 139.706 C 359.133 139.183,358.989 139.131,359.047 139.535 M376.357 140.684 L 375.388 141.429 375.388 161.047 L 375.388 180.664 376.357 181.409 C 377.261 182.104,378.084 182.154,388.663 182.162 L 400.000 182.171 400.000 161.047 L 400.000 139.922 388.663 139.931 C 378.084 139.939,377.261 139.990,376.357 140.684 M313.469 142.843 C 312.733 143.828,312.629 144.188,313.081 144.183 C 313.363 144.180,314.427 142.199,314.240 142.024 C 314.189 141.976,313.842 142.345,313.469 142.843 M358.333 144.186 C 358.003 144.826,357.812 145.349,357.909 145.349 C 358.007 145.349,358.459 144.826,358.915 144.186 C 359.370 143.547,359.561 143.023,359.339 143.023 C 359.116 143.023,358.664 143.547,358.333 144.186 M310.735 147.241 C 310.154 148.119,309.850 148.837,310.058 148.837 C 310.267 148.837,310.645 148.445,310.897 147.965 C 311.150 147.485,311.526 146.982,311.733 146.847 C 311.940 146.712,312.038 146.386,311.951 146.123 C 311.863 145.860,311.316 146.363,310.735 147.241 M356.325 147.578 C 356.194 147.951,355.733 148.648,355.302 149.126 C 354.872 149.605,354.607 150.085,354.714 150.192 C 354.821 150.299,355.472 149.602,356.160 148.643 C 356.849 147.684,357.222 146.899,356.989 146.899 C 356.756 146.899,356.457 147.204,356.325 147.578 M353.876 151.357 C 353.611 151.676,353.529 151.938,353.695 151.938 C 353.861 151.938,353.664 152.330,353.258 152.810 L 352.519 153.682 353.394 152.942 C 353.875 152.534,354.183 152.116,354.078 152.011 C 353.974 151.906,354.191 151.591,354.560 151.310 C 354.930 151.030,355.036 150.794,354.796 150.788 C 354.555 150.781,354.141 151.037,353.876 151.357 M307.214 153.282 C 306.861 153.822,306.744 154.264,306.954 154.264 C 307.384 154.264,308.298 152.742,308.030 152.474 C 307.935 152.379,307.568 152.743,307.214 153.282 M305.509 156.214 C 304.950 157.109,304.921 157.364,305.381 157.364 C 305.693 157.364,306.300 155.783,306.075 155.558 C 306.022 155.505,305.767 155.800,305.509 156.214 M303.374 159.817 C 302.612 160.980,302.562 161.240,303.101 161.240 C 303.314 161.240,303.488 160.993,303.488 160.691 C 303.488 160.389,303.689 160.075,303.934 159.994 C 304.179 159.912,304.302 159.612,304.207 159.327 C 304.091 158.979,303.817 159.141,303.374 159.817 M345.774 165.333 C 344.827 166.938,345.323 166.786,346.520 165.105 C 346.971 164.471,347.171 163.953,346.964 163.953 C 346.757 163.953,346.222 164.574,345.774 165.333 M300.333 165.407 C 299.035 166.975,298.761 167.442,299.139 167.442 C 299.357 167.442,299.896 166.831,300.336 166.085 C 301.211 164.603,301.210 164.349,300.333 165.407 M298.740 168.248 C 298.367 168.465,298.062 168.809,298.062 169.012 C 298.062 169.634,298.625 169.421,299.135 168.605 C 299.686 167.722,299.669 167.707,298.740 168.248 M343.920 168.508 C 343.788 168.881,343.608 169.317,343.522 169.477 C 343.133 170.197,343.774 169.669,344.344 168.798 C 344.696 168.262,344.797 167.829,344.570 167.829 C 344.346 167.829,344.053 168.135,343.920 168.508 M342.494 171.098 C 341.588 172.481,341.711 172.775,342.680 171.543 C 343.131 170.971,343.416 170.418,343.314 170.316 C 343.212 170.214,342.843 170.566,342.494 171.098 M296.388 171.846 C 295.652 172.970,295.849 173.199,296.764 172.283 C 297.086 171.962,297.284 171.502,297.203 171.261 C 297.123 171.021,296.756 171.284,296.388 171.846 M340.891 173.775 C 340.256 174.578,339.472 176.035,339.605 176.168 C 339.673 176.236,340.220 175.609,340.820 174.774 C 341.794 173.418,341.856 172.557,340.891 173.775 M294.847 174.546 C 294.085 175.708,294.035 175.969,294.574 175.969 C 294.787 175.969,294.961 175.722,294.961 175.420 C 294.961 175.118,295.162 174.804,295.407 174.722 C 295.652 174.641,295.775 174.341,295.680 174.056 C 295.564 173.708,295.290 173.869,294.847 174.546 M293.261 177.313 C 292.907 177.853,292.790 178.295,293.001 178.295 C 293.430 178.295,294.345 176.774,294.076 176.505 C 293.981 176.410,293.614 176.774,293.261 177.313 M291.727 180.166 C 291.040 180.925,290.905 181.397,291.376 181.392 C 291.536 181.391,291.868 180.955,292.115 180.423 C 292.649 179.271,292.579 179.225,291.727 180.166 M336.109 181.607 C 335.449 183.056,335.573 183.271,336.434 182.171 C 337.253 181.124,337.399 180.620,336.884 180.620 C 336.705 180.620,336.356 181.064,336.109 181.607 M334.607 184.353 C 334.147 185.343,334.154 185.351,334.898 184.677 C 335.670 183.978,335.897 183.331,335.368 183.336 C 335.208 183.338,334.866 183.795,334.607 184.353 M288.227 186.132 C 287.276 187.346,287.147 187.921,287.934 187.434 C 288.323 187.194,289.596 184.884,289.339 184.884 C 289.265 184.884,288.764 185.445,288.227 186.132 M332.596 187.814 C 331.649 189.419,332.144 189.267,333.342 187.585 C 333.792 186.952,333.992 186.434,333.786 186.434 C 333.579 186.434,333.044 187.055,332.596 187.814 M286.758 188.566 C 286.079 189.667,284.670 192.222,284.046 193.483 C 283.657 194.269,283.163 195.021,282.949 195.153 C 282.491 195.436,282.424 196.124,282.854 196.124 C 283.016 196.124,283.322 195.799,283.532 195.401 C 285.334 191.994,286.104 190.695,286.641 190.159 C 286.985 189.815,287.205 189.229,287.132 188.856 C 287.058 188.483,286.890 188.353,286.758 188.566 M281.266 197.933 C 280.896 198.303,280.948 198.837,281.354 198.837 C 281.544 198.837,281.800 198.576,281.923 198.256 C 282.150 197.665,281.737 197.462,281.266 197.933 M325.176 200.421 C 324.542 201.605,324.980 201.741,325.732 200.593 C 326.085 200.054,326.202 199.612,325.992 199.612 C 325.781 199.612,325.414 199.976,325.176 200.421 M279.457 201.163 C 279.002 201.802,278.794 202.326,278.996 202.326 C 279.434 202.326,280.021 201.614,280.354 200.678 C 280.711 199.678,280.392 199.850,279.457 201.163 M276.938 205.814 C 276.552 206.240,276.384 206.589,276.564 206.589 C 276.745 206.589,276.554 206.845,276.140 207.158 C 275.726 207.471,275.584 207.733,275.825 207.740 C 276.065 207.746,276.479 207.490,276.744 207.171 C 277.010 206.851,277.091 206.589,276.925 206.589 C 276.760 206.589,276.940 206.240,277.326 205.814 C 277.711 205.388,277.940 205.039,277.833 205.039 C 277.727 205.039,277.324 205.388,276.938 205.814 M322.093 205.620 C 321.824 205.944,321.782 206.202,321.998 206.202 C 322.211 206.202,322.603 205.940,322.868 205.620 C 323.137 205.296,323.179 205.039,322.963 205.039 C 322.750 205.039,322.358 205.300,322.093 205.620 M377.723 205.772 C 376.603 205.943,376.048 206.272,375.694 206.977 C 374.986 208.381,374.988 244.725,375.695 246.124 L 376.185 247.093 388.093 247.196 L 400.000 247.298 400.000 226.607 L 400.000 205.915 398.547 205.675 C 396.727 205.374,379.807 205.453,377.723 205.772 M317.504 213.390 C 316.844 214.839,316.969 215.054,317.829 213.953 C 318.648 212.907,318.794 212.403,318.279 212.403 C 318.100 212.403,317.751 212.847,317.504 213.390 M316.279 215.698 C 316.279 216.017,316.105 216.279,315.891 216.279 C 315.678 216.279,315.508 216.584,315.512 216.957 C 315.519 217.507,315.665 217.452,316.279 216.667 C 317.126 215.584,317.243 215.116,316.667 215.116 C 316.453 215.116,316.279 215.378,316.279 215.698 M270.369 217.188 C 269.349 218.524,269.167 218.994,269.671 218.989 C 269.830 218.988,270.359 218.290,270.845 217.439 C 271.922 215.553,271.704 215.438,270.369 217.188 M314.323 219.025 C 313.690 220.209,314.127 220.345,314.879 219.198 C 315.232 218.659,315.349 218.217,315.139 218.217 C 314.928 218.217,314.561 218.581,314.323 219.025 M268.471 220.476 C 267.784 221.235,267.649 221.707,268.120 221.702 C 268.280 221.701,268.612 221.265,268.859 220.733 C 269.393 219.581,269.323 219.535,268.471 220.476 M181.783 224.806 C 181.783 225.040,183.398 225.194,185.853 225.194 C 188.091 225.194,189.922 225.348,189.922 225.536 C 189.922 225.725,190.315 225.977,190.795 226.096 C 191.556 226.287,191.519 226.194,190.504 225.368 C 189.262 224.358,181.783 223.876,181.783 224.806 M171.482 226.405 C 171.366 226.592,171.708 226.744,172.241 226.744 C 172.774 226.744,173.304 226.592,173.420 226.405 C 173.535 226.219,173.193 226.066,172.660 226.066 C 172.127 226.066,171.597 226.219,171.482 226.405 M192.248 226.960 C 192.248 227.391,193.356 228.293,194.351 228.671 C 195.750 229.203,195.596 228.949,193.798 227.759 C 192.946 227.195,192.248 226.835,192.248 226.960 M263.429 229.054 C 262.299 230.761,262.218 231.008,262.791 231.008 C 263.004 231.008,263.178 230.746,263.178 230.426 C 263.178 230.107,263.309 229.844,263.469 229.842 C 263.790 229.839,264.800 227.849,264.588 227.637 C 264.514 227.563,263.993 228.201,263.429 229.054 M196.845 230.601 C 197.349 231.038,197.915 231.395,198.105 231.395 C 198.783 231.395,198.429 231.018,197.190 230.417 L 195.930 229.807 196.845 230.601 M159.205 231.292 C 157.978 231.906,157.772 232.582,158.902 232.286 C 159.653 232.090,160.720 231.099,160.423 230.874 C 160.340 230.810,159.792 230.998,159.205 231.292 M155.663 233.350 C 153.613 234.878,153.432 235.141,155.032 234.266 C 156.510 233.456,157.539 232.603,157.311 232.375 C 157.231 232.295,156.489 232.734,155.663 233.350 M261.111 232.817 C 260.741 233.187,260.792 233.721,261.199 233.721 C 261.389 233.721,261.645 233.459,261.768 233.140 C 261.995 232.549,261.582 232.346,261.111 232.817 M200.775 233.311 C 200.775 233.739,202.317 234.884,202.892 234.884 C 203.109 234.884,202.816 234.448,202.242 233.915 C 201.120 232.875,200.775 232.733,200.775 233.311 M151.163 236.628 C 150.639 237.259,150.764 237.338,151.712 236.974 C 152.050 236.845,152.326 236.583,152.326 236.393 C 152.326 235.857,151.698 235.984,151.163 236.628 M258.377 237.779 C 258.023 238.318,257.906 238.760,258.117 238.760 C 258.547 238.760,259.461 237.239,259.192 236.970 C 259.097 236.875,258.730 237.239,258.377 237.779 M303.610 237.306 C 302.858 238.476,302.387 239.543,302.711 239.342 C 303.363 238.939,304.709 236.822,304.313 236.822 C 304.098 236.822,303.782 237.040,303.610 237.306 M149.224 238.129 C 148.905 238.387,148.033 239.288,147.287 240.132 L 145.930 241.667 147.458 240.310 C 149.992 238.059,150.098 237.953,149.949 237.804 C 149.870 237.725,149.544 237.871,149.224 238.129 M210.715 240.702 C 211.173 241.177,211.783 241.485,212.072 241.387 C 212.389 241.280,212.059 240.939,211.240 240.525 L 209.884 239.841 210.715 240.702 M300.227 243.042 C 299.650 243.914,299.255 244.833,299.349 245.085 C 299.443 245.337,299.727 245.020,299.981 244.381 C 300.234 243.741,300.719 242.912,301.058 242.537 C 301.397 242.162,301.585 241.766,301.476 241.656 C 301.366 241.547,300.804 242.170,300.227 243.042 M254.934 243.645 C 254.778 243.800,254.651 244.195,254.651 244.522 C 254.651 244.958,254.766 245.002,255.082 244.685 C 255.320 244.448,255.447 244.053,255.365 243.808 C 255.283 243.563,255.089 243.490,254.934 243.645 M298.316 246.445 C 297.963 246.835,297.674 247.358,297.674 247.608 C 297.674 247.858,297.500 248.062,297.287 248.062 C 297.074 248.062,296.899 248.229,296.899 248.433 C 296.899 248.636,296.361 249.726,295.704 250.855 C 294.901 252.233,294.763 252.652,295.283 252.132 C 295.709 251.705,296.422 250.703,296.866 249.903 C 297.311 249.104,298.020 247.839,298.443 247.093 C 299.302 245.577,299.266 245.395,298.316 246.445 M144.581 246.802 C 144.584 246.962,145.326 247.689,146.228 248.418 L 147.868 249.742 146.336 248.127 C 144.745 246.450,144.569 246.317,144.581 246.802 M221.324 247.882 C 221.334 248.549,222.043 249.404,222.340 249.107 C 222.498 248.949,222.333 248.524,221.973 248.164 C 221.613 247.803,221.321 247.676,221.324 247.882 M252.184 248.618 C 251.470 249.707,251.405 250.000,251.876 250.000 C 252.241 250.000,253.217 248.049,252.974 247.806 C 252.888 247.720,252.533 248.086,252.184 248.618 M223.058 249.619 C 222.928 249.829,223.094 250.000,223.427 250.000 C 223.759 250.000,224.031 250.146,224.031 250.325 C 224.031 250.686,225.981 251.668,226.221 251.428 C 226.304 251.344,225.680 250.818,224.833 250.257 C 223.942 249.668,223.194 249.399,223.058 249.619 M148.863 250.612 C 149.374 251.228,150.000 251.343,150.000 250.820 C 150.000 250.632,149.641 250.384,149.203 250.269 C 148.548 250.098,148.487 250.160,148.863 250.612 M250.472 251.559 C 250.018 252.286,250.039 252.308,250.766 251.853 C 251.198 251.584,251.550 251.231,251.550 251.070 C 251.550 250.510,250.960 250.778,250.472 251.559 M151.334 252.532 C 151.748 252.845,152.271 253.095,152.497 253.088 C 152.722 253.082,152.568 252.820,152.155 252.507 C 151.741 252.194,151.218 251.944,150.992 251.950 C 150.766 251.957,150.920 252.219,151.334 252.532 M228.682 253.210 C 228.682 253.284,229.205 253.845,229.845 254.457 C 230.484 255.070,231.008 255.397,231.008 255.184 C 231.008 254.971,230.484 254.410,229.845 253.937 C 229.205 253.464,228.682 253.137,228.682 253.210 M293.217 255.039 C 292.886 255.678,292.696 256.202,292.793 256.202 C 292.891 256.202,293.343 255.678,293.798 255.039 C 294.254 254.399,294.445 253.876,294.222 253.876 C 294.000 253.876,293.548 254.399,293.217 255.039 M154.073 254.657 C 154.189 254.844,155.108 255.550,156.115 256.225 C 157.830 257.374,157.886 257.387,156.997 256.429 C 156.080 255.441,153.646 253.966,154.073 254.657 M234.109 257.086 C 234.109 257.160,234.632 257.721,235.271 258.333 C 235.911 258.946,236.434 259.273,236.434 259.060 C 236.434 258.847,235.911 258.286,235.271 257.813 C 234.632 257.340,234.109 257.013,234.109 257.086 M246.711 257.991 C 246.285 258.642,246.221 258.947,246.533 258.843 C 246.800 258.754,247.161 258.298,247.334 257.829 C 247.755 256.693,247.523 256.753,246.711 257.991 M161.628 260.485 C 163.313 261.837,164.200 262.115,162.881 260.878 C 162.185 260.224,161.400 259.694,161.137 259.699 C 160.874 259.703,161.095 260.057,161.628 260.485 M289.804 260.875 C 289.633 261.529,289.695 261.590,290.147 261.215 C 290.763 260.703,290.878 260.078,290.355 260.078 C 290.167 260.078,289.919 260.436,289.804 260.875 M240.698 261.962 C 240.698 262.156,241.134 262.600,241.667 262.949 C 242.200 263.298,242.636 263.425,242.636 263.232 C 242.636 263.038,242.200 262.594,241.667 262.245 C 241.134 261.896,240.698 261.768,240.698 261.962 M288.600 262.735 C 288.488 262.917,288.213 263.571,287.990 264.188 L 287.584 265.310 288.357 264.341 C 288.782 263.808,289.134 263.154,289.139 262.888 C 289.149 262.327,288.897 262.256,288.600 262.735 M165.504 263.165 C 165.504 263.370,165.896 263.745,166.376 263.996 C 167.243 264.451,167.244 264.449,166.510 263.622 C 165.689 262.698,165.504 262.614,165.504 263.165 M169.380 266.386 C 169.380 266.460,169.947 266.936,170.640 267.443 C 171.419 268.014,171.690 268.107,171.350 267.689 C 170.834 267.053,169.380 266.092,169.380 266.386 M285.641 267.863 C 285.008 269.046,285.445 269.182,286.197 268.035 C 286.550 267.496,286.667 267.054,286.457 267.054 C 286.246 267.054,285.879 267.418,285.641 267.863 M175.019 270.861 C 175.222 271.037,176.172 271.757,177.132 272.462 L 178.876 273.744 177.163 272.143 C 176.221 271.263,175.270 270.543,175.051 270.543 C 174.802 270.543,174.790 270.663,175.019 270.861 M376.835 272.492 C 375.230 273.142,375.161 274.079,375.277 293.689 L 375.388 312.448 376.357 313.192 C 377.261 313.886,378.085 313.937,388.666 313.945 L 400.007 313.953 399.906 293.120 L 399.806 272.287 388.760 272.211 C 382.684 272.170,377.318 272.296,376.835 272.492 M282.034 274.084 C 280.600 276.274,280.968 276.381,282.517 274.224 C 283.206 273.265,283.615 272.481,283.426 272.481 C 283.238 272.481,282.611 273.202,282.034 274.084 M179.457 274.017 C 179.457 274.223,179.850 274.597,180.329 274.849 C 181.197 275.304,181.198 275.302,180.463 274.475 C 179.643 273.551,179.457 273.467,179.457 274.017 M279.883 277.735 C 279.436 278.494,279.070 279.279,279.070 279.480 C 279.070 279.681,278.895 279.845,278.682 279.845 C 278.469 279.845,278.298 280.150,278.303 280.523 C 278.312 281.231,279.817 279.673,279.836 278.936 C 279.841 278.756,280.206 278.101,280.647 277.482 C 281.087 276.863,281.279 276.357,281.072 276.357 C 280.866 276.357,280.331 276.977,279.883 277.735 M187.274 280.329 C 189.098 281.999,189.822 282.488,189.147 281.594 C 188.383 280.582,187.104 279.486,186.668 279.470 C 186.477 279.463,186.750 279.850,187.274 280.329 M276.468 283.577 C 276.008 284.568,276.014 284.575,276.758 283.902 C 277.531 283.203,277.758 282.556,277.229 282.561 C 277.069 282.563,276.726 283.020,276.468 283.577 M191.860 283.898 C 192.746 284.867,194.961 286.296,194.961 285.899 C 194.961 285.807,194.046 285.081,192.926 284.285 C 191.227 283.077,191.051 283.014,191.860 283.898 M198.097 288.873 C 200.062 290.625,202.326 292.274,202.326 291.955 C 202.326 291.458,199.838 289.147,199.303 289.147 C 199.047 289.147,198.837 288.993,198.837 288.805 C 198.837 288.617,198.455 288.362,197.987 288.240 C 197.171 288.027,197.176 288.052,198.097 288.873 M272.539 289.878 C 272.252 290.060,272.078 290.528,272.153 290.918 C 272.270 291.527,272.388 291.478,272.976 290.581 C 273.666 289.527,273.505 289.266,272.539 289.878 M269.502 295.446 C 268.749 296.616,268.279 297.682,268.603 297.482 C 269.255 297.079,270.600 294.961,270.204 294.961 C 269.989 294.961,269.673 295.179,269.502 295.446 M210.868 298.662 C 211.141 298.991,211.876 299.625,212.501 300.070 L 213.637 300.879 213.121 300.052 C 212.837 299.597,212.379 299.225,212.104 299.225 C 211.829 299.225,211.503 298.963,211.380 298.643 C 211.258 298.324,210.980 298.062,210.764 298.062 C 210.542 298.062,210.588 298.324,210.868 298.662 M266.860 299.612 C 266.475 300.039,266.295 300.388,266.460 300.388 C 266.626 300.388,266.522 300.683,266.230 301.043 C 265.907 301.441,265.881 301.589,266.164 301.419 C 266.857 301.004,268.326 298.837,267.916 298.837 C 267.721 298.837,267.246 299.186,266.860 299.612 M264.791 303.313 C 264.131 304.761,264.255 304.976,265.116 303.876 C 265.935 302.829,266.081 302.326,265.566 302.326 C 265.387 302.326,265.038 302.770,264.791 303.313 M218.217 304.234 C 218.217 304.434,218.756 304.982,219.415 305.452 C 220.529 306.244,220.580 306.250,220.133 305.535 C 219.566 304.626,218.217 303.710,218.217 304.234 M261.091 309.593 C 260.960 309.966,260.741 310.533,260.606 310.853 C 260.471 311.172,260.732 310.971,261.188 310.404 C 262.085 309.288,262.206 308.915,261.673 308.915 C 261.485 308.915,261.223 309.220,261.091 309.593 M224.999 309.688 C 225.130 309.900,225.620 310.274,226.087 310.519 C 226.932 310.962,226.933 310.960,226.200 310.134 C 225.460 309.301,224.551 308.963,224.999 309.688 M228.056 312.135 C 228.457 312.389,229.316 313.068,229.963 313.645 C 230.611 314.221,231.320 314.581,231.540 314.446 C 231.783 314.296,231.719 314.128,231.376 314.018 C 231.067 313.919,230.727 313.727,230.620 313.591 C 230.138 312.980,228.147 311.630,227.758 311.651 C 227.520 311.663,227.654 311.881,228.056 312.135 M259.424 312.500 C 258.672 313.670,258.201 314.736,258.525 314.536 C 259.177 314.133,260.523 312.016,260.127 312.016 C 259.912 312.016,259.595 312.234,259.424 312.500 M256.627 317.271 C 255.680 318.876,256.175 318.724,257.373 317.043 C 257.823 316.409,258.023 315.891,257.817 315.891 C 257.610 315.891,257.075 316.512,256.627 317.271 M234.496 317.203 C 234.496 317.286,234.932 317.638,235.465 317.988 C 236.565 318.709,236.726 318.564,235.825 317.663 C 235.269 317.107,234.496 316.840,234.496 317.203 M237.790 319.752 C 238.765 320.847,241.211 322.210,240.360 321.184 C 240.067 320.831,239.587 320.543,239.294 320.543 C 239.000 320.543,238.760 320.410,238.760 320.248 C 238.760 320.086,238.367 319.713,237.888 319.418 L 237.016 318.882 237.790 319.752 M252.392 324.456 C 251.657 325.633,252.099 325.791,252.863 324.624 C 253.217 324.085,253.370 323.643,253.203 323.643 C 253.036 323.643,252.671 324.009,252.392 324.456 M250.728 326.570 C 250.398 326.900,249.762 327.198,249.315 327.232 C 248.237 327.313,248.636 327.907,249.769 327.907 C 250.579 327.907,251.938 326.855,251.938 326.229 C 251.938 325.780,251.353 325.945,250.728 326.570 M376.488 338.469 C 376.060 338.949,375.411 339.995,375.046 340.795 C 374.681 341.594,374.347 342.275,374.304 342.307 C 374.260 342.340,370.960 342.470,366.970 342.598 C 360.718 342.797,359.620 342.925,359.025 343.522 C 357.963 344.584,357.965 367.434,359.027 368.494 C 359.913 369.378,378.263 369.568,379.128 368.702 C 379.395 368.435,380.056 368.217,380.598 368.217 C 381.699 368.217,388.443 364.996,389.166 364.125 C 389.421 363.818,389.797 363.566,390.002 363.566 C 390.493 363.566,394.879 359.139,396.335 357.174 C 397.416 355.715,397.756 355.159,398.708 353.295 C 398.926 352.868,399.305 352.129,399.552 351.653 C 399.839 351.096,400.000 348.423,400.000 344.191 L 400.000 337.597 388.633 337.597 C 377.335 337.597,377.262 337.602,376.488 338.469 M294.390 342.967 C 292.326 343.422,292.232 344.043,292.342 356.479 C 292.433 366.752,292.506 367.867,293.134 368.494 C 293.776 369.137,295.199 369.194,313.007 369.294 L 332.188 369.401 333.148 368.365 L 334.109 367.329 334.100 356.048 C 334.092 345.526,334.041 344.702,333.347 343.798 L 332.603 342.829 314.073 342.771 C 303.881 342.739,295.024 342.827,294.390 342.967 " stroke="none" fill="#242424" fill-rule="evenodd"></path></g></svg>