<svg id="svg" xmlns="http://www.w3.org/2000/svg" xmlns:xlink="http://www.w3.org/1999/xlink" width="400" height="400" viewBox="0, 0, 400,400" version="1.1"><g id="svgg"><path id="path0" d="M197.000 14.458 C 195.755 15.133,15.222 195.663,14.575 196.880 C 13.835 198.270,13.835 201.730,14.575 203.120 C 15.271 204.429,195.834 384.933,197.074 385.559 C 198.311 386.184,201.840 386.106,203.120 385.425 C 204.384 384.753,384.775 204.230,385.506 202.905 C 386.177 201.691,386.130 198.205,385.425 196.880 C 384.729 195.571,204.166 15.067,202.926 14.441 C 201.813 13.879,198.048 13.890,197.000 14.458 M190.929 78.638 C 193.925 79.658,193.141 80.000,187.800 80.000 C 182.540 80.000,181.687 79.661,184.500 78.688 C 186.804 77.892,188.697 77.877,190.929 78.638 M200.328 95.900 L 200.456 96.800 188.428 96.800 L 176.400 96.800 176.400 95.794 L 176.400 94.788 188.300 94.894 L 200.200 95.000 200.328 95.900 M252.469 95.462 C 253.820 96.685,253.229 96.800,245.600 96.800 C 237.761 96.800,237.549 96.761,238.662 95.531 C 239.612 94.482,251.320 94.423,252.469 95.462 M153.496 111.700 C 154.681 114.172,155.378 114.000,144.187 114.000 C 133.022 114.000,132.998 113.994,134.496 111.595 C 135.321 110.274,152.859 110.371,153.496 111.700 M201.920 111.280 C 202.184 111.544,202.400 112.264,202.400 112.880 L 202.400 114.000 190.591 114.000 L 178.783 114.000 178.339 113.026 C 177.327 110.804,177.347 110.800,189.907 110.800 C 198.344 110.800,201.569 110.929,201.920 111.280 M254.895 112.000 C 254.677 114.087,255.236 114.000,242.005 114.000 L 229.585 114.000 229.848 112.900 C 230.367 110.724,230.001 110.780,242.954 110.894 L 255.000 111.000 254.895 112.000 M160.125 128.552 C 160.548 129.452,160.707 130.253,160.502 130.458 C 159.832 131.128,136.728 130.688,136.406 130.000 C 136.251 129.670,135.945 129.040,135.725 128.600 C 134.894 126.932,135.123 126.900,147.513 126.951 L 159.394 127.000 160.125 128.552 M203.361 127.228 C 203.472 127.339,203.685 128.188,203.833 129.115 L 204.102 130.800 192.451 130.800 C 182.832 130.800,180.800 130.704,180.800 130.250 C 180.800 129.947,180.690 129.150,180.556 128.479 C 180.325 127.327,180.388 127.250,181.656 127.129 C 183.844 126.919,203.141 127.007,203.361 127.228 M251.829 127.295 C 251.953 127.420,251.834 128.260,251.564 129.161 L 251.073 130.800 238.287 130.800 L 225.500 130.800 225.750 129.550 C 225.888 128.863,226.000 128.064,226.000 127.775 C 226.000 127.018,251.085 126.552,251.829 127.295 M118.968 145.240 C 122.061 148.067,122.217 148.000,112.600 148.000 C 103.052 148.000,103.276 148.092,105.837 145.243 L 107.674 143.200 112.205 143.200 L 116.736 143.200 118.968 145.240 M166.381 145.051 C 167.780 148.212,168.572 148.000,155.386 148.000 L 143.572 148.000 142.786 146.167 C 141.421 142.983,140.617 143.200,153.781 143.200 L 165.563 143.200 166.381 145.051 M204.948 144.100 C 205.081 144.595,205.192 145.675,205.195 146.500 L 205.200 148.000 194.043 148.000 C 184.956 148.000,182.847 147.898,182.675 147.451 C 182.559 147.149,182.339 146.069,182.187 145.051 L 181.909 143.200 193.308 143.200 L 204.707 143.200 204.948 144.100 M248.000 144.054 C 248.000 144.523,247.792 145.603,247.537 146.454 L 247.073 148.000 234.091 148.000 L 221.109 148.000 221.355 146.800 C 221.490 146.140,221.710 145.060,221.845 144.400 L 222.091 143.200 235.045 143.200 L 248.000 143.200 248.000 144.054 M131.891 161.769 C 132.792 163.182,133.425 164.442,133.298 164.569 C 133.171 164.696,127.007 164.800,119.601 164.800 L 106.135 164.800 105.686 163.900 C 105.002 162.532,104.000 159.946,104.000 159.551 C 104.000 159.357,109.860 159.200,117.127 159.200 L 130.253 159.200 131.891 161.769 M172.443 160.000 C 172.940 160.905,174.400 164.324,174.400 164.584 C 174.400 164.709,168.793 164.764,161.941 164.706 L 149.482 164.600 148.752 162.400 C 148.351 161.190,148.017 159.972,148.011 159.694 C 147.993 158.876,171.990 159.177,172.443 160.000 M206.568 161.600 C 206.938 162.920,207.423 164.000,207.644 164.000 C 207.866 164.000,207.936 164.180,207.800 164.400 C 207.644 164.652,203.196 164.800,195.776 164.800 L 184.000 164.800 184.000 162.000 L 184.000 159.200 194.947 159.200 L 205.895 159.200 206.568 161.600 M244.184 160.700 C 244.046 161.525,243.754 162.785,243.535 163.500 L 243.138 164.800 229.369 164.800 C 216.134 164.800,214.888 164.689,216.174 163.621 C 216.490 163.359,216.871 162.572,217.022 161.872 C 217.637 159.004,216.596 159.200,231.232 159.200 L 244.436 159.200 244.184 160.700 M142.771 178.196 C 144.107 179.844,145.200 181.374,145.200 181.596 C 145.200 182.068,117.253 182.163,116.577 181.694 C 116.072 181.343,112.400 175.880,112.400 175.479 C 112.400 175.326,118.687 175.200,126.371 175.200 L 140.342 175.200 142.771 178.196 M240.783 176.300 C 240.774 176.905,240.535 178.390,240.253 179.600 L 239.740 181.800 196.792 181.902 C 173.170 181.958,153.691 181.851,153.504 181.664 C 153.123 181.283,152.444 175.689,152.742 175.391 C 152.847 175.286,172.703 175.200,196.867 175.200 L 240.800 175.200 240.783 176.300 M295.278 179.779 C 300.851 181.470,299.973 182.000,291.600 182.000 C 284.276 182.000,283.231 181.762,285.700 180.655 C 289.212 179.080,292.104 178.815,295.278 179.779 M241.200 191.951 C 241.200 193.985,244.091 198.000,245.556 198.000 C 245.960 198.000,246.027 198.133,245.759 198.401 C 245.493 198.667,225.245 198.768,185.823 198.701 L 126.288 198.600 124.391 195.200 C 123.348 193.330,122.574 191.665,122.671 191.500 C 123.132 190.715,241.200 191.165,241.200 191.951 M306.000 192.739 C 306.000 194.097,305.721 194.544,303.630 196.539 L 301.259 198.800 279.253 198.800 C 265.014 198.800,257.160 198.659,257.000 198.400 C 256.864 198.180,257.087 198.000,257.496 198.000 C 257.905 198.000,258.411 197.842,258.620 197.649 C 258.829 197.456,260.080 196.709,261.400 195.990 C 262.720 195.271,264.790 193.901,266.000 192.945 L 268.200 191.206 287.100 191.203 L 306.000 191.200 306.000 192.739 M291.200 207.577 C 291.200 207.785,290.866 208.190,290.457 208.477 C 290.048 208.765,288.449 210.128,286.903 211.506 C 285.358 212.884,283.638 214.370,283.082 214.807 C 282.080 215.595,281.391 215.601,206.739 215.501 L 131.407 215.400 130.930 212.400 C 130.668 210.750,130.330 208.905,130.180 208.300 L 129.907 207.200 210.553 207.200 C 260.819 207.200,291.200 207.342,291.200 207.577 M272.480 223.414 C 272.598 223.531,271.677 224.656,270.433 225.914 C 269.190 227.171,267.855 228.920,267.467 229.800 C 267.079 230.680,266.616 231.670,266.437 232.000 C 265.968 232.867,134.763 233.119,134.045 232.254 C 133.565 231.676,132.359 224.014,132.667 223.500 C 132.869 223.164,272.145 223.078,272.480 223.414 M263.200 239.640 C 263.200 239.881,262.930 240.691,262.600 241.440 C 262.270 242.188,261.730 243.412,261.400 244.160 C 261.070 244.909,260.800 245.631,260.800 245.765 C 260.800 245.899,260.420 246.817,259.956 247.804 L 259.112 249.600 198.936 249.600 L 138.759 249.600 138.186 248.229 C 137.871 247.475,137.234 245.630,136.769 244.129 C 136.305 242.628,135.774 241.013,135.589 240.540 C 135.405 240.067,135.361 239.572,135.493 239.440 C 135.963 238.970,263.200 239.169,263.200 239.640 M256.000 255.866 C 256.000 256.629,251.428 263.554,249.640 265.500 L 248.445 266.800 198.723 266.794 C 171.375 266.791,148.803 266.656,148.563 266.494 C 147.526 265.796,141.541 256.018,141.848 255.522 C 142.296 254.798,256.000 255.140,256.000 255.866 M244.140 271.504 C 244.244 271.671,243.067 273.156,241.525 274.804 C 239.984 276.452,237.537 279.105,236.088 280.700 L 233.454 283.600 198.088 283.600 L 162.722 283.600 159.916 280.900 C 156.628 277.736,151.941 272.018,152.240 271.536 C 152.498 271.118,243.882 271.086,244.140 271.504 M233.716 294.269 C 233.903 299.391,233.845 300.374,233.347 300.565 C 232.430 300.917,168.071 300.839,167.853 300.486 C 167.746 300.313,167.463 297.749,167.224 294.786 C 166.985 291.824,166.680 288.996,166.548 288.502 L 166.308 287.605 199.654 287.502 C 221.564 287.435,233.085 287.537,233.248 287.800 C 233.384 288.020,233.595 290.931,233.716 294.269 M234.095 308.300 C 234.284 316.014,234.238 316.674,233.457 317.537 C 232.039 319.103,219.901 322.444,208.600 324.378 C 200.282 325.801,185.601 324.865,177.400 322.387 C 176.740 322.188,174.580 321.547,172.600 320.964 C 167.106 319.345,167.090 319.315,167.422 311.400 C 167.569 307.880,167.771 304.865,167.869 304.700 C 167.967 304.535,182.887 304.400,201.024 304.400 L 234.000 304.400 234.095 308.300 " stroke="none" fill="#c73c96" fill-rule="evenodd"></path><path id="path1" d="M0.000 200.000 L 0.000 400.000 200.000 400.000 L 400.000 400.000 400.000 200.000 L 400.000 0.000 200.000 0.000 L 0.000 0.000 0.000 200.000 M202.926 14.441 C 204.166 15.067,384.729 195.571,385.425 196.880 C 386.130 198.205,386.177 201.691,385.506 202.905 C 384.775 204.230,204.384 384.753,203.120 385.425 C 201.840 386.106,198.311 386.184,197.074 385.559 C 195.834 384.933,15.271 204.429,14.575 203.120 C 13.835 201.730,13.835 198.270,14.575 196.880 C 15.222 195.663,195.755 15.133,197.000 14.458 C 198.048 13.890,201.813 13.879,202.926 14.441 M184.500 78.688 C 181.687 79.661,182.540 80.000,187.800 80.000 C 193.141 80.000,193.925 79.658,190.929 78.638 C 188.697 77.877,186.804 77.892,184.500 78.688 M176.400 95.794 L 176.400 96.800 188.428 96.800 L 200.456 96.800 200.328 95.900 L 200.200 95.000 188.300 94.894 L 176.400 94.788 176.400 95.794 M238.662 95.531 C 237.549 96.761,237.761 96.800,245.600 96.800 C 253.229 96.800,253.820 96.685,252.469 95.462 C 251.320 94.423,239.612 94.482,238.662 95.531 M134.496 111.595 C 132.998 113.994,133.022 114.000,144.187 114.000 C 155.378 114.000,154.681 114.172,153.496 111.700 C 152.859 110.371,135.321 110.274,134.496 111.595 M178.135 111.426 C 178.003 111.770,178.095 112.490,178.339 113.026 L 178.783 114.000 190.591 114.000 L 202.400 114.000 202.400 112.880 C 202.400 110.816,202.304 110.800,189.907 110.800 C 179.816 110.800,178.345 110.878,178.135 111.426 M230.509 111.294 C 230.290 111.572,229.992 112.295,229.848 112.900 L 229.585 114.000 242.005 114.000 C 255.236 114.000,254.677 114.087,254.895 112.000 L 255.000 111.000 242.954 110.894 C 233.618 110.812,230.818 110.902,230.509 111.294 M135.480 127.351 C 135.395 127.598,135.506 128.160,135.725 128.600 C 135.945 129.040,136.251 129.670,136.406 130.000 C 136.728 130.688,159.832 131.128,160.502 130.458 C 160.707 130.253,160.548 129.452,160.125 128.552 L 159.394 127.000 147.513 126.951 C 139.050 126.916,135.589 127.032,135.480 127.351 M181.656 127.129 C 180.388 127.250,180.325 127.327,180.556 128.479 C 180.690 129.150,180.800 129.947,180.800 130.250 C 180.800 130.704,182.832 130.800,192.451 130.800 L 204.102 130.800 203.833 129.115 C 203.685 128.188,203.472 127.339,203.361 127.228 C 203.141 127.007,183.844 126.919,181.656 127.129 M227.300 127.125 C 226.558 127.197,226.000 127.476,226.000 127.775 C 226.000 128.064,225.888 128.863,225.750 129.550 L 225.500 130.800 238.287 130.800 L 251.073 130.800 251.564 129.161 C 251.834 128.260,251.953 127.420,251.829 127.295 C 251.592 127.059,229.572 126.906,227.300 127.125 M105.837 145.243 C 103.276 148.092,103.052 148.000,112.600 148.000 C 122.217 148.000,122.061 148.067,118.968 145.240 L 116.736 143.200 112.205 143.200 L 107.674 143.200 105.837 145.243 M142.000 143.767 C 142.000 144.079,142.354 145.159,142.786 146.167 L 143.572 148.000 155.386 148.000 C 168.572 148.000,167.780 148.212,166.381 145.051 L 165.563 143.200 153.781 143.200 C 143.882 143.200,142.000 143.291,142.000 143.767 M182.187 145.051 C 182.339 146.069,182.559 147.149,182.675 147.451 C 182.847 147.898,184.956 148.000,194.043 148.000 L 205.200 148.000 205.195 146.500 C 205.192 145.675,205.081 144.595,204.948 144.100 L 204.707 143.200 193.308 143.200 L 181.909 143.200 182.187 145.051 M221.845 144.400 C 221.710 145.060,221.490 146.140,221.355 146.800 L 221.109 148.000 234.091 148.000 L 247.073 148.000 247.537 146.454 C 247.792 145.603,248.000 144.523,248.000 144.054 L 248.000 143.200 235.045 143.200 L 222.091 143.200 221.845 144.400 M104.000 159.551 C 104.000 159.946,105.002 162.532,105.686 163.900 L 106.135 164.800 119.601 164.800 C 127.007 164.800,133.171 164.696,133.298 164.569 C 133.425 164.442,132.792 163.182,131.891 161.769 L 130.253 159.200 117.127 159.200 C 109.860 159.200,104.000 159.357,104.000 159.551 M148.011 159.694 C 148.017 159.972,148.351 161.190,148.752 162.400 L 149.482 164.600 161.941 164.706 C 168.793 164.764,174.400 164.709,174.400 164.584 C 174.400 164.324,172.940 160.905,172.443 160.000 C 171.990 159.177,147.993 158.876,148.011 159.694 M184.000 162.000 L 184.000 164.800 195.776 164.800 C 203.196 164.800,207.644 164.652,207.800 164.400 C 207.936 164.180,207.866 164.000,207.644 164.000 C 207.423 164.000,206.938 162.920,206.568 161.600 L 205.895 159.200 194.947 159.200 L 184.000 159.200 184.000 162.000 M217.661 159.900 C 217.460 160.285,217.172 161.173,217.022 161.872 C 216.871 162.572,216.490 163.359,216.174 163.621 C 214.888 164.689,216.134 164.800,229.369 164.800 L 243.138 164.800 243.535 163.500 C 243.754 162.785,244.046 161.525,244.184 160.700 L 244.436 159.200 231.232 159.200 C 219.063 159.200,217.999 159.255,217.661 159.900 M112.400 175.479 C 112.400 175.880,116.072 181.343,116.577 181.694 C 117.253 182.163,145.200 182.068,145.200 181.596 C 145.200 181.374,144.107 179.844,142.771 178.196 L 140.342 175.200 126.371 175.200 C 118.687 175.200,112.400 175.326,112.400 175.479 M152.742 175.391 C 152.444 175.689,153.123 181.283,153.504 181.664 C 153.691 181.851,173.170 181.958,196.792 181.902 L 239.740 181.800 240.253 179.600 C 240.535 178.390,240.774 176.905,240.783 176.300 L 240.800 175.200 196.867 175.200 C 172.703 175.200,152.847 175.286,152.742 175.391 M288.200 179.667 C 282.587 181.558,283.230 182.000,291.600 182.000 C 298.645 182.000,299.824 181.776,297.978 180.788 C 295.269 179.338,290.723 178.817,288.200 179.667 M122.671 191.500 C 122.574 191.665,123.348 193.330,124.391 195.200 L 126.288 198.600 185.823 198.701 C 225.245 198.768,245.493 198.667,245.759 198.401 C 246.027 198.133,245.960 198.000,245.556 198.000 C 244.091 198.000,241.200 193.985,241.200 191.951 C 241.200 191.165,123.132 190.715,122.671 191.500 M266.000 192.945 C 264.790 193.901,262.720 195.271,261.400 195.990 C 260.080 196.709,258.829 197.456,258.620 197.649 C 258.411 197.842,257.905 198.000,257.496 198.000 C 257.087 198.000,256.864 198.180,257.000 198.400 C 257.160 198.659,265.014 198.800,279.253 198.800 L 301.259 198.800 303.630 196.539 C 305.721 194.544,306.000 194.097,306.000 192.739 L 306.000 191.200 287.100 191.203 L 268.200 191.206 266.000 192.945 M130.180 208.300 C 130.330 208.905,130.668 210.750,130.930 212.400 L 131.407 215.400 206.739 215.501 C 281.391 215.601,282.080 215.595,283.082 214.807 C 283.638 214.370,285.358 212.884,286.903 211.506 C 288.449 210.128,290.048 208.765,290.457 208.477 C 290.866 208.190,291.200 207.785,291.200 207.577 C 291.200 207.342,260.819 207.200,210.553 207.200 L 129.907 207.200 130.180 208.300 M132.667 223.500 C 132.359 224.014,133.565 231.676,134.045 232.254 C 134.763 233.119,265.968 232.867,266.437 232.000 C 266.616 231.670,267.079 230.680,267.467 229.800 C 267.855 228.920,269.190 227.171,270.433 225.914 C 271.677 224.656,272.598 223.531,272.480 223.414 C 272.145 223.078,132.869 223.164,132.667 223.500 M135.493 239.440 C 135.361 239.572,135.405 240.067,135.589 240.540 C 135.774 241.013,136.305 242.628,136.769 244.129 C 137.234 245.630,137.871 247.475,138.186 248.229 L 138.759 249.600 198.936 249.600 L 259.112 249.600 259.956 247.804 C 260.420 246.817,260.800 245.899,260.800 245.765 C 260.800 245.631,261.070 244.909,261.400 244.160 C 261.730 243.412,262.270 242.188,262.600 241.440 C 262.930 240.691,263.200 239.881,263.200 239.640 C 263.200 239.169,135.963 238.970,135.493 239.440 M141.848 255.522 C 141.541 256.018,147.526 265.796,148.563 266.494 C 148.803 266.656,171.375 266.791,198.723 266.794 L 248.445 266.800 249.640 265.500 C 251.428 263.554,256.000 256.629,256.000 255.866 C 256.000 255.140,142.296 254.798,141.848 255.522 M152.240 271.536 C 151.941 272.018,156.628 277.736,159.916 280.900 L 162.722 283.600 198.088 283.600 L 233.454 283.600 236.088 280.700 C 237.537 279.105,239.984 276.452,241.525 274.804 C 243.067 273.156,244.244 271.671,244.140 271.504 C 243.882 271.086,152.498 271.118,152.240 271.536 M199.654 287.502 L 166.308 287.605 166.548 288.502 C 166.680 288.996,166.985 291.824,167.224 294.786 C 167.463 297.749,167.746 300.313,167.853 300.486 C 168.071 300.839,232.430 300.917,233.347 300.565 C 233.950 300.333,233.861 288.789,233.248 287.800 C 233.085 287.537,221.564 287.435,199.654 287.502 M167.869 304.700 C 167.771 304.865,167.569 307.880,167.422 311.400 C 167.090 319.315,167.106 319.345,172.600 320.964 C 174.580 321.547,176.740 322.188,177.400 322.387 C 185.601 324.865,200.282 325.801,208.600 324.378 C 219.901 322.444,232.039 319.103,233.457 317.537 C 234.238 316.674,234.284 316.014,234.095 308.300 L 234.000 304.400 201.024 304.400 C 182.887 304.400,167.967 304.535,167.869 304.700 " stroke="none" fill="#fbfbfb" fill-rule="evenodd"></path></g></svg>