<svg id="svg" xmlns="http://www.w3.org/2000/svg" xmlns:xlink="http://www.w3.org/1999/xlink" width="400" height="400" viewBox="0, 0, 400,400" version="1.1"><g id="svgg"><path id="path0" d="M212.088 1.246 C 211.306 2.027,210.667 3.339,210.667 4.161 C 210.667 5.964,392.753 188.472,395.172 189.094 C 403.234 191.165,400.104 170.944,390.215 157.074 C 387.044 152.627,251.837 17.067,245.410 11.891 C 234.513 3.115,216.100 -2.767,212.088 1.246 M160.209 3.402 C 156.137 4.580,154.406 8.320,156.290 11.866 C 158.050 15.179,387.486 243.882,389.549 244.381 C 398.200 246.472,400.315 228.977,393.223 214.000 L 390.540 208.333 291.103 108.897 L 191.667 9.460 186.000 6.790 C 177.670 2.865,166.937 1.455,160.209 3.402 M116.153 18.367 C 107.675 20.650,103.863 25.013,104.968 31.171 C 105.651 34.981,365.019 294.349,368.829 295.032 C 380.910 297.200,387.055 276.475,379.203 260.042 C 375.989 253.313,146.724 24.029,140.000 20.817 C 132.496 17.234,123.714 16.331,116.153 18.367 M289.382 25.090 C 285.717 29.749,283.818 27.461,328.178 71.822 C 367.125 110.768,368.434 112.000,370.875 112.000 C 380.021 112.000,377.898 103.560,363.795 83.859 C 340.706 51.602,296.185 16.441,289.382 25.090 M75.524 45.596 C 67.113 48.337,59.667 55.581,59.667 61.023 L 59.667 64.666 197.500 202.500 L 335.334 340.333 338.979 340.333 C 350.401 340.333,359.445 318.392,353.132 306.000 C 350.281 300.404,99.497 49.626,94.053 46.928 C 89.572 44.706,80.300 44.040,75.524 45.596 M42.940 84.717 C 35.014 86.613,30.922 91.117,22.497 107.214 C 11.625 127.989,5.154 148.799,1.213 175.667 C -0.322 186.133,0.075 216.945,1.895 228.667 C 22.234 359.626,158.512 435.704,279.685 383.745 C 311.640 370.043,321.386 358.489,313.772 343.333 C 311.044 337.903,62.202 88.968,56.913 86.379 C 52.913 84.420,47.082 83.726,42.940 84.717 " stroke="none" fill="#000000" fill-rule="evenodd"></path></g></svg>