<svg id="svg" xmlns="http://www.w3.org/2000/svg" width="400"
     height="474.3083003952569" viewBox="0, 0, 400,474.3083003952569">
  <g id="svgg">
    <path id="path0"
          d="M198.024 0.945 C 197.154 1.438,196.265 2.061,196.047 2.330 C 195.058 3.553,186.364 8.765,174.503 15.246 C 145.547 31.066,116.019 38.594,82.512 38.700 L 71.348 38.735 70.825 42.095 C 67.523 63.290,52.070 86.134,27.273 106.480 C 15.166 116.413,11.689 119.140,6.126 123.062 L -0.000 127.382 0.002 131.873 C 0.003 134.343,0.355 139.565,0.784 143.478 C 4.442 176.857,6.089 190.350,8.265 204.743 C 12.842 235.032,18.418 261.279,26.065 288.538 C 27.802 294.728,34.374 314.653,35.583 317.391 C 35.966 318.261,37.231 321.462,38.392 324.506 C 44.239 339.825,55.013 359.394,64.647 372.195 C 81.573 394.684,137.200 442.544,156.786 451.467 C 157.945 451.996,158.893 452.726,158.893 453.091 C 158.893 453.456,159.220 453.755,159.619 453.755 C 160.019 453.755,163.843 455.820,168.117 458.343 C 179.221 464.898,198.013 474.308,200.000 474.308 C 201.987 474.308,220.779 464.898,231.883 458.343 C 236.157 455.820,239.981 453.755,240.381 453.755 C 240.780 453.755,241.107 453.456,241.107 453.091 C 241.107 452.726,242.055 451.996,243.214 451.467 C 262.800 442.544,318.427 394.684,335.353 372.195 C 344.987 359.394,355.761 339.825,361.608 324.506 C 362.769 321.462,364.044 318.261,364.440 317.391 C 372.075 300.640,385.422 246.471,390.931 209.881 C 391.585 205.534,392.653 198.597,393.304 194.466 C 395.329 181.604,399.892 137.677,399.969 130.292 C 399.998 127.549,399.647 127.132,393.874 123.062 C 388.311 119.140,384.834 116.413,372.727 106.480 C 347.930 86.134,332.477 63.290,329.175 42.095 L 328.652 38.735 317.883 38.726 C 290.881 38.703,266.144 33.719,242.688 23.576 C 230.217 18.184,205.976 4.880,203.953 2.318 C 202.455 0.422,199.964 -0.155,198.024 0.945 "
          stroke="none" fill="#000000" fill-rule="evenodd"></path>
  </g>
</svg>
