<svg id="svg" xmlns="http://www.w3.org/2000/svg" xmlns:xlink="http://www.w3.org/1999/xlink" width="400" height="333.33333333333337" viewBox="0, 0, 400,333.33333333333337" version="1.1"><g id="svgg"><path id="path0" d="M7.667 0.443 C 5.005 1.845,3.180 3.492,1.321 6.171 L 0.167 7.833 0.167 166.833 L 0.167 325.833 1.304 327.500 C 2.730 329.589,4.066 330.932,6.060 332.279 L 7.620 333.333 196.911 333.333 L 386.202 333.333 387.907 332.484 C 388.845 332.017,389.793 331.417,390.013 331.151 C 390.234 330.884,390.584 330.665,390.791 330.663 C 391.268 330.657,397.333 324.575,397.333 324.102 C 397.333 323.907,397.551 323.568,397.817 323.347 C 398.083 323.126,398.683 322.178,399.151 321.240 L 400.000 319.536 400.000 206.278 C 400.000 81.460,400.175 93.326,398.281 89.962 C 398.035 89.525,397.751 89.092,397.651 89.000 C 397.550 88.908,397.102 88.308,396.654 87.667 C 394.613 84.738,390.509 81.410,386.833 79.702 C 385.917 79.276,384.906 78.793,384.588 78.630 C 384.270 78.467,383.662 78.333,383.238 78.333 C 382.814 78.333,382.279 78.146,382.050 77.917 C 381.721 77.588,372.789 77.500,339.631 77.500 L 297.629 77.500 296.988 78.333 C 296.039 79.569,296.182 80.262,297.750 82.017 C 299.482 83.956,300.654 85.322,302.455 87.500 C 303.213 88.417,304.305 89.692,304.882 90.333 C 306.102 91.690,308.333 94.599,308.333 94.832 C 308.333 94.920,308.549 95.257,308.812 95.580 C 310.179 97.259,311.667 99.375,311.667 99.642 C 311.667 99.808,311.788 99.994,311.936 100.056 C 312.248 100.184,314.333 103.181,314.333 103.501 C 314.333 103.788,315.030 104.408,315.925 104.917 C 316.496 105.241,323.038 105.333,345.495 105.333 L 374.333 105.333 374.333 206.500 L 374.333 307.667 307.167 307.667 L 240.000 307.667 240.000 216.162 C 240.000 143.578,239.914 124.503,239.583 123.912 C 239.043 122.945,237.278 121.000,236.941 121.000 C 236.798 121.000,235.890 120.401,234.923 119.668 C 233.957 118.936,233.040 118.336,232.885 118.335 C 232.730 118.334,232.157 118.016,231.613 117.628 C 230.303 116.696,224.340 113.667,223.814 113.667 C 223.587 113.667,222.546 113.217,221.500 112.667 C 220.454 112.117,219.323 111.667,218.986 111.667 C 218.649 111.667,218.280 111.517,218.167 111.333 C 218.053 111.150,217.603 111.000,217.167 111.000 C 216.730 111.000,216.280 110.850,216.167 110.667 C 216.053 110.483,215.603 110.333,215.167 110.333 C 214.730 110.333,214.280 110.183,214.167 110.000 C 214.053 109.817,213.453 109.667,212.833 109.667 C 212.213 109.667,211.613 109.517,211.500 109.333 C 211.387 109.150,210.787 109.000,210.167 109.000 C 209.547 109.000,208.947 108.850,208.833 108.667 C 208.720 108.483,208.120 108.333,207.500 108.333 C 206.880 108.333,206.280 108.183,206.167 108.000 C 206.053 107.817,205.325 107.667,204.547 107.667 C 203.769 107.667,202.991 107.532,202.817 107.367 C 202.643 107.202,201.450 106.982,200.167 106.878 C 198.883 106.773,196.933 106.513,195.833 106.299 C 192.793 105.707,165.088 105.510,164.025 106.072 C 163.580 106.308,160.852 108.862,157.961 111.750 C 155.071 114.637,152.485 117.000,152.214 117.000 C 151.944 117.000,151.672 117.121,151.611 117.269 C 151.481 117.586,148.483 119.667,148.158 119.667 C 148.036 119.667,147.512 119.968,146.994 120.337 C 145.622 121.314,142.340 123.000,141.810 123.000 C 141.559 123.000,140.819 123.300,140.167 123.667 C 139.514 124.033,138.757 124.333,138.485 124.333 C 138.213 124.333,137.730 124.475,137.412 124.647 C 136.813 124.972,132.537 126.015,129.333 126.617 C 126.243 127.198,118.673 127.653,117.775 127.311 C 117.325 127.140,116.374 127.000,115.661 127.000 C 113.788 127.000,107.382 125.749,106.850 125.280 C 106.676 125.126,106.111 125.000,105.595 125.000 C 105.080 125.000,104.397 124.868,104.079 124.706 C 103.760 124.544,103.050 124.226,102.500 124.000 C 101.950 123.774,101.240 123.456,100.921 123.294 C 100.603 123.132,100.141 123.000,99.894 123.000 C 99.359 123.000,96.537 121.602,95.734 120.940 C 95.422 120.682,94.717 120.257,94.167 119.996 C 93.167 119.521,90.315 117.712,90.000 117.354 C 89.908 117.250,89.008 116.539,88.000 115.773 C 85.923 114.195,80.950 109.172,79.481 107.167 C 78.943 106.433,78.418 105.758,78.313 105.667 C 77.971 105.367,76.000 102.385,76.000 102.167 C 76.000 102.049,75.583 101.326,75.073 100.560 C 74.187 99.229,73.828 98.523,73.092 96.667 C 72.910 96.208,72.440 95.182,72.047 94.385 C 71.655 93.589,71.333 92.681,71.333 92.368 C 71.333 92.056,71.209 91.657,71.058 91.483 C 70.906 91.309,70.444 89.667,70.031 87.833 C 69.618 86.000,69.142 83.958,68.974 83.295 C 68.584 81.765,68.568 65.767,68.956 65.527 C 69.220 65.364,69.375 64.599,69.894 60.915 C 69.991 60.226,70.205 59.580,70.369 59.478 C 70.533 59.377,70.667 58.937,70.667 58.500 C 70.667 58.063,70.817 57.613,71.000 57.500 C 71.183 57.387,71.333 57.024,71.333 56.694 C 71.333 56.364,71.801 55.135,72.372 53.963 C 73.485 51.680,73.596 51.464,75.107 48.667 C 75.652 47.658,76.263 46.497,76.466 46.086 C 76.668 45.675,76.946 45.337,77.083 45.336 C 77.221 45.335,77.333 45.172,77.333 44.974 C 77.333 44.019,85.182 35.486,88.000 33.377 C 88.642 32.897,89.242 32.417,89.333 32.310 C 90.419 31.049,100.828 25.333,102.039 25.333 C 102.362 25.333,102.720 25.183,102.833 25.000 C 102.947 24.817,103.380 24.667,103.797 24.667 C 104.214 24.667,104.663 24.559,104.794 24.428 C 105.125 24.098,107.985 23.366,109.017 23.348 C 109.484 23.340,110.009 23.200,110.183 23.036 C 111.067 22.207,125.714 21.882,129.667 22.603 C 130.858 22.821,132.474 23.094,133.258 23.210 C 134.041 23.327,134.762 23.552,134.861 23.711 C 134.959 23.870,135.397 24.000,135.833 24.000 C 136.270 24.000,136.720 24.150,136.833 24.333 C 136.947 24.517,137.397 24.667,137.833 24.667 C 138.270 24.667,138.720 24.817,138.833 25.000 C 138.947 25.183,139.316 25.333,139.655 25.333 C 139.993 25.333,140.885 25.633,141.635 26.000 C 144.873 27.582,145.571 27.938,146.833 28.651 C 147.567 29.065,148.317 29.522,148.500 29.667 C 148.683 29.811,149.382 30.235,150.053 30.608 C 151.337 31.324,151.467 31.421,154.255 33.761 C 157.233 36.260,158.506 36.756,161.371 36.535 C 172.092 35.710,193.211 35.593,194.175 36.354 C 194.363 36.502,196.238 36.685,198.342 36.760 C 200.445 36.835,204.417 37.237,207.167 37.653 C 209.917 38.069,212.992 38.480,214.000 38.567 C 215.008 38.654,215.976 38.862,216.150 39.029 C 216.324 39.197,216.999 39.338,217.650 39.343 C 218.301 39.348,219.883 39.644,221.167 40.000 C 222.450 40.356,223.904 40.652,224.397 40.657 C 224.890 40.662,225.387 40.817,225.500 41.000 C 225.613 41.183,226.213 41.333,226.833 41.333 C 227.453 41.333,228.053 41.483,228.167 41.667 C 228.280 41.850,228.859 42.000,229.453 42.000 C 230.047 42.000,230.676 42.126,230.850 42.280 C 231.024 42.433,232.067 42.759,233.167 43.002 C 234.267 43.246,235.343 43.579,235.559 43.743 C 236.480 44.443,238.804 43.883,239.331 42.833 C 239.952 41.597,240.277 14.810,239.678 14.211 C 239.488 14.022,239.333 13.381,239.333 12.786 C 239.333 12.192,239.183 11.613,239.000 11.500 C 238.817 11.387,238.667 11.024,238.667 10.694 C 238.667 8.460,233.460 1.914,230.616 0.574 C 228.979 -0.198,9.128 -0.327,7.667 0.443 M119.198 34.718 C 119.448 35.123,122.667 35.067,122.667 34.658 C 122.667 34.459,121.906 34.341,120.845 34.376 C 119.843 34.409,119.102 34.562,119.198 34.718 M112.889 35.222 C 112.420 35.691,112.705 35.879,113.671 35.737 C 114.223 35.656,114.757 35.457,114.857 35.295 C 115.067 34.955,113.224 34.887,112.889 35.222 M127.333 35.298 C 127.333 35.462,127.923 35.653,128.644 35.722 C 129.674 35.820,129.879 35.756,129.603 35.423 C 129.205 34.944,127.333 34.841,127.333 35.298 M110.167 36.000 C 109.923 36.394,110.249 36.394,111.167 36.000 C 111.809 35.724,111.807 35.713,111.103 35.690 C 110.701 35.677,110.280 35.817,110.167 36.000 M106.000 37.325 C 105.725 37.482,104.925 37.861,104.223 38.167 C 103.521 38.473,103.033 38.811,103.140 38.918 C 103.247 39.025,103.672 38.940,104.084 38.730 C 104.496 38.519,105.246 38.198,105.750 38.015 C 106.254 37.833,106.667 37.529,106.667 37.342 C 106.667 36.947,106.662 36.947,106.000 37.325 M136.124 37.932 C 136.430 38.425,137.729 38.687,137.576 38.224 C 137.506 38.009,137.105 37.783,136.687 37.722 C 136.260 37.659,136.013 37.752,136.124 37.932 M138.333 38.652 C 138.333 38.853,138.677 39.147,139.097 39.307 C 139.517 39.467,140.060 39.838,140.305 40.132 C 140.808 40.738,141.333 40.836,141.333 40.323 C 141.333 40.134,141.071 39.884,140.750 39.769 C 140.429 39.653,139.754 39.272,139.250 38.923 C 138.746 38.574,138.333 38.452,138.333 38.652 M99.000 41.000 C 98.547 41.342,98.288 41.733,98.425 41.870 C 98.562 42.006,98.987 41.782,99.370 41.370 C 100.267 40.408,100.060 40.201,99.000 41.000 M141.667 40.511 C 141.667 40.836,142.588 41.667,142.948 41.667 C 143.130 41.667,143.328 41.784,143.389 41.928 C 143.450 42.071,144.072 42.521,144.770 42.928 C 145.469 43.335,145.947 43.517,145.833 43.332 C 145.557 42.886,141.667 40.252,141.667 40.511 M97.333 42.167 C 97.098 42.451,96.980 42.758,97.072 42.849 C 97.163 42.941,97.431 42.784,97.667 42.500 C 97.902 42.216,98.020 41.909,97.928 41.817 C 97.837 41.726,97.569 41.883,97.333 42.167 M148.163 45.997 C 148.688 46.545,149.182 46.929,149.261 46.850 C 149.435 46.676,147.796 45.000,147.453 45.000 C 147.318 45.000,147.638 45.448,148.163 45.997 M150.500 48.333 C 150.832 48.700,151.160 49.000,151.230 49.000 C 151.300 49.000,151.196 48.700,151.000 48.333 C 150.804 47.967,150.475 47.667,150.270 47.667 C 150.065 47.667,150.168 47.967,150.500 48.333 M90.073 49.008 C 89.682 49.633,89.700 49.651,90.326 49.261 C 90.697 49.029,91.000 48.726,91.000 48.586 C 91.000 48.105,90.492 48.336,90.073 49.008 M169.732 48.695 C 169.815 48.944,172.667 49.057,178.833 49.057 C 184.999 49.057,187.852 48.944,187.935 48.695 C 188.020 48.441,185.321 48.333,178.833 48.333 C 172.345 48.333,169.647 48.441,169.732 48.695 M157.833 49.333 C 157.385 49.526,158.062 49.627,159.897 49.643 C 161.399 49.656,162.720 49.517,162.833 49.333 C 163.089 48.920,158.794 48.920,157.833 49.333 M194.667 49.333 C 194.667 49.517,195.154 49.668,195.750 49.669 C 196.346 49.670,197.883 49.748,199.167 49.842 L 201.500 50.012 199.833 49.521 C 197.921 48.957,194.667 48.839,194.667 49.333 M88.517 51.115 C 87.558 52.372,87.354 53.148,88.250 52.129 C 88.933 51.352,89.740 50.000,89.520 50.000 C 89.436 50.000,88.985 50.502,88.517 51.115 M206.167 50.667 C 206.280 50.850,206.889 51.000,207.520 51.000 C 208.151 51.000,208.667 50.850,208.667 50.667 C 208.667 50.483,208.058 50.333,207.314 50.333 C 206.497 50.333,206.042 50.465,206.167 50.667 M211.333 51.298 C 211.333 51.672,212.200 52.022,212.467 51.755 C 212.869 51.354,212.650 51.000,212.000 51.000 C 211.633 51.000,211.333 51.134,211.333 51.298 M214.209 52.069 C 214.438 52.439,215.333 52.400,215.333 52.021 C 215.333 51.849,215.044 51.730,214.690 51.757 C 214.336 51.783,214.120 51.924,214.209 52.069 M217.543 52.736 C 217.771 53.105,218.667 53.067,218.667 52.687 C 218.667 52.515,218.377 52.397,218.023 52.423 C 217.669 52.450,217.453 52.591,217.543 52.736 M219.167 52.667 C 219.053 52.850,219.278 53.000,219.667 53.000 C 220.055 53.000,220.280 52.850,220.167 52.667 C 220.053 52.483,219.828 52.333,219.667 52.333 C 219.505 52.333,219.280 52.483,219.167 52.667 M221.333 53.404 C 221.333 53.549,221.717 53.667,222.186 53.667 C 222.655 53.667,222.953 53.526,222.846 53.355 C 222.617 52.984,221.333 53.026,221.333 53.404 M224.500 54.000 C 224.387 54.183,224.612 54.333,225.000 54.333 C 225.388 54.333,225.613 54.183,225.500 54.000 C 225.387 53.817,225.162 53.667,225.000 53.667 C 224.838 53.667,224.613 53.817,224.500 54.000 M85.850 55.448 C 84.941 56.641,84.816 57.000,85.311 57.000 C 85.482 57.000,85.725 56.663,85.850 56.250 C 85.976 55.837,86.309 55.237,86.591 54.917 C 86.873 54.596,87.013 54.333,86.902 54.333 C 86.791 54.333,86.318 54.835,85.850 55.448 M228.833 55.333 C 228.947 55.517,229.339 55.667,229.706 55.667 C 230.073 55.667,230.280 55.517,230.167 55.333 C 230.053 55.150,229.661 55.000,229.294 55.000 C 228.927 55.000,228.720 55.150,228.833 55.333 M231.167 56.000 C 231.053 56.183,231.278 56.333,231.667 56.333 C 232.055 56.333,232.280 56.183,232.167 56.000 C 232.053 55.817,231.828 55.667,231.667 55.667 C 231.505 55.667,231.280 55.817,231.167 56.000 M237.183 57.973 C 237.012 58.251,238.850 58.863,239.092 58.609 C 239.149 58.549,239.615 58.774,240.127 59.110 C 240.639 59.445,241.125 59.653,241.206 59.572 C 241.439 59.338,239.680 58.286,239.373 58.475 C 239.222 58.569,238.814 58.430,238.466 58.167 C 237.718 57.601,237.439 57.559,237.183 57.973 M83.889 58.889 C 83.767 59.011,83.667 59.431,83.667 59.822 C 83.667 60.213,83.479 60.732,83.250 60.975 C 82.915 61.331,82.926 61.389,83.306 61.273 C 83.809 61.120,84.812 58.667,84.371 58.667 C 84.228 58.667,84.011 58.767,83.889 58.889 M244.167 60.667 C 244.280 60.850,244.598 61.000,244.873 61.000 C 245.148 61.000,245.280 60.850,245.167 60.667 C 245.053 60.483,244.736 60.333,244.461 60.333 C 244.186 60.333,244.053 60.483,244.167 60.667 M249.000 62.579 C 249.000 62.903,250.345 63.766,250.543 63.568 C 250.622 63.489,250.308 63.175,249.844 62.871 C 249.380 62.567,249.000 62.435,249.000 62.579 M82.583 62.859 C 82.446 62.998,82.333 63.416,82.333 63.789 C 82.333 64.279,82.434 64.366,82.698 64.102 C 82.898 63.902,83.011 63.483,82.948 63.172 C 82.885 62.861,82.721 62.720,82.583 62.859 M253.000 64.579 C 253.000 64.903,254.345 65.766,254.543 65.568 C 254.622 65.489,254.308 65.175,253.844 64.871 C 253.380 64.567,253.000 64.435,253.000 64.579 M81.815 65.696 C 81.692 65.895,81.758 66.225,81.962 66.429 C 82.235 66.701,82.333 66.605,82.333 66.067 C 82.333 65.262,82.160 65.138,81.815 65.696 M257.000 66.655 C 257.000 66.986,258.966 68.145,259.174 67.937 C 259.235 67.876,258.771 67.488,258.143 67.076 C 257.514 66.664,257.000 66.475,257.000 66.655 M81.222 68.889 C 80.887 69.224,80.955 72.333,81.298 72.333 C 81.777 72.333,81.984 71.444,81.813 70.115 C 81.638 68.746,81.549 68.562,81.222 68.889 M261.667 69.168 C 261.667 69.497,262.436 70.180,263.083 70.425 C 263.949 70.753,263.793 70.469,262.667 69.667 C 262.117 69.275,261.667 69.051,261.667 69.168 M265.000 71.241 C 265.000 71.660,265.953 72.492,266.177 72.268 C 266.265 72.179,266.037 71.835,265.669 71.502 C 265.301 71.169,265.000 71.052,265.000 71.241 M271.352 75.917 C 271.376 76.245,273.333 77.789,273.333 77.480 C 273.333 77.230,271.738 75.667,271.483 75.667 C 271.401 75.667,271.342 75.779,271.352 75.917 M81.000 78.314 C 81.000 79.823,81.634 81.156,81.692 79.770 C 81.706 79.438,81.776 78.867,81.848 78.500 C 82.012 77.662,81.720 76.667,81.311 76.667 C 81.140 76.667,81.000 77.408,81.000 78.314 M275.802 79.618 C 276.507 80.413,276.667 80.485,276.667 80.012 C 276.667 79.835,276.329 79.513,275.917 79.297 C 275.171 78.905,275.170 78.907,275.802 79.618 M81.667 82.627 C 81.667 82.994,81.817 83.387,82.000 83.500 C 82.183 83.613,82.333 83.406,82.333 83.039 C 82.333 82.673,82.183 82.280,82.000 82.167 C 81.817 82.053,81.667 82.261,81.667 82.627 M281.333 83.758 C 281.333 84.089,289.682 92.429,289.848 92.263 C 289.919 92.192,288.032 90.194,285.655 87.822 C 283.278 85.450,281.333 83.621,281.333 83.758 M82.333 85.294 C 82.333 85.661,82.483 86.053,82.667 86.167 C 82.850 86.280,83.000 86.073,83.000 85.706 C 83.000 85.339,82.850 84.947,82.667 84.833 C 82.483 84.720,82.333 84.927,82.333 85.294 M83.000 87.480 C 83.000 87.745,83.150 88.053,83.333 88.167 C 83.517 88.280,83.667 88.064,83.667 87.686 C 83.667 87.309,83.517 87.000,83.333 87.000 C 83.150 87.000,83.000 87.216,83.000 87.480 M85.258 91.853 C 85.155 91.956,85.296 92.490,85.570 93.041 C 85.845 93.591,86.141 93.970,86.228 93.883 C 86.316 93.795,86.193 93.373,85.956 92.945 C 85.719 92.517,85.557 92.054,85.596 91.917 C 85.680 91.621,85.520 91.591,85.258 91.853 M188.515 92.915 C 188.397 93.223,188.897 93.333,190.410 93.333 C 192.791 93.333,192.674 92.794,190.254 92.614 C 189.202 92.535,188.622 92.636,188.515 92.915 M164.833 93.000 C 164.703 93.212,165.601 93.333,167.294 93.333 C 168.761 93.333,170.053 93.183,170.167 93.000 C 170.297 92.788,169.399 92.667,167.706 92.667 C 166.239 92.667,164.947 92.817,164.833 93.000 M193.000 93.013 C 193.000 93.189,193.588 93.333,194.306 93.333 C 195.024 93.333,195.851 93.425,196.143 93.537 C 196.503 93.675,196.618 93.594,196.500 93.287 C 196.299 92.763,193.000 92.505,193.000 93.013 M159.670 93.297 C 159.059 93.467,158.958 93.601,159.285 93.804 C 159.561 93.974,159.936 93.873,160.270 93.539 C 160.567 93.243,160.740 93.015,160.655 93.033 C 160.570 93.052,160.127 93.170,159.670 93.297 M290.411 93.667 C 290.831 94.340,291.333 94.558,291.333 94.067 C 291.333 93.720,290.611 93.000,290.264 93.000 C 290.116 93.000,290.182 93.300,290.411 93.667 M155.466 93.722 C 155.371 93.875,155.603 94.000,155.980 94.000 C 156.358 94.000,156.667 93.875,156.667 93.722 C 156.667 93.569,156.435 93.444,156.152 93.444 C 155.869 93.444,155.560 93.569,155.466 93.722 M199.167 93.667 C 199.053 93.850,199.176 94.000,199.439 94.000 C 199.702 94.000,200.385 94.094,200.958 94.208 C 201.783 94.373,202.000 94.304,202.000 93.875 C 202.000 93.257,199.532 93.076,199.167 93.667 M86.333 94.615 C 86.333 94.770,86.628 95.163,86.988 95.489 C 87.628 96.068,87.633 96.062,87.238 95.210 C 86.848 94.371,86.333 94.032,86.333 94.615 M205.424 94.776 C 205.494 94.991,205.895 95.217,206.313 95.278 C 207.235 95.413,206.964 94.822,205.986 94.566 C 205.546 94.451,205.342 94.527,205.424 94.776 M154.299 95.731 C 154.084 96.133,153.553 96.844,153.121 97.311 C 152.303 98.192,152.128 98.667,152.619 98.667 C 152.777 98.667,153.453 97.842,154.123 96.833 C 154.792 95.825,155.194 95.000,155.015 95.000 C 154.836 95.000,154.514 95.329,154.299 95.731 M208.800 95.609 C 209.178 95.987,209.431 96.036,209.688 95.779 C 209.944 95.523,209.793 95.372,209.159 95.250 C 208.348 95.095,208.317 95.126,208.800 95.609 M213.333 96.370 C 212.906 96.677,212.915 96.703,213.395 96.550 C 213.704 96.452,214.013 96.539,214.081 96.744 C 214.222 97.165,215.000 96.800,215.000 96.314 C 215.000 95.890,213.952 95.925,213.333 96.370 M87.667 96.833 C 87.667 97.108,87.813 97.333,87.991 97.333 C 88.170 97.333,88.556 97.797,88.849 98.364 C 89.143 98.931,89.458 99.319,89.551 99.227 C 89.765 99.013,88.253 96.339,87.917 96.336 C 87.779 96.334,87.667 96.558,87.667 96.833 M294.000 97.833 C 294.431 98.292,294.943 98.667,295.138 98.667 C 295.333 98.667,295.089 98.292,294.594 97.833 C 294.100 97.375,293.588 97.000,293.456 97.000 C 293.325 97.000,293.569 97.375,294.000 97.833 M218.606 98.086 C 218.847 98.381,219.297 98.612,219.606 98.600 C 219.914 98.588,220.431 98.689,220.754 98.826 C 221.206 99.017,221.293 98.951,221.135 98.537 C 221.021 98.242,220.682 97.998,220.381 97.995 C 220.080 97.993,219.458 97.892,219.000 97.771 C 218.265 97.577,218.218 97.614,218.606 98.086 M224.757 100.110 C 224.828 100.324,225.228 100.550,225.646 100.611 C 226.569 100.746,226.297 100.155,225.319 99.900 C 224.879 99.785,224.675 99.861,224.757 100.110 M296.000 100.038 C 296.000 100.560,297.552 102.229,297.800 101.974 C 297.874 101.896,297.500 101.314,296.967 100.679 C 296.375 99.972,296.000 99.724,296.000 100.038 M90.333 100.093 C 90.333 100.434,92.670 102.775,92.840 102.604 C 92.921 102.523,92.391 101.873,91.661 101.161 C 90.931 100.448,90.333 99.967,90.333 100.093 M227.170 101.005 C 227.285 101.192,227.503 101.268,227.655 101.174 C 227.806 101.080,228.016 101.228,228.121 101.502 C 228.226 101.776,228.608 102.000,228.970 102.000 C 229.331 102.000,229.720 102.150,229.833 102.333 C 229.947 102.517,230.210 102.667,230.420 102.667 C 230.956 102.667,230.411 102.198,228.907 101.365 C 227.546 100.611,226.835 100.464,227.170 101.005 M298.337 103.175 C 298.656 104.016,300.000 105.670,300.000 105.222 C 300.000 104.953,298.305 102.333,298.131 102.333 C 298.068 102.333,298.161 102.712,298.337 103.175 M54.167 103.000 C 54.280 103.183,54.647 103.333,54.982 103.333 C 57.504 103.333,57.630 104.923,55.310 107.462 L 53.667 109.260 53.667 117.610 C 53.667 122.203,53.793 126.039,53.947 126.134 C 54.102 126.230,54.330 129.201,54.454 132.737 C 54.578 136.273,54.775 141.916,54.892 145.276 C 55.165 153.119,55.159 153.110,60.391 153.460 C 62.284 153.586,65.558 153.846,67.667 154.037 C 76.882 154.871,77.594 154.822,79.039 153.252 C 80.763 151.380,84.298 153.503,83.219 155.763 C 82.249 157.795,80.946 157.963,78.828 156.329 C 77.199 155.073,76.878 154.949,75.755 155.146 C 75.065 155.267,72.550 155.510,70.167 155.686 C 61.603 156.319,61.426 156.345,60.777 157.062 C 60.190 157.711,60.165 160.417,60.132 228.785 C 60.114 267.862,59.994 300.301,59.866 300.872 C 59.510 302.461,51.317 310.223,50.502 309.742 C 50.276 309.609,48.270 307.761,46.045 305.635 L 42.000 301.770 41.976 230.135 C 41.948 147.545,42.400 156.669,38.308 156.241 C 36.947 156.098,34.033 155.900,31.833 155.799 C 29.633 155.698,27.691 155.477,27.517 155.308 C 26.825 154.635,24.481 154.966,23.646 155.855 C 21.331 158.320,18.667 157.797,18.667 154.877 C 18.667 152.383,21.078 151.763,23.321 153.680 C 24.528 154.712,30.289 155.213,30.833 154.333 C 30.947 154.150,31.743 154.003,32.603 154.006 C 33.463 154.009,36.551 153.826,39.464 153.599 C 46.460 153.054,46.503 153.019,46.818 147.591 C 47.429 137.052,47.750 129.419,47.880 122.338 C 47.960 117.971,48.166 114.367,48.345 114.188 C 49.539 112.995,48.482 109.362,46.346 107.314 C 44.012 105.077,44.161 103.333,46.685 103.333 C 47.020 103.333,47.387 103.183,47.500 103.000 C 47.614 102.816,49.108 102.667,50.833 102.667 C 52.559 102.667,54.053 102.816,54.167 103.000 M93.667 103.456 C 93.667 103.588,94.042 104.100,94.500 104.594 C 94.958 105.089,95.333 105.333,95.333 105.138 C 95.333 104.943,94.958 104.431,94.500 104.000 C 94.042 103.569,93.667 103.325,93.667 103.456 M237.000 106.000 C 237.952 106.744,238.210 106.802,238.500 106.333 C 238.613 106.150,238.397 106.000,238.020 106.000 C 237.642 106.000,237.333 105.850,237.333 105.667 C 237.333 105.483,237.071 105.337,236.750 105.341 C 236.277 105.347,236.325 105.472,237.000 106.000 M144.396 106.351 C 143.256 106.809,142.153 108.028,142.917 107.986 C 143.054 107.979,143.686 107.529,144.321 106.986 C 145.564 105.924,145.569 105.881,144.396 106.351 M238.667 106.784 C 238.667 106.849,239.733 107.611,241.037 108.478 C 242.340 109.345,243.344 109.865,243.267 109.634 C 243.190 109.403,242.844 109.054,242.498 108.857 C 242.152 108.661,241.496 108.171,241.040 107.768 C 240.585 107.365,240.089 107.111,239.939 107.204 C 239.789 107.297,239.667 107.214,239.667 107.020 C 239.667 106.826,239.442 106.667,239.167 106.667 C 238.892 106.667,238.667 106.720,238.667 106.784 M100.176 108.638 C 101.078 109.514,103.315 110.717,103.653 110.508 C 103.806 110.414,104.022 110.577,104.135 110.870 C 104.247 111.163,104.550 111.321,104.809 111.222 C 105.067 111.123,105.362 111.261,105.465 111.529 C 105.583 111.836,105.952 111.961,106.467 111.868 C 106.979 111.775,107.351 111.899,107.467 112.201 C 107.585 112.508,107.956 112.627,108.493 112.530 C 108.955 112.446,109.333 112.518,109.333 112.689 C 109.333 112.860,109.502 113.000,109.707 113.000 C 109.966 113.000,109.953 112.845,109.667 112.500 C 109.438 112.225,108.904 112.000,108.479 112.000 C 108.054 112.000,107.613 111.850,107.500 111.667 C 107.387 111.483,106.958 111.333,106.547 111.333 C 106.136 111.333,105.620 111.153,105.400 110.933 C 105.180 110.713,105.000 110.662,105.000 110.818 C 105.000 110.975,104.684 110.818,104.298 110.468 C 103.912 110.119,103.575 109.885,103.548 109.947 C 103.437 110.209,101.466 109.131,101.064 108.588 C 100.825 108.265,100.379 108.000,100.074 108.000 C 99.591 108.000,99.605 108.084,100.176 108.638 M140.592 108.800 C 139.039 109.723,138.758 110.000,139.374 110.000 C 139.640 110.000,140.378 109.556,141.013 109.014 C 142.376 107.848,142.278 107.799,140.592 108.800 M244.328 110.651 C 244.784 111.001,245.214 111.230,245.285 111.160 C 245.503 110.941,244.405 110.000,243.940 110.007 C 243.698 110.011,243.873 110.301,244.328 110.651 M134.161 111.796 C 133.813 112.051,133.359 112.194,133.152 112.115 C 132.946 112.036,132.414 112.272,131.972 112.641 C 131.529 113.010,131.345 113.316,131.564 113.322 C 131.782 113.328,132.053 113.183,132.167 113.000 C 132.280 112.817,132.730 112.667,133.167 112.667 C 133.603 112.667,134.053 112.517,134.167 112.333 C 134.280 112.150,134.655 112.000,135.000 112.000 C 135.345 112.000,135.720 111.850,135.833 111.667 C 136.142 111.168,134.888 111.265,134.161 111.796 M303.879 111.833 C 303.985 112.108,304.181 112.333,304.315 112.333 C 304.450 112.333,304.731 112.708,304.939 113.167 C 305.148 113.625,305.474 114.000,305.664 114.000 C 305.854 114.000,305.612 113.400,305.127 112.667 C 304.260 111.357,303.502 110.851,303.879 111.833 M247.355 112.860 C 247.795 113.390,248.333 113.488,248.333 113.039 C 248.333 112.877,248.025 112.664,247.648 112.565 C 247.085 112.418,247.032 112.471,247.355 112.860 M111.966 113.447 C 112.270 113.821,112.850 114.003,113.633 113.968 C 114.293 113.939,115.098 114.026,115.420 114.162 C 115.854 114.343,115.959 114.281,115.822 113.923 C 115.697 113.599,115.073 113.418,113.940 113.378 C 113.008 113.345,112.077 113.218,111.872 113.095 C 111.668 112.972,111.710 113.131,111.966 113.447 M125.204 113.812 C 124.675 114.046,124.375 114.317,124.538 114.415 C 124.931 114.650,128.000 113.920,128.000 113.591 C 128.000 113.199,126.287 113.334,125.204 113.812 M254.406 119.235 C 256.368 121.198,258.060 122.718,258.165 122.613 C 258.420 122.358,251.745 115.667,251.236 115.667 C 251.017 115.667,252.443 117.272,254.406 119.235 M307.259 117.372 C 307.648 117.986,308.114 118.538,308.295 118.598 C 308.850 118.783,307.897 117.096,307.200 116.661 C 306.590 116.280,306.594 116.321,307.259 117.372 M311.333 125.267 C 311.333 125.597,311.513 126.047,311.733 126.267 C 312.445 126.978,312.628 126.692,312.117 125.667 C 311.545 124.520,311.333 124.412,311.333 125.267 M260.414 125.899 C 260.909 126.393,261.414 126.697,261.537 126.574 C 261.781 126.330,260.369 125.029,259.841 125.011 C 259.662 125.005,259.920 125.405,260.414 125.899 M261.928 127.184 C 261.656 127.455,262.989 129.333,263.454 129.333 C 263.635 129.333,263.476 128.996,263.101 128.583 C 262.725 128.171,262.358 127.636,262.285 127.396 C 262.212 127.155,262.051 127.060,261.928 127.184 M314.467 131.874 C 314.745 132.447,314.867 133.034,314.737 133.178 C 314.607 133.322,314.688 133.332,314.917 133.200 C 315.478 132.877,315.436 132.644,314.639 131.667 L 313.960 130.833 314.467 131.874 M265.000 132.167 C 265.000 132.258,265.300 132.633,265.667 133.000 C 266.415 133.749,266.548 133.477,265.869 132.583 C 265.446 132.026,265.000 131.812,265.000 132.167 M266.506 133.991 C 266.374 134.204,266.500 134.555,266.785 134.772 C 267.070 134.989,267.478 135.617,267.691 136.167 C 267.905 136.717,268.141 137.003,268.217 136.802 C 268.430 136.237,266.786 133.537,266.506 133.991 M268.894 138.546 C 269.211 139.029,269.528 139.249,269.600 139.034 C 269.746 138.596,269.079 137.667,268.618 137.667 C 268.453 137.667,268.577 138.062,268.894 138.546 M317.333 139.294 C 317.333 139.661,317.483 140.053,317.667 140.167 C 317.850 140.280,318.000 140.073,318.000 139.706 C 318.000 139.339,317.850 138.947,317.667 138.833 C 317.483 138.720,317.333 138.927,317.333 139.294 M270.333 141.127 C 270.333 141.402,270.483 141.720,270.667 141.833 C 270.850 141.947,271.000 141.814,271.000 141.539 C 271.000 141.264,270.850 140.947,270.667 140.833 C 270.483 140.720,270.333 140.852,270.333 141.127 M318.000 141.333 C 318.000 141.956,318.089 142.044,318.400 141.733 C 318.711 141.422,318.711 141.244,318.400 140.933 C 318.089 140.622,318.000 140.711,318.000 141.333 M271.000 142.449 C 271.000 142.837,272.101 144.677,272.246 144.531 C 272.495 144.283,271.649 142.333,271.293 142.333 C 271.132 142.333,271.000 142.385,271.000 142.449 M272.333 145.075 C 272.333 145.411,273.392 147.331,273.674 147.505 C 274.145 147.796,273.337 145.751,272.807 145.312 C 272.547 145.095,272.333 144.989,272.333 145.075 M320.000 148.000 C 320.000 148.830,320.132 149.291,320.333 149.167 C 320.521 149.051,320.667 149.316,320.667 149.773 C 320.667 150.220,320.892 150.772,321.167 151.000 C 321.512 151.287,321.667 151.299,321.667 151.041 C 321.667 150.835,321.527 150.667,321.355 150.667 C 321.184 150.667,321.110 150.301,321.191 149.855 C 321.272 149.408,321.187 148.949,321.003 148.835 C 320.818 148.721,320.667 148.270,320.667 147.833 C 320.667 147.397,320.517 146.947,320.333 146.833 C 320.132 146.709,320.000 147.170,320.000 148.000 M274.227 149.354 C 274.507 149.916,274.821 150.290,274.924 150.187 C 275.155 149.956,274.319 148.333,273.969 148.333 C 273.831 148.333,273.947 148.793,274.227 149.354 M275.789 153.083 C 275.824 153.313,275.996 153.725,276.171 154.000 C 276.346 154.275,276.492 154.600,276.495 154.722 C 276.506 155.221,277.000 155.403,277.000 154.909 C 277.000 154.614,276.850 154.280,276.667 154.167 C 276.483 154.053,276.333 153.670,276.333 153.314 C 276.333 152.958,276.197 152.667,276.029 152.667 C 275.862 152.667,275.754 152.854,275.789 153.083 M321.917 153.826 C 322.038 154.460,322.189 154.611,322.446 154.354 C 322.702 154.098,322.654 153.844,322.276 153.466 C 321.793 152.984,321.762 153.015,321.917 153.826 M322.564 156.131 C 322.756 156.478,322.840 157.041,322.750 157.383 C 322.519 158.267,323.337 160.130,323.767 159.699 C 323.995 159.471,323.973 159.202,323.698 158.871 C 323.473 158.601,323.277 157.919,323.261 157.355 C 323.245 156.792,323.003 156.144,322.724 155.915 C 322.287 155.558,322.264 155.589,322.564 156.131 M277.000 156.814 C 277.000 157.078,277.150 157.387,277.333 157.500 C 277.517 157.613,277.667 157.397,277.667 157.020 C 277.667 156.642,277.517 156.333,277.333 156.333 C 277.150 156.333,277.000 156.549,277.000 156.814 M323.543 161.509 C 323.426 161.812,323.480 161.948,323.670 161.831 C 323.856 161.717,324.000 162.010,324.000 162.500 C 324.000 162.997,324.144 163.284,324.333 163.167 C 324.817 162.868,324.742 161.811,324.206 161.366 C 323.849 161.070,323.699 161.102,323.543 161.509 M279.798 165.824 C 279.918 166.646,280.333 166.825,280.333 166.056 C 280.333 165.658,280.197 165.333,280.029 165.333 C 279.862 165.333,279.758 165.554,279.798 165.824 M324.741 167.196 C 324.664 168.118,325.473 169.583,325.782 169.082 C 326.031 168.681,325.663 167.333,325.305 167.333 C 325.149 167.333,325.107 167.108,325.213 166.833 C 325.318 166.558,325.271 166.333,325.108 166.333 C 324.945 166.333,324.780 166.721,324.741 167.196 M280.391 168.522 C 280.451 169.032,280.668 169.504,280.873 169.571 C 281.109 169.648,281.186 169.380,281.083 168.842 C 280.856 167.654,280.256 167.377,280.391 168.522 M281.000 171.294 C 281.000 171.661,281.150 172.053,281.333 172.167 C 281.517 172.280,281.667 172.073,281.667 171.706 C 281.667 171.339,281.517 170.947,281.333 170.833 C 281.150 170.720,281.000 170.927,281.000 171.294 M325.333 171.667 C 325.333 172.033,325.483 172.333,325.667 172.333 C 325.850 172.333,326.000 172.588,326.000 172.900 C 326.000 173.291,326.107 173.360,326.346 173.121 C 326.581 172.885,326.584 172.493,326.354 171.888 C 325.958 170.845,325.333 170.710,325.333 171.667 M281.667 174.647 C 281.667 175.024,281.817 175.333,282.000 175.333 C 282.183 175.333,282.333 175.117,282.333 174.853 C 282.333 174.589,282.183 174.280,282.000 174.167 C 281.817 174.053,281.667 174.270,281.667 174.647 M326.815 176.696 C 326.692 176.895,326.758 177.225,326.962 177.429 C 327.235 177.701,327.333 177.605,327.333 177.067 C 327.333 176.262,327.160 176.138,326.815 176.696 M282.333 178.273 C 282.333 179.547,282.869 179.947,283.082 178.832 C 283.172 178.363,283.044 177.841,282.787 177.628 C 282.421 177.325,282.333 177.450,282.333 178.273 M326.778 179.481 C 326.885 181.157,327.333 181.352,327.333 179.722 C 327.333 178.958,327.192 178.333,327.019 178.333 C 326.846 178.333,326.738 178.850,326.778 179.481 M283.145 182.005 C 283.274 183.819,283.667 184.123,283.667 182.409 C 283.667 181.655,283.528 180.953,283.358 180.849 C 283.183 180.740,283.091 181.240,283.145 182.005 M327.371 186.333 C 327.326 187.557,327.435 188.333,327.649 188.333 C 327.842 188.333,328.000 188.567,328.000 188.853 C 328.000 189.139,328.140 189.286,328.311 189.180 C 328.599 189.002,328.565 188.268,328.134 185.417 C 327.869 183.667,327.449 184.172,327.371 186.333 M283.728 186.432 C 283.700 187.386,283.814 188.692,283.981 189.333 C 284.230 190.290,284.281 190.004,284.262 187.741 C 284.237 184.707,283.810 183.660,283.728 186.432 M284.333 193.506 L 284.333 195.325 271.750 195.417 L 259.167 195.508 272.250 195.587 C 279.446 195.631,285.304 195.554,285.267 195.417 C 285.231 195.279,285.320 194.818,285.464 194.393 C 285.801 193.401,285.483 192.129,284.836 191.881 C 284.426 191.723,284.333 192.022,284.333 193.506 M328.585 195.056 C 328.737 195.637,329.398 195.663,342.289 195.587 L 355.833 195.508 342.583 195.417 C 331.867 195.343,329.333 195.241,329.333 194.885 C 329.333 194.643,329.129 194.444,328.879 194.444 C 328.603 194.444,328.487 194.684,328.585 195.056 M256.074 196.077 C 255.409 196.879,255.286 198.144,255.808 198.833 C 256.306 199.492,256.312 199.491,256.323 198.750 C 256.329 198.338,256.483 198.000,256.667 198.000 C 256.850 198.000,257.000 197.855,257.000 197.677 C 257.000 197.500,256.775 197.441,256.500 197.546 C 255.907 197.774,255.871 197.531,256.360 196.616 C 256.783 195.827,256.587 195.459,256.074 196.077 M358.917 197.191 C 358.779 197.330,358.667 197.824,358.667 198.289 C 358.667 198.896,358.768 199.032,359.028 198.772 C 359.227 198.573,359.340 198.079,359.278 197.673 C 359.217 197.268,359.054 197.051,358.917 197.191 M357.439 200.750 C 357.121 201.346,356.855 201.938,356.847 202.067 C 356.840 202.195,356.646 202.487,356.417 202.717 C 356.188 202.946,356.000 203.287,356.000 203.474 C 356.000 203.804,357.159 202.337,357.165 202.000 C 357.166 201.908,357.515 201.346,357.940 200.750 C 358.365 200.154,358.556 199.667,358.365 199.667 C 358.173 199.667,357.757 200.154,357.439 200.750 M258.977 204.635 C 259.356 205.167,259.670 205.730,259.674 205.885 C 259.687 206.368,260.943 207.834,261.160 207.618 C 261.273 207.505,261.133 207.181,260.849 206.897 C 260.565 206.613,260.333 206.206,260.333 205.992 C 260.333 205.445,259.024 203.667,258.621 203.667 C 258.438 203.667,258.598 204.102,258.977 204.635 M354.699 205.520 C 353.885 206.900,354.311 206.769,355.341 205.323 C 355.728 204.779,355.900 204.333,355.722 204.333 C 355.545 204.333,355.084 204.867,354.699 205.520 M261.912 209.730 C 262.761 211.017,262.842 211.065,262.948 210.338 C 263.024 209.813,262.801 209.349,262.281 208.949 C 261.035 207.991,260.922 208.230,261.912 209.730 M352.000 210.167 C 352.000 210.442,351.850 210.667,351.667 210.667 C 351.483 210.667,351.337 210.929,351.341 211.250 C 351.347 211.723,351.472 211.675,352.000 211.000 C 352.729 210.069,352.829 209.667,352.333 209.667 C 352.150 209.667,352.000 209.892,352.000 210.167 M350.333 212.833 C 350.105 213.108,350.035 213.333,350.178 213.333 C 350.320 213.333,350.151 213.671,349.802 214.083 L 349.167 214.833 349.919 214.196 C 350.332 213.846,350.597 213.486,350.507 213.396 C 350.417 213.306,350.604 213.035,350.922 212.794 C 351.240 212.552,351.331 212.350,351.124 212.344 C 350.917 212.338,350.562 212.558,350.333 212.833 M264.341 213.917 C 264.359 214.531,265.652 215.838,265.659 215.250 C 265.663 214.929,265.517 214.667,265.333 214.667 C 265.150 214.667,265.000 214.442,265.000 214.167 C 265.000 213.892,264.850 213.667,264.667 213.667 C 264.483 213.667,264.337 213.779,264.341 213.917 M266.344 217.250 C 266.350 217.387,266.575 217.791,266.844 218.147 C 267.343 218.807,267.496 218.478,267.131 217.527 C 266.927 216.997,266.324 216.784,266.344 217.250 M347.366 218.187 C 346.551 219.567,346.977 219.436,348.007 217.990 C 348.395 217.445,348.567 217.000,348.389 217.000 C 348.211 217.000,347.751 217.534,347.366 218.187 M269.085 222.089 C 269.588 222.748,270.167 223.711,270.373 224.227 C 270.578 224.744,270.815 224.981,270.899 224.755 C 270.983 224.528,270.778 223.928,270.443 223.420 C 270.108 222.912,269.673 222.207,269.476 221.852 C 269.280 221.497,268.906 221.135,268.645 221.048 C 268.380 220.960,268.575 221.421,269.085 222.089 M345.093 222.083 C 344.713 222.574,344.295 223.667,344.488 223.667 C 344.561 223.667,344.942 223.217,345.333 222.667 C 346.004 221.724,345.784 221.190,345.093 222.083 M343.196 225.281 C 342.878 225.894,342.683 226.461,342.764 226.541 C 343.009 226.787,344.051 224.986,343.908 224.563 C 343.834 224.345,343.514 224.668,343.196 225.281 M273.611 229.922 C 274.008 230.480,274.337 231.063,274.341 231.218 C 274.357 231.824,275.652 233.192,275.659 232.611 C 275.663 232.306,275.554 232.006,275.417 231.944 C 275.279 231.883,274.839 231.237,274.439 230.507 C 274.038 229.778,273.526 229.120,273.300 229.044 C 273.074 228.969,273.214 229.364,273.611 229.922 M340.782 229.536 C 340.654 229.883,340.463 230.242,340.358 230.333 C 340.121 230.540,338.667 233.329,338.667 233.576 C 338.667 233.676,338.967 233.375,339.333 232.909 C 339.700 232.443,340.000 231.898,340.000 231.697 C 340.000 231.497,340.113 231.333,340.252 231.333 C 340.598 231.333,341.453 229.342,341.211 229.100 C 341.104 228.992,340.911 229.189,340.782 229.536 M276.204 234.510 C 276.508 234.974,276.824 235.287,276.905 235.206 C 277.136 234.975,276.350 233.667,275.981 233.667 C 275.799 233.667,275.900 234.046,276.204 234.510 M337.417 235.201 C 337.004 235.672,336.667 236.314,336.667 236.628 C 336.667 236.943,336.479 237.414,336.250 237.674 C 336.021 237.935,336.171 237.867,336.583 237.523 C 336.996 237.178,337.333 236.756,337.333 236.583 C 337.333 236.411,337.644 235.834,338.023 235.301 C 338.874 234.106,338.440 234.034,337.417 235.201 M277.000 235.829 C 277.000 236.041,278.708 238.667,278.846 238.667 C 279.207 238.667,278.083 236.223,277.604 235.966 C 277.272 235.789,277.000 235.727,277.000 235.829 M334.884 239.610 C 334.580 239.946,334.432 240.321,334.555 240.444 C 334.677 240.566,334.603 240.667,334.389 240.667 C 334.175 240.667,334.000 240.826,334.000 241.020 C 334.000 241.533,334.534 241.123,335.341 239.990 C 336.110 238.909,335.773 238.628,334.884 239.610 M280.825 242.250 C 281.342 243.316,281.667 243.620,281.667 243.037 C 281.667 242.874,281.359 242.386,280.984 241.954 L 280.300 241.167 280.825 242.250 M333.281 242.540 C 333.056 243.068,332.652 243.762,332.384 244.083 C 332.116 244.404,332.018 244.667,332.167 244.667 C 332.315 244.667,332.151 245.004,331.802 245.417 L 331.167 246.167 331.909 245.539 C 332.317 245.193,332.571 244.781,332.472 244.622 C 332.374 244.463,332.446 244.333,332.631 244.333 C 333.044 244.333,334.166 242.055,333.889 241.778 C 333.781 241.670,333.507 242.012,333.281 242.540 M282.333 244.823 C 282.333 245.065,283.692 247.461,284.031 247.817 C 284.525 248.335,284.379 247.779,283.600 246.176 C 282.987 244.913,282.333 244.215,282.333 244.823 M329.395 249.365 C 328.489 251.062,328.469 251.341,329.333 250.242 C 329.700 249.776,330.000 249.231,330.000 249.031 C 330.000 248.831,330.150 248.667,330.333 248.667 C 330.517 248.667,330.667 248.517,330.667 248.333 C 330.667 247.601,330.085 248.073,329.395 249.365 M284.341 248.556 C 284.358 249.187,285.652 250.523,285.659 249.917 C 285.663 249.596,285.517 249.333,285.333 249.333 C 285.150 249.333,285.037 249.165,285.083 248.958 C 285.129 248.752,284.979 248.515,284.750 248.431 C 284.521 248.347,284.337 248.403,284.341 248.556 M327.366 252.853 C 326.551 254.233,326.977 254.103,328.007 252.657 C 328.395 252.112,328.567 251.667,328.389 251.667 C 328.211 251.667,327.751 252.201,327.366 252.853 M287.145 253.333 C 287.631 254.158,288.115 255.096,288.220 255.417 C 288.386 255.924,289.000 256.265,289.000 255.849 C 289.000 255.406,288.184 254.000,287.927 254.000 C 287.762 254.000,287.707 253.872,287.803 253.715 C 287.900 253.558,287.593 253.071,287.120 252.632 L 286.261 251.833 287.145 253.333 M289.007 256.447 C 289.003 256.602,289.300 257.110,289.667 257.576 C 290.033 258.042,290.333 258.610,290.333 258.837 C 290.333 259.065,290.557 259.437,290.830 259.664 C 291.103 259.890,291.229 260.232,291.111 260.423 C 290.991 260.617,291.057 260.671,291.261 260.545 C 291.509 260.391,291.414 259.923,290.961 259.076 C 290.176 257.607,289.018 256.049,289.007 256.447 M325.000 256.833 C 324.772 257.108,324.702 257.333,324.844 257.333 C 324.987 257.333,324.832 257.633,324.500 258.000 C 324.168 258.367,324.054 258.667,324.246 258.667 C 324.578 258.667,324.891 258.161,324.935 257.553 C 324.946 257.399,325.228 257.066,325.561 256.814 C 325.894 256.561,325.998 256.350,325.791 256.344 C 325.584 256.338,325.228 256.558,325.000 256.833 M291.667 261.197 C 291.667 261.306,291.987 261.794,292.379 262.281 C 292.770 262.768,292.995 262.942,292.879 262.667 C 292.762 262.392,292.575 261.904,292.461 261.583 C 292.271 261.043,291.667 260.750,291.667 261.197 M321.762 262.543 C 321.367 263.395,321.372 263.401,322.012 262.822 C 322.676 262.221,322.872 261.665,322.417 261.669 C 322.279 261.671,321.985 262.064,321.762 262.543 M293.537 264.510 C 293.842 264.974,294.157 265.287,294.239 265.206 C 294.470 264.975,293.683 263.667,293.314 263.667 C 293.133 263.667,293.233 264.046,293.537 264.510 M318.171 268.583 C 317.442 270.057,317.271 270.744,317.701 270.479 C 317.872 270.373,317.925 270.148,317.819 269.977 C 317.714 269.806,317.775 269.667,317.956 269.667 C 318.222 269.667,319.333 267.878,319.333 267.449 C 319.333 266.923,318.675 267.566,318.171 268.583 M296.081 269.070 C 296.571 269.932,297.333 270.806,297.333 270.507 C 297.333 270.023,296.288 268.333,295.989 268.333 C 295.802 268.333,295.841 268.650,296.081 269.070 M298.204 272.510 C 298.508 272.974,298.822 273.289,298.902 273.210 C 299.099 273.012,298.237 271.667,297.912 271.667 C 297.769 271.667,297.900 272.046,298.204 272.510 M299.000 273.980 C 299.000 274.153,299.165 274.396,299.367 274.521 C 299.569 274.646,299.966 275.292,300.248 275.957 C 300.545 276.657,300.828 276.977,300.920 276.717 C 301.006 276.470,300.760 275.839,300.372 275.314 C 299.984 274.790,299.667 274.204,299.667 274.013 C 299.667 273.823,299.517 273.667,299.333 273.667 C 299.150 273.667,299.000 273.808,299.000 273.980 M314.792 274.563 C 314.914 274.782,314.696 275.257,314.307 275.620 C 313.104 276.741,312.278 278.667,313.000 278.667 C 313.183 278.667,313.333 278.506,313.333 278.310 C 313.333 278.114,313.800 277.275,314.370 276.447 C 315.192 275.252,315.320 274.860,314.988 274.553 C 314.669 274.259,314.622 274.262,314.792 274.563 M311.831 279.669 C 311.499 280.037,311.327 280.438,311.450 280.561 C 311.671 280.782,312.636 279.734,312.656 279.250 C 312.673 278.854,312.480 278.952,311.831 279.669 M303.611 281.922 C 304.008 282.480,304.333 283.077,304.333 283.250 C 304.333 283.422,304.650 283.849,305.036 284.198 C 305.610 284.717,305.555 284.500,304.732 283.010 C 304.179 282.007,303.537 281.124,303.307 281.047 C 303.077 280.970,303.214 281.364,303.611 281.922 M309.568 283.844 C 309.238 284.296,309.109 284.667,309.279 284.667 C 309.450 284.667,309.836 284.292,310.136 283.833 C 310.842 282.756,310.353 282.765,309.568 283.844 " stroke="none" fill="#242424" fill-rule="evenodd"></path><path id="path1" d="M117.010 34.937 C 116.007 34.993,115.026 35.173,114.830 35.336 C 114.633 35.499,113.804 35.703,112.986 35.789 C 110.858 36.013,109.347 36.374,109.140 36.710 C 108.856 37.169,108.267 37.047,108.529 36.583 C 108.717 36.250,108.675 36.250,108.316 36.583 C 108.069 36.813,107.613 37.000,107.302 37.000 C 106.992 37.000,106.657 37.211,106.558 37.469 C 106.459 37.726,105.920 38.038,105.360 38.161 C 104.799 38.284,104.255 38.523,104.151 38.692 C 104.046 38.862,103.670 39.000,103.314 39.000 C 102.958 39.000,102.667 39.150,102.667 39.333 C 102.667 39.517,102.299 39.667,101.850 39.667 C 101.401 39.667,100.880 39.929,100.693 40.250 C 100.506 40.571,100.349 40.698,100.343 40.531 C 100.338 40.365,99.964 40.659,99.513 41.184 C 99.062 41.709,98.588 42.033,98.460 41.904 C 98.332 41.776,98.015 41.972,97.757 42.341 C 97.499 42.710,97.148 42.925,96.977 42.819 C 96.806 42.714,96.667 42.790,96.667 42.989 C 96.667 43.187,96.292 43.492,95.833 43.667 C 95.375 43.841,95.000 44.177,95.000 44.413 C 95.000 44.649,94.662 44.990,94.250 45.171 C 93.837 45.352,93.363 45.813,93.195 46.195 C 93.027 46.577,92.589 47.027,92.222 47.195 C 91.855 47.363,91.392 47.778,91.194 48.118 C 90.996 48.458,90.421 49.186,89.917 49.736 C 89.412 50.287,89.000 50.873,89.000 51.038 C 89.000 51.204,88.634 51.750,88.186 52.253 C 87.738 52.755,87.401 53.273,87.436 53.402 C 87.471 53.532,87.200 53.881,86.833 54.177 C 86.467 54.474,86.392 54.604,86.667 54.467 C 87.038 54.283,87.016 54.391,86.583 54.886 C 86.263 55.252,86.000 55.705,86.000 55.891 C 86.000 56.077,85.644 56.644,85.208 57.151 C 84.773 57.658,84.413 58.394,84.408 58.786 C 84.396 59.789,83.750 61.333,83.342 61.333 C 83.154 61.333,83.000 61.908,83.000 62.611 C 83.000 63.314,82.887 64.001,82.750 64.139 C 82.476 64.413,82.437 64.591,82.375 65.853 C 82.352 66.330,82.186 66.615,82.000 66.500 C 81.784 66.366,81.709 67.250,81.787 69.002 C 81.876 70.977,81.786 71.833,81.454 72.165 C 80.830 72.789,80.849 76.230,81.481 76.861 C 81.844 77.225,81.915 77.868,81.771 79.502 C 81.652 80.858,81.718 81.826,81.947 82.103 C 82.149 82.346,82.351 83.033,82.396 83.631 C 82.442 84.228,82.596 84.790,82.740 84.878 C 82.883 84.967,83.000 85.480,83.000 86.020 C 83.000 86.559,83.150 87.000,83.333 87.000 C 83.517 87.000,83.667 87.450,83.667 88.000 C 83.667 88.550,83.817 89.000,84.000 89.000 C 84.183 89.000,84.333 89.300,84.333 89.667 C 84.333 90.033,84.483 90.333,84.667 90.333 C 84.850 90.333,85.000 90.647,85.000 91.031 C 85.000 91.414,85.300 92.110,85.667 92.576 C 86.033 93.042,86.333 93.628,86.333 93.878 C 86.333 94.129,86.446 94.335,86.583 94.336 C 86.721 94.337,87.007 94.713,87.219 95.170 C 87.470 95.710,87.481 95.924,87.251 95.782 C 87.043 95.654,86.995 95.722,87.135 95.948 C 87.266 96.160,87.573 96.333,87.817 96.333 C 88.349 96.333,88.758 97.249,88.450 97.748 C 88.319 97.960,88.389 98.005,88.622 97.861 C 88.872 97.706,89.194 98.050,89.511 98.809 C 89.785 99.464,90.166 100.000,90.357 100.000 C 90.549 100.000,90.598 100.188,90.466 100.417 C 90.334 100.646,90.349 100.722,90.499 100.586 C 90.850 100.268,91.720 100.978,91.472 101.379 C 91.368 101.546,91.482 101.642,91.725 101.592 C 91.968 101.541,92.129 101.688,92.083 101.917 C 92.037 102.146,92.181 102.296,92.402 102.250 C 92.622 102.204,92.810 102.342,92.818 102.556 C 92.838 103.054,93.280 103.496,93.778 103.515 C 93.992 103.523,94.125 103.722,94.075 103.957 C 94.025 104.191,94.131 104.292,94.310 104.181 C 94.490 104.070,94.892 104.367,95.203 104.842 C 95.514 105.317,96.346 105.999,97.051 106.359 C 97.756 106.719,98.333 107.143,98.333 107.302 C 98.333 107.460,98.727 107.848,99.208 108.163 C 99.689 108.478,99.980 108.570,99.855 108.368 C 99.726 108.160,99.852 108.000,100.144 108.000 C 100.428 108.000,100.848 108.300,101.077 108.667 C 101.306 109.033,101.662 109.333,101.869 109.333 C 102.075 109.333,102.669 109.668,103.189 110.077 C 103.709 110.486,104.005 110.599,103.847 110.327 C 103.689 110.056,103.983 110.208,104.500 110.667 C 105.017 111.125,105.320 111.275,105.172 111.000 C 104.953 110.594,104.986 110.578,105.351 110.917 C 105.598 111.146,106.136 111.333,106.547 111.333 C 106.958 111.333,107.387 111.483,107.500 111.667 C 107.613 111.850,108.049 112.000,108.468 112.000 C 108.887 112.000,109.508 112.307,109.847 112.682 C 110.187 113.057,110.772 113.340,111.149 113.312 C 113.213 113.154,114.695 113.351,114.456 113.750 C 114.291 114.024,114.403 114.007,114.780 113.701 C 115.280 113.294,115.414 113.316,115.816 113.867 C 116.220 114.420,116.816 114.514,120.556 114.612 C 122.908 114.673,124.718 114.608,124.578 114.467 C 124.257 114.146,126.139 113.333,127.205 113.333 C 127.642 113.333,128.000 113.483,128.000 113.667 C 128.000 113.850,128.159 114.000,128.353 114.000 C 128.547 114.000,128.629 113.875,128.534 113.722 C 128.440 113.569,128.769 113.428,129.265 113.408 C 130.592 113.355,131.066 113.208,132.094 112.525 C 132.604 112.187,133.111 112.000,133.221 112.110 C 133.331 112.220,133.735 112.090,134.118 111.822 C 134.501 111.553,135.127 111.333,135.508 111.333 C 136.326 111.333,137.994 110.608,137.997 110.250 C 137.999 110.112,138.159 110.000,138.353 110.000 C 138.547 110.000,138.609 110.188,138.491 110.417 C 138.372 110.646,138.551 110.521,138.888 110.139 C 139.630 109.298,142.130 107.829,141.820 108.416 C 141.699 108.646,142.034 108.361,142.565 107.783 C 143.096 107.205,144.080 106.503,144.753 106.222 C 145.425 105.941,147.174 104.463,148.639 102.939 C 152.214 99.219,152.487 98.904,152.494 98.482 C 152.500 98.105,153.708 96.405,154.785 95.257 C 155.124 94.894,155.437 94.363,155.479 94.076 C 155.559 93.528,156.667 93.173,156.667 93.696 C 156.667 93.863,157.276 94.000,158.020 94.000 C 158.837 94.000,159.291 93.868,159.167 93.667 C 158.953 93.320,159.172 93.279,161.667 93.197 C 162.492 93.170,163.341 93.039,163.555 92.905 C 163.768 92.772,164.006 92.851,164.084 93.081 C 164.193 93.406,164.332 93.411,164.705 93.104 C 165.267 92.640,187.296 92.398,188.024 92.848 C 188.264 92.996,188.507 92.978,188.564 92.807 C 188.700 92.399,191.705 92.634,192.275 93.098 C 192.593 93.356,192.782 93.352,192.948 93.084 C 193.247 92.600,196.281 92.716,196.474 93.219 C 196.689 93.780,198.659 94.141,199.100 93.700 C 199.675 93.125,202.000 93.231,202.000 93.833 C 202.000 94.373,201.981 94.368,204.588 94.503 C 205.554 94.552,206.557 94.771,206.818 94.988 C 207.080 95.205,207.565 95.354,207.897 95.319 C 209.155 95.188,210.032 95.346,209.833 95.667 C 209.720 95.850,209.777 96.000,209.961 96.000 C 210.144 96.000,210.386 95.852,210.498 95.670 C 210.621 95.470,211.049 95.568,211.586 95.920 C 212.477 96.505,214.096 96.758,213.791 96.265 C 213.701 96.119,213.952 96.000,214.349 96.000 C 214.846 96.000,215.013 96.152,214.884 96.488 C 214.748 96.842,215.035 97.036,215.932 97.198 C 216.611 97.321,217.315 97.507,217.496 97.612 C 217.676 97.717,218.483 97.842,219.288 97.889 C 220.318 97.948,220.893 98.175,221.228 98.653 C 221.490 99.027,222.062 99.333,222.499 99.333 C 222.936 99.333,223.380 99.473,223.486 99.644 C 223.592 99.815,224.129 99.942,224.680 99.927 C 225.302 99.909,226.016 100.202,226.561 100.699 C 227.045 101.140,227.333 101.313,227.201 101.083 C 226.851 100.476,227.481 100.573,228.823 101.333 C 229.470 101.700,230.530 102.300,231.177 102.667 C 231.824 103.033,232.562 103.333,232.816 103.333 C 233.070 103.333,233.328 103.446,233.389 103.583 C 233.549 103.943,236.310 105.333,236.865 105.333 C 237.123 105.333,237.333 105.483,237.333 105.667 C 237.333 105.850,237.642 106.000,238.020 106.000 C 238.397 106.000,238.613 106.150,238.500 106.333 C 238.387 106.517,238.603 106.667,238.980 106.667 C 239.358 106.667,239.667 106.826,239.667 107.020 C 239.667 107.214,239.789 107.297,239.939 107.204 C 240.089 107.111,240.608 107.403,241.091 107.851 C 241.575 108.300,242.126 108.667,242.316 108.667 C 242.506 108.667,242.848 108.967,243.077 109.333 C 243.306 109.700,243.682 110.000,243.913 110.000 C 244.143 110.000,244.895 110.531,245.583 111.181 C 246.270 111.830,247.171 112.446,247.583 112.550 C 247.996 112.654,248.336 112.910,248.339 113.119 C 248.346 113.560,250.790 115.667,251.295 115.667 C 251.754 115.667,258.337 122.306,258.242 122.673 C 258.150 123.028,260.962 126.000,261.390 126.000 C 261.558 126.000,261.652 126.263,261.598 126.583 C 261.543 126.909,261.684 127.130,261.917 127.083 C 262.286 127.009,262.500 127.660,262.365 128.441 C 262.338 128.593,262.454 128.632,262.621 128.528 C 262.902 128.355,263.937 129.292,263.750 129.551 C 263.510 129.883,263.775 130.368,264.821 131.510 C 265.456 132.203,265.883 132.920,265.770 133.103 C 265.653 133.291,265.731 133.333,265.948 133.198 C 266.179 133.056,266.333 133.177,266.333 133.500 C 266.333 133.797,266.468 133.956,266.632 133.855 C 267.020 133.615,267.402 134.611,267.114 135.113 C 266.993 135.326,267.015 135.390,267.164 135.255 C 267.525 134.928,268.309 135.997,268.323 136.836 C 268.329 137.205,268.633 137.694,269.000 137.923 C 269.367 138.152,269.667 138.689,269.667 139.118 C 269.667 139.546,269.967 140.168,270.333 140.500 C 270.700 140.832,271.000 141.316,271.000 141.575 C 271.000 141.835,271.225 142.272,271.499 142.547 C 271.774 142.822,272.099 143.449,272.221 143.940 C 272.343 144.431,272.726 145.217,273.071 145.687 C 273.416 146.156,273.724 146.906,273.755 147.353 C 273.787 147.801,274.080 148.457,274.406 148.813 C 274.733 149.168,275.000 149.806,275.000 150.230 C 275.000 150.653,275.150 151.000,275.333 151.000 C 275.517 151.000,275.667 151.375,275.667 151.833 C 275.667 152.292,275.817 152.667,276.000 152.667 C 276.183 152.667,276.333 152.958,276.333 153.314 C 276.333 153.670,276.483 154.053,276.667 154.167 C 276.850 154.280,277.000 154.598,277.000 154.873 C 277.000 155.148,276.839 155.273,276.642 155.151 C 276.445 155.030,276.481 155.246,276.722 155.632 C 276.963 156.018,277.274 156.333,277.414 156.333 C 277.553 156.333,277.667 156.921,277.667 157.639 C 277.667 158.387,277.845 159.004,278.083 159.083 C 278.313 159.160,278.506 159.660,278.514 160.194 C 278.522 160.729,278.797 161.671,279.125 162.287 C 279.453 162.903,279.559 163.306,279.361 163.184 C 279.162 163.061,279.000 163.120,279.000 163.314 C 279.000 163.508,279.150 163.667,279.333 163.667 C 279.517 163.667,279.667 164.042,279.667 164.500 C 279.667 164.958,279.817 165.333,280.000 165.333 C 280.183 165.333,280.333 165.828,280.333 166.433 C 280.333 167.038,280.485 167.685,280.670 167.870 C 280.855 168.055,281.051 168.756,281.107 169.429 C 281.162 170.101,281.310 170.755,281.437 170.881 C 281.563 171.008,281.667 171.752,281.667 172.536 C 281.667 173.320,281.807 174.047,281.978 174.153 C 282.149 174.258,282.291 174.755,282.295 175.256 C 282.303 176.406,282.441 177.042,282.810 177.634 C 282.971 177.891,283.096 178.827,283.088 179.714 C 283.081 180.601,283.208 181.244,283.371 181.144 C 283.533 181.043,283.667 181.765,283.667 182.747 C 283.667 183.729,283.854 184.735,284.083 184.982 C 284.422 185.347,284.406 185.382,284.000 185.167 C 283.594 184.952,283.578 184.986,283.917 185.351 C 284.183 185.638,284.333 186.833,284.333 188.659 C 284.333 191.152,284.423 191.595,285.034 192.118 C 285.581 192.587,285.689 192.951,285.528 193.776 C 285.415 194.357,285.300 195.021,285.272 195.250 C 285.233 195.576,282.128 195.667,270.998 195.667 L 256.774 195.667 256.387 196.516 C 255.882 197.624,255.899 197.777,256.500 197.546 C 256.775 197.441,257.000 197.500,257.000 197.677 C 257.000 197.855,256.850 198.000,256.667 198.000 C 256.483 198.000,256.333 198.375,256.333 198.833 C 256.333 199.292,256.465 199.667,256.625 199.667 C 256.785 199.667,257.003 200.099,257.109 200.626 C 257.214 201.154,257.533 201.819,257.817 202.103 C 258.101 202.387,258.333 202.764,258.333 202.941 C 258.333 203.118,258.783 203.745,259.333 204.333 C 259.883 204.922,260.333 205.624,260.333 205.892 C 260.333 206.161,260.552 206.600,260.819 206.867 C 261.086 207.134,261.233 207.539,261.146 207.767 C 261.058 207.995,261.440 208.449,261.993 208.776 C 262.789 209.246,263.000 209.601,263.000 210.467 C 263.000 211.140,263.257 211.796,263.667 212.167 C 264.033 212.498,264.333 212.972,264.333 213.218 C 264.333 213.465,264.483 213.667,264.667 213.667 C 264.850 213.667,265.000 213.892,265.000 214.167 C 265.000 214.442,265.150 214.667,265.333 214.667 C 265.517 214.667,265.667 215.040,265.667 215.497 C 265.667 215.971,265.957 216.508,266.342 216.747 C 266.713 216.978,267.169 217.729,267.355 218.417 C 267.540 219.104,267.837 219.667,268.013 219.667 C 268.189 219.667,268.333 219.905,268.333 220.197 C 268.333 220.488,268.640 220.976,269.015 221.280 C 269.390 221.584,269.722 222.164,269.752 222.569 C 269.782 222.974,269.873 223.238,269.954 223.158 C 270.195 222.916,270.978 224.120,270.989 224.750 C 270.995 225.071,271.150 225.333,271.333 225.333 C 271.517 225.333,271.667 225.638,271.667 226.010 C 271.667 226.383,271.891 226.774,272.165 226.879 C 272.439 226.984,272.580 227.204,272.478 227.368 C 272.377 227.532,272.453 227.667,272.647 227.667 C 272.841 227.667,273.000 227.951,273.000 228.298 C 273.000 228.645,273.193 229.003,273.428 229.093 C 273.663 229.183,274.151 229.872,274.511 230.625 C 274.872 231.377,275.279 231.994,275.417 231.996 C 275.554 231.998,275.667 232.375,275.667 232.833 C 275.667 233.292,275.824 233.667,276.017 233.667 C 276.210 233.667,276.579 234.173,276.838 234.793 C 277.097 235.412,277.525 236.002,277.789 236.104 C 278.054 236.205,278.370 236.743,278.493 237.300 C 278.615 237.856,279.090 238.864,279.549 239.540 C 280.007 240.216,280.403 241.035,280.427 241.361 C 280.452 241.687,280.592 241.880,280.739 241.789 C 280.885 241.698,281.299 242.309,281.658 243.145 C 282.016 243.982,282.439 244.667,282.598 244.667 C 282.756 244.667,283.248 245.454,283.689 246.417 C 284.131 247.379,284.685 248.288,284.920 248.437 C 285.155 248.586,285.260 248.848,285.154 249.020 C 285.048 249.193,285.120 249.333,285.314 249.333 C 285.508 249.333,285.667 249.708,285.667 250.167 C 285.667 250.625,285.817 251.000,286.000 251.000 C 286.183 251.000,286.333 251.199,286.333 251.442 C 286.333 251.685,286.704 252.232,287.156 252.657 C 287.609 253.082,287.900 253.558,287.803 253.715 C 287.707 253.872,287.759 254.000,287.921 254.000 C 288.252 254.000,289.861 257.350,289.733 257.775 C 289.687 257.926,289.779 257.970,289.937 257.872 C 290.095 257.774,290.545 258.295,290.936 259.028 C 291.328 259.761,291.465 260.268,291.241 260.155 C 291.017 260.042,291.180 260.254,291.603 260.627 C 292.026 261.000,292.395 261.601,292.422 261.963 C 292.449 262.325,292.591 262.547,292.736 262.457 C 292.881 262.367,293.000 262.603,293.000 262.980 C 293.000 263.358,293.155 263.667,293.345 263.667 C 293.535 263.667,293.980 264.342,294.333 265.167 C 294.687 265.992,295.132 266.667,295.321 266.667 C 295.511 266.667,295.667 267.042,295.667 267.500 C 295.667 267.958,295.825 268.333,296.019 268.333 C 296.212 268.333,296.681 269.035,297.060 269.892 C 297.439 270.749,298.031 271.752,298.375 272.121 C 298.719 272.490,299.000 272.977,299.000 273.202 C 299.000 273.427,299.157 273.663,299.348 273.727 C 299.540 273.791,299.721 274.168,299.751 274.565 C 299.781 274.962,299.954 275.260,300.136 275.227 C 300.318 275.194,300.634 275.658,300.837 276.258 C 301.040 276.859,301.309 277.246,301.436 277.119 C 301.563 276.993,301.667 277.214,301.667 277.611 C 301.667 278.008,301.817 278.333,302.000 278.333 C 302.183 278.333,302.333 278.688,302.333 279.121 C 302.333 279.555,302.686 280.267,303.117 280.705 C 303.977 281.577,305.887 284.842,305.340 284.504 C 305.153 284.389,305.000 284.374,305.000 284.472 C 305.000 284.890,307.104 285.696,307.613 285.473 C 307.918 285.340,308.391 285.217,308.666 285.199 C 308.940 285.181,309.165 284.991,309.166 284.777 C 309.166 284.562,309.509 283.993,309.927 283.512 C 310.346 283.031,310.616 282.521,310.528 282.378 C 310.440 282.236,310.657 281.871,311.010 281.569 C 311.364 281.266,311.576 280.817,311.481 280.571 C 311.387 280.326,311.615 279.848,311.988 279.511 C 312.361 279.173,312.667 278.712,312.667 278.486 C 312.667 277.848,313.525 276.348,314.307 275.620 C 314.696 275.257,314.913 274.796,314.789 274.595 C 314.662 274.389,314.716 274.325,314.914 274.447 C 315.202 274.625,315.611 274.074,315.738 273.333 C 315.754 273.242,316.007 272.968,316.300 272.725 C 316.593 272.483,316.646 272.379,316.417 272.495 C 316.187 272.611,316.000 272.563,316.000 272.389 C 316.000 272.214,316.209 271.991,316.463 271.894 C 316.718 271.796,317.158 271.252,317.441 270.686 C 317.723 270.119,317.814 269.742,317.643 269.848 C 317.262 270.083,318.633 267.723,319.330 266.944 C 320.727 265.382,321.046 264.768,320.250 265.172 C 320.021 265.289,320.133 265.108,320.500 264.771 C 321.390 263.952,322.265 262.813,321.781 263.103 C 321.489 263.278,321.489 263.132,321.781 262.503 C 321.993 262.046,322.279 261.671,322.417 261.669 C 322.554 261.668,322.667 261.442,322.667 261.167 C 322.667 260.892,322.817 260.667,323.000 260.667 C 323.183 260.667,323.333 260.383,323.333 260.036 C 323.333 259.689,323.580 259.310,323.881 259.194 C 324.182 259.079,324.331 258.886,324.211 258.767 C 324.092 258.647,324.333 258.177,324.747 257.721 C 325.161 257.265,325.275 257.003,325.000 257.138 C 324.725 257.274,324.837 257.086,325.250 256.722 C 325.663 256.358,326.000 255.808,326.000 255.500 C 326.000 255.192,326.337 254.642,326.750 254.278 C 327.163 253.914,327.312 253.711,327.083 253.828 C 326.853 253.945,326.981 253.506,327.366 252.853 C 327.751 252.201,328.201 251.667,328.366 251.667 C 328.531 251.667,328.667 251.358,328.667 250.980 C 328.667 250.597,328.817 250.387,329.008 250.505 C 329.196 250.621,329.328 250.593,329.302 250.441 C 329.174 249.701,329.393 249.061,330.000 248.410 C 330.367 248.017,330.667 247.538,330.667 247.347 C 330.667 247.156,330.781 247.000,330.920 247.000 C 331.059 247.000,331.370 246.684,331.611 246.298 C 331.974 245.717,331.973 245.641,331.608 245.852 C 331.365 245.993,331.542 245.684,332.000 245.167 C 332.458 244.649,332.608 244.351,332.333 244.504 C 331.973 244.704,331.996 244.595,332.417 244.114 C 332.738 243.748,333.000 243.265,333.000 243.041 C 333.000 242.818,333.412 242.242,333.917 241.763 C 334.421 241.283,334.646 240.999,334.417 241.132 C 334.188 241.264,334.000 241.214,334.000 241.020 C 334.000 240.826,334.159 240.667,334.353 240.667 C 334.547 240.667,334.621 240.529,334.516 240.360 C 334.412 240.191,334.666 239.778,335.080 239.441 C 336.139 238.580,337.027 237.430,336.333 237.818 C 335.927 238.046,335.911 238.014,336.250 237.649 C 336.479 237.402,336.667 236.925,336.667 236.589 C 336.667 236.253,337.117 235.538,337.667 235.000 C 338.217 234.462,338.667 233.784,338.667 233.492 C 338.667 233.200,338.820 233.056,339.008 233.172 C 339.196 233.288,339.309 233.252,339.258 233.091 C 339.122 232.658,340.081 230.333,340.396 230.333 C 340.545 230.333,340.667 230.127,340.667 229.874 C 340.667 229.621,341.004 229.164,341.417 228.859 C 341.829 228.553,341.942 228.409,341.667 228.538 C 341.366 228.680,341.448 228.454,341.873 227.970 C 342.261 227.528,342.678 226.750,342.798 226.242 C 342.918 225.733,343.347 224.987,343.749 224.584 C 344.152 224.181,344.524 223.548,344.577 223.176 C 344.629 222.804,344.933 222.273,345.253 221.995 C 346.221 221.154,346.949 220.139,346.333 220.490 C 346.058 220.646,346.208 220.351,346.667 219.833 C 347.125 219.316,347.312 219.001,347.083 219.133 C 346.853 219.265,346.981 218.839,347.366 218.187 C 347.751 217.534,348.201 217.000,348.366 217.000 C 348.531 217.000,348.667 216.687,348.667 216.303 C 348.667 215.920,349.004 215.309,349.417 214.945 C 349.829 214.581,349.942 214.393,349.667 214.528 C 349.392 214.664,349.542 214.351,350.000 213.833 C 350.458 213.316,350.608 213.003,350.333 213.138 C 350.058 213.274,350.171 213.086,350.583 212.722 C 350.996 212.358,351.333 211.746,351.333 211.363 C 351.333 210.980,351.483 210.667,351.667 210.667 C 351.850 210.667,352.000 210.478,352.000 210.247 C 352.000 210.016,352.313 209.632,352.695 209.393 C 353.081 209.152,353.309 208.750,353.208 208.489 C 353.109 208.230,353.209 207.901,353.431 207.759 C 353.990 207.399,354.944 206.139,354.416 206.456 C 354.187 206.594,354.314 206.173,354.699 205.520 C 355.084 204.867,355.534 204.333,355.700 204.333 C 355.865 204.333,356.000 204.081,356.000 203.771 C 356.000 203.462,356.337 202.838,356.750 202.384 C 357.162 201.931,357.312 201.667,357.083 201.800 C 356.853 201.932,356.981 201.506,357.366 200.853 C 357.751 200.201,358.185 199.667,358.331 199.667 C 358.477 199.667,358.658 199.029,358.732 198.250 C 358.985 195.600,359.533 195.690,343.122 195.678 C 329.026 195.667,328.741 195.654,328.570 195.000 C 328.465 194.598,328.530 194.415,328.733 194.541 C 328.952 194.676,328.978 194.470,328.808 193.958 C 328.663 193.523,328.583 192.214,328.629 191.049 C 328.686 189.613,328.598 189.003,328.356 189.152 C 328.160 189.274,328.000 189.139,328.000 188.853 C 328.000 188.567,327.842 188.333,327.649 188.333 C 327.435 188.333,327.326 187.557,327.371 186.333 C 327.410 185.233,327.588 184.333,327.765 184.333 C 328.213 184.333,327.830 181.765,327.284 181.107 C 326.733 180.443,326.609 178.578,327.096 178.275 C 327.348 178.118,327.330 177.897,327.033 177.540 C 326.800 177.259,326.706 176.873,326.824 176.681 C 326.943 176.490,326.926 176.150,326.788 175.926 C 326.649 175.702,326.578 174.935,326.629 174.222 C 326.692 173.356,326.603 173.000,326.362 173.149 C 326.161 173.273,326.000 173.142,326.000 172.853 C 326.000 172.567,325.850 172.333,325.667 172.333 C 325.483 172.333,325.333 172.033,325.333 171.667 C 325.333 171.300,325.461 171.000,325.616 171.000 C 325.771 171.000,325.912 170.535,325.928 169.966 C 325.944 169.397,325.869 169.020,325.762 169.127 C 325.479 169.410,324.690 168.273,324.677 167.564 C 324.670 167.169,324.810 167.047,325.083 167.211 C 325.399 167.400,325.395 167.332,325.069 166.930 C 324.718 166.495,324.718 166.369,325.069 166.241 C 325.414 166.115,325.417 165.995,325.083 165.642 C 324.854 165.399,324.667 164.696,324.667 164.080 C 324.667 163.419,324.530 163.045,324.333 163.167 C 324.144 163.284,324.000 162.997,324.000 162.500 C 324.000 161.950,323.864 161.711,323.633 161.854 C 323.367 162.019,323.367 161.894,323.633 161.395 C 324.068 160.584,324.121 159.553,323.715 159.803 C 323.370 160.017,322.667 158.560,322.667 157.631 C 322.667 157.184,322.805 157.044,323.083 157.211 C 323.337 157.363,323.310 157.228,323.015 156.864 C 322.748 156.536,322.564 155.821,322.605 155.276 C 322.652 154.671,322.548 154.367,322.340 154.496 C 322.010 154.700,321.869 153.914,321.978 152.482 C 322.007 152.106,321.724 151.520,321.349 151.180 C 320.974 150.841,320.667 150.203,320.667 149.762 C 320.667 149.313,320.520 149.051,320.333 149.167 C 320.125 149.295,320.000 148.615,320.000 147.353 C 320.000 146.229,319.852 145.333,319.667 145.333 C 319.483 145.333,319.333 144.900,319.333 144.371 C 319.333 143.293,318.552 141.559,318.217 141.894 C 318.098 142.013,318.000 141.720,318.000 141.242 C 318.000 140.764,317.850 140.280,317.667 140.167 C 317.483 140.053,317.333 139.595,317.333 139.147 C 317.333 138.699,317.183 138.333,317.000 138.333 C 316.817 138.333,316.667 138.174,316.667 137.980 C 316.667 137.786,316.854 137.733,317.083 137.863 C 317.417 138.051,317.417 138.008,317.083 137.649 C 316.854 137.402,316.667 136.860,316.667 136.445 C 316.667 136.030,316.367 135.530,316.000 135.333 C 315.633 135.137,315.333 134.823,315.333 134.635 C 315.333 134.448,315.486 134.389,315.673 134.504 C 315.860 134.620,315.634 134.034,315.169 133.202 C 314.705 132.371,314.351 131.573,314.383 131.429 C 314.473 131.023,313.748 129.423,313.368 129.188 C 313.182 129.073,313.106 128.778,313.200 128.532 C 313.295 128.287,313.129 127.993,312.831 127.879 C 312.534 127.765,312.392 127.508,312.515 127.309 C 312.638 127.110,312.423 126.725,312.036 126.454 C 311.602 126.151,311.333 125.601,311.333 125.017 C 311.333 124.467,311.115 123.988,310.812 123.871 C 310.526 123.761,310.387 123.516,310.504 123.326 C 310.622 123.137,310.369 122.674,309.942 122.299 C 309.516 121.923,309.354 121.711,309.583 121.828 C 309.813 121.944,310.000 121.880,310.000 121.686 C 310.000 121.492,309.850 121.333,309.667 121.333 C 309.483 121.333,309.333 121.033,309.333 120.667 C 309.333 120.300,309.183 120.000,309.000 120.000 C 308.817 120.000,308.667 119.783,308.667 119.517 C 308.667 119.252,308.288 118.626,307.825 118.126 C 307.362 117.626,307.043 117.056,307.116 116.859 C 307.189 116.661,306.930 116.138,306.541 115.696 C 306.152 115.254,306.058 115.020,306.333 115.177 C 306.871 115.483,306.504 114.924,305.333 113.653 C 304.586 112.841,303.833 111.679,303.833 111.336 C 303.833 111.170,303.646 110.846,303.417 110.617 C 303.188 110.388,303.000 110.005,303.000 109.767 C 303.000 109.528,302.841 109.333,302.647 109.333 C 302.453 109.333,302.387 109.183,302.500 109.000 C 302.613 108.817,302.571 108.667,302.407 108.667 C 302.242 108.667,301.934 108.286,301.722 107.821 C 301.315 106.928,301.144 106.705,299.417 104.808 C 298.821 104.154,298.333 103.409,298.333 103.151 C 298.333 102.894,297.808 102.205,297.167 101.621 C 296.525 101.037,296.000 100.294,296.000 99.969 C 296.000 99.644,295.548 99.057,294.996 98.664 C 294.444 98.271,294.080 97.807,294.188 97.633 C 294.295 97.459,294.184 97.358,293.941 97.408 C 293.699 97.459,293.537 97.313,293.583 97.083 C 293.629 96.854,293.525 96.667,293.352 96.667 C 293.178 96.667,292.841 96.268,292.602 95.781 C 292.362 95.293,291.867 94.731,291.500 94.531 C 290.888 94.196,290.200 93.403,290.173 93.000 C 290.167 92.908,287.921 90.583,285.181 87.833 C 282.442 85.083,280.307 83.010,280.438 83.226 C 280.569 83.441,279.844 82.806,278.827 81.813 C 277.810 80.820,276.856 80.043,276.706 80.087 C 276.557 80.131,275.795 79.530,275.014 78.753 C 274.233 77.975,273.477 77.411,273.335 77.499 C 272.964 77.728,272.290 76.827,272.586 76.499 C 272.722 76.349,272.665 76.323,272.459 76.440 C 272.253 76.558,271.653 76.278,271.125 75.818 C 269.487 74.388,269.334 74.293,268.996 74.503 C 268.815 74.614,268.667 74.491,268.667 74.227 C 268.667 73.964,268.413 73.542,268.103 73.291 C 267.616 72.896,267.578 72.902,267.823 73.333 C 267.980 73.608,267.736 73.496,267.282 73.083 C 266.828 72.671,266.316 72.333,266.144 72.333 C 265.972 72.333,265.438 71.917,264.957 71.407 C 264.477 70.898,263.774 70.458,263.395 70.430 C 263.017 70.401,262.232 69.923,261.650 69.368 C 261.069 68.812,260.497 68.383,260.380 68.414 C 260.004 68.513,257.000 67.048,257.000 66.766 C 257.000 66.616,256.684 66.297,256.298 66.056 C 255.913 65.815,255.696 65.779,255.818 65.975 C 256.245 66.667,255.408 66.325,254.859 65.583 C 254.553 65.171,254.393 65.021,254.504 65.250 C 254.796 65.853,254.231 65.761,253.475 65.083 C 252.259 63.992,251.533 63.490,251.789 63.917 C 252.228 64.647,251.437 64.364,250.859 63.583 C 250.553 63.171,250.393 63.021,250.504 63.250 C 250.811 63.884,250.212 63.747,249.410 63.000 C 249.017 62.633,248.463 62.333,248.181 62.333 C 247.898 62.333,247.667 62.183,247.667 62.000 C 247.667 61.817,247.376 61.667,247.020 61.667 C 246.664 61.667,246.280 61.517,246.167 61.333 C 246.053 61.150,245.618 61.000,245.199 61.000 C 244.780 61.000,244.165 60.700,243.833 60.333 C 243.502 59.967,242.908 59.667,242.515 59.667 C 242.122 59.667,241.598 59.479,241.351 59.250 C 240.992 58.917,240.949 58.917,241.137 59.250 C 241.460 59.821,241.138 59.772,240.103 59.095 C 239.623 58.780,238.991 58.506,238.698 58.485 C 237.177 58.377,236.907 58.315,237.106 58.116 C 237.377 57.846,235.794 57.000,235.017 57.000 C 234.702 57.000,234.332 56.888,234.194 56.750 C 233.954 56.509,233.680 56.466,231.814 56.375 C 231.338 56.352,231.052 56.186,231.167 56.000 C 231.287 55.806,230.951 55.667,230.363 55.667 C 229.808 55.667,228.819 55.367,228.167 55.000 C 227.514 54.633,226.375 54.333,225.637 54.333 C 224.826 54.333,224.376 54.201,224.500 54.000 C 224.627 53.795,224.059 53.667,223.020 53.667 C 222.092 53.667,221.333 53.517,221.333 53.333 C 221.333 53.150,220.799 53.000,220.147 53.000 C 219.441 53.000,219.044 52.865,219.167 52.667 C 219.280 52.483,219.226 52.333,219.047 52.333 C 218.869 52.333,218.658 52.521,218.580 52.750 C 218.477 53.054,218.047 52.959,216.997 52.404 C 215.929 51.839,215.491 51.745,215.307 52.043 C 215.118 52.349,214.795 52.317,213.955 51.910 C 213.222 51.555,212.720 51.484,212.461 51.699 C 212.199 51.917,211.895 51.848,211.536 51.488 C 211.146 51.098,210.373 50.955,208.677 50.961 C 207.399 50.965,206.265 50.825,206.157 50.651 C 206.049 50.476,205.475 50.333,204.880 50.333 C 204.286 50.333,203.601 50.146,203.358 49.917 C 203.005 49.583,202.886 49.583,202.764 49.917 C 202.680 50.146,202.390 50.333,202.119 50.333 C 201.849 50.333,201.696 50.221,201.779 50.083 C 201.863 49.946,200.342 49.795,198.400 49.747 C 196.458 49.700,194.783 49.522,194.678 49.352 C 194.529 49.110,189.109 48.823,187.917 48.993 C 187.584 49.041,170.070 49.039,169.750 48.992 C 168.349 48.784,163.320 49.089,162.802 49.414 C 162.601 49.539,160.613 49.679,158.385 49.724 C 156.157 49.769,154.333 49.925,154.333 50.070 C 154.333 50.215,154.174 50.333,153.980 50.333 C 153.786 50.333,153.711 50.197,153.814 50.031 C 153.917 49.865,153.735 49.798,153.410 49.883 C 152.729 50.062,149.881 48.130,150.159 47.678 C 150.350 47.370,149.756 46.859,149.167 46.823 C 148.983 46.812,148.871 46.622,148.917 46.402 C 148.962 46.181,148.812 46.038,148.583 46.083 C 148.354 46.129,148.204 45.979,148.250 45.750 C 148.296 45.521,148.146 45.371,147.917 45.417 C 147.687 45.463,147.537 45.313,147.583 45.083 C 147.629 44.854,147.437 44.667,147.156 44.667 C 146.875 44.667,146.565 44.457,146.467 44.201 C 146.369 43.945,145.624 43.383,144.811 42.952 C 143.998 42.521,143.333 42.055,143.333 41.917 C 143.333 41.779,143.141 41.667,142.907 41.667 C 142.672 41.667,142.274 41.380,142.022 41.030 C 141.770 40.680,141.390 40.461,141.177 40.542 C 140.965 40.624,140.515 40.385,140.177 40.012 C 139.840 39.639,139.357 39.333,139.105 39.333 C 138.852 39.333,138.567 39.127,138.470 38.875 C 138.373 38.623,137.920 38.417,137.463 38.417 C 137.006 38.417,136.292 38.098,135.878 37.708 C 135.463 37.319,134.805 37.000,134.415 37.000 C 134.025 37.000,133.613 36.850,133.500 36.667 C 133.387 36.483,132.937 36.333,132.500 36.333 C 132.063 36.333,131.623 36.199,131.521 36.034 C 131.420 35.870,130.486 35.725,129.445 35.713 C 128.405 35.701,127.463 35.543,127.352 35.363 C 127.146 35.030,120.329 34.749,117.010 34.937 " stroke="none" fill="#e16868" fill-rule="evenodd"></path></g></svg>