<svg id="svg" xmlns="http://www.w3.org/2000/svg" xmlns:xlink="http://www.w3.org/1999/xlink" width="400" height="502.09205020920507" viewBox="0, 0, 400,502.09205020920507" version="1.1"><g id="svgg"><path id="path0" d="M81.512 2.263 C 78.339 6.975,73.185 16.008,68.478 25.105 C 39.649 80.829,27.449 155.603,40.146 198.745 C 45.418 216.657,53.211 234.713,62.106 249.630 C 63.531 252.020,65.129 254.728,65.657 255.649 C 68.658 260.877,71.775 265.686,82.204 281.172 C 88.558 290.607,96.400 302.092,99.630 306.695 C 120.178 335.973,138.581 376.230,146.874 410.042 C 150.003 422.797,152.779 436.980,154.818 450.628 C 155.472 455.008,157.926 486.559,158.028 491.908 C 158.094 495.360,161.624 498.063,167.505 499.166 L 170.517 499.731 171.461 492.334 C 171.981 488.266,172.774 482.490,173.224 479.498 C 176.398 458.403,176.368 401.709,173.171 378.661 C 167.702 339.229,160.592 325.187,124.686 282.905 C 121.695 279.382,117.929 274.867,116.318 272.871 C 114.707 270.876,111.659 267.125,109.545 264.538 C 105.895 260.071,86.350 234.082,83.682 230.148 C 82.992 229.130,80.894 226.167,79.022 223.563 C 53.355 187.876,46.850 146.603,59.877 102.092 C 67.394 76.407,68.258 75.603,65.272 97.071 C 63.437 110.262,63.135 123.159,64.443 132.476 C 66.675 148.377,67.218 151.481,68.782 157.322 C 70.922 165.309,73.388 172.903,74.939 176.277 C 75.605 177.727,76.151 179.196,76.151 179.541 C 76.151 180.788,83.898 196.059,87.721 202.349 C 97.788 218.910,104.393 226.582,134.334 256.485 C 148.619 270.753,162.931 285.474,166.137 289.199 C 172.303 296.363,172.421 296.508,178.135 303.994 C 180.298 306.827,182.436 308.787,183.365 308.787 C 185.894 308.787,185.702 308.041,179.710 294.561 C 177.441 289.457,171.383 277.330,169.050 273.222 C 168.004 271.381,165.642 267.100,163.800 263.709 C 161.958 260.317,157.617 252.974,154.152 247.391 C 150.688 241.807,147.442 236.394,146.939 235.362 C 146.436 234.330,145.743 233.483,145.397 233.479 C 145.052 233.476,144.770 233.106,144.770 232.659 C 144.770 232.211,142.190 227.786,139.037 222.826 C 122.362 196.596,108.466 171.600,105.878 163.180 C 105.524 162.029,104.967 160.711,104.640 160.251 C 104.314 159.791,102.882 155.649,101.458 151.046 C 95.992 133.368,95.462 131.347,90.376 108.787 C 89.623 105.445,88.766 100.234,86.230 83.584 C 82.804 61.090,82.507 19.712,85.640 1.305 C 85.961 -0.582,82.959 0.115,81.512 2.263 M178.014 6.366 C 177.734 6.645,179.983 10.882,183.011 15.780 C 195.370 35.773,200.162 48.595,203.769 71.322 C 204.479 75.801,205.238 79.943,205.455 80.527 C 207.161 85.123,207.222 118.269,205.546 130.126 C 204.752 135.747,202.307 149.236,200.010 160.669 C 190.079 210.105,189.927 237.608,199.403 270.805 C 201.691 278.820,201.858 278.812,206.100 270.462 C 213.102 256.680,220.403 245.849,231.597 232.636 C 255.077 204.922,254.525 206.512,252.801 171.548 C 249.231 99.139,234.424 53.714,204.713 24.020 C 194.616 13.929,180.069 4.310,178.014 6.366 M323.014 78.870 C 323.016 96.822,319.240 126.038,315.038 140.586 C 308.034 164.833,300.542 179.330,281.067 206.328 C 278.058 210.499,274.685 215.187,273.572 216.746 C 272.459 218.305,269.665 222.116,267.364 225.214 C 265.063 228.313,261.109 233.723,258.577 237.237 C 256.046 240.751,253.598 244.071,253.138 244.616 C 252.678 245.161,251.173 247.301,249.795 249.372 C 248.417 251.444,245.383 255.774,243.055 258.996 C 240.726 262.218,238.088 266.062,237.193 267.540 C 236.297 269.017,233.879 272.971,231.818 276.326 C 225.687 286.309,225.363 286.903,218.462 300.837 C 211.621 314.648,209.763 319.135,204.080 335.565 C 200.687 345.374,199.805 348.534,196.146 364.017 C 189.890 390.486,188.248 424.448,192.081 448.117 C 194.591 463.614,196.647 463.311,196.666 447.440 C 196.693 425.272,201.550 398.690,209.463 377.406 C 224.688 336.449,246.531 299.375,272.349 270.665 C 294.653 245.863,296.914 243.252,300.939 237.657 C 320.907 209.896,332.113 171.864,332.253 131.381 C 332.279 123.717,334.493 130.544,337.409 147.280 C 338.587 154.039,338.619 184.427,337.456 191.213 C 335.403 203.190,331.093 220.440,328.883 225.523 C 328.483 226.444,327.026 230.209,325.647 233.891 C 320.424 247.830,309.732 267.662,297.222 286.611 C 292.404 293.909,290.289 296.879,284.110 305.021 C 281.207 308.848,270.849 321.789,270.381 322.176 C 270.102 322.406,267.992 324.837,265.690 327.579 C 263.389 330.320,258.913 335.404,255.743 338.876 C 252.573 342.348,248.796 346.506,247.350 348.117 C 244.550 351.235,238.494 359.545,238.494 360.270 C 238.494 360.508,237.619 362.107,236.550 363.824 C 219.040 391.948,218.449 444.684,235.113 492.032 C 236.972 497.314,238.494 501.789,238.494 501.976 C 238.494 502.163,242.165 502.136,246.653 501.917 C 255.914 501.464,262.391 499.072,261.578 496.404 C 261.159 495.031,257.773 481.175,256.066 473.852 C 252.553 458.777,252.283 422.714,255.573 407.950 C 255.778 407.029,256.537 403.525,257.260 400.162 C 261.669 379.649,270.766 360.870,284.552 343.821 C 286.605 341.282,289.226 337.944,290.377 336.404 C 291.527 334.864,294.759 330.750,297.559 327.262 C 353.806 257.182,366.129 208.353,348.471 125.523 C 345.570 111.917,327.190 69.456,324.201 69.456 C 323.245 69.456,323.013 71.295,323.014 78.870 M372.866 219.982 C 372.588 220.432,372.774 223.933,373.278 227.764 C 377.062 256.522,373.904 286.295,364.839 307.345 C 359.757 319.146,355.087 325.149,339.094 340.437 C 326.615 352.366,313.324 366.235,308.787 372.061 C 282.470 405.853,272.283 443.123,277.391 486.926 L 278.013 492.262 291.517 491.830 C 303.263 491.453,305.834 491.111,311.266 489.202 C 319.267 486.391,319.076 486.639,320.213 477.576 C 324.794 441.057,334.620 414.800,352.206 392.084 C 357.265 385.549,357.827 384.861,364.561 376.946 C 382.374 356.013,390.658 341.074,396.555 319.247 C 404.119 291.252,398.477 259.661,380.443 229.017 C 375.650 220.873,373.730 218.584,372.866 219.982 M0.417 263.601 C 0.065 264.171,4.068 268.829,10.354 275.164 C 16.144 281.000,22.114 287.419,23.621 289.429 C 34.905 304.485,40.731 315.132,45.197 328.861 C 47.591 336.219,48.981 343.902,52.240 367.782 C 52.931 372.845,53.710 377.929,53.972 379.079 C 54.233 380.230,54.819 383.054,55.273 385.356 C 66.144 440.382,97.158 477.643,136.087 482.444 L 140.375 482.973 140.794 477.679 C 141.345 470.718,140.025 447.674,138.744 441.885 C 137.804 437.639,137.067 436.663,127.988 427.659 C 110.643 410.455,99.295 389.725,92.922 363.598 C 82.320 320.141,46.368 278.673,7.511 265.085 C 5.451 264.365,3.145 263.522,2.386 263.211 C 1.627 262.901,0.741 263.077,0.417 263.601 " stroke="none" fill="#000000" fill-rule="evenodd"></path></g></svg>