<svg id="svg" xmlns="http://www.w3.org/2000/svg" xmlns:xlink="http://www.w3.org/1999/xlink" width="400" height="384.66666666666663" viewBox="0, 0, 400,384.66666666666663" version="1.1"><g id="svgg"><path id="path0" d="M218.097 2.167 C 217.727 3.358,216.489 7.783,215.348 12.000 C 214.206 16.217,212.910 20.976,212.469 22.576 L 211.667 25.485 208.000 25.055 C 205.983 24.818,200.433 24.193,195.667 23.665 C 190.900 23.137,184.150 22.370,180.667 21.960 C 177.183 21.551,173.283 21.106,172.000 20.971 C 166.714 20.418,156.682 19.289,152.000 18.720 C 149.250 18.386,142.500 17.613,137.000 17.001 C 114.846 14.538,116.667 14.584,116.667 16.492 C 116.667 17.086,116.362 18.493,115.991 19.619 C 115.619 20.745,114.444 24.817,113.380 28.667 C 108.917 44.817,106.570 53.200,105.615 56.408 C 104.475 60.237,104.837 60.039,88.667 65.691 C 83.062 67.650,70.387 72.149,64.667 74.208 C 64.117 74.406,60.967 75.513,57.667 76.667 C 54.367 77.821,51.217 78.938,50.667 79.150 C 50.117 79.362,46.873 80.508,43.459 81.697 C 40.045 82.887,37.072 84.040,36.852 84.259 C 36.469 84.642,37.350 92.534,38.721 101.000 C 39.077 103.200,39.804 108.000,40.337 111.667 C 40.870 115.333,41.615 120.283,41.992 122.667 C 42.370 125.050,42.995 129.395,43.380 132.323 L 44.081 137.646 39.540 141.995 C 37.043 144.387,31.856 149.191,28.014 152.672 C 24.171 156.152,18.921 160.960,16.347 163.356 C 13.773 165.752,9.042 170.055,5.833 172.919 C 2.625 175.782,0.000 178.526,0.000 179.015 C 0.000 179.504,5.435 190.951,12.077 204.452 C 18.719 217.954,25.922 232.695,28.082 237.210 L 32.010 245.421 28.786 250.210 C 27.013 252.845,23.867 257.400,21.793 260.333 C 19.720 263.267,17.722 266.117,17.354 266.667 C 16.985 267.217,15.143 269.884,13.259 272.594 C 10.429 276.664,10.010 277.619,10.846 278.087 C 11.403 278.399,13.078 279.631,14.570 280.827 C 16.061 282.022,18.674 284.050,20.376 285.333 C 22.078 286.617,23.815 287.979,24.235 288.361 C 24.656 288.743,28.300 291.586,32.333 294.680 C 39.711 300.338,40.469 300.932,44.262 304.020 C 45.401 304.947,48.123 307.047,50.310 308.686 C 52.496 310.326,54.775 312.117,55.372 312.667 C 55.970 313.217,59.355 315.878,62.896 318.581 C 66.437 321.284,69.333 323.709,69.333 323.969 C 69.333 324.523,67.162 331.686,64.980 338.333 L 63.447 343.000 72.230 347.333 C 83.298 352.795,93.058 357.362,100.104 360.378 C 103.122 361.669,106.658 363.188,107.962 363.752 C 109.266 364.316,111.346 365.216,112.584 365.752 C 127.505 372.206,150.509 379.574,161.333 381.364 C 182.609 384.883,218.962 385.689,237.000 383.043 C 249.821 381.162,256.362 380.042,260.000 379.104 C 262.017 378.584,264.867 377.947,266.333 377.688 C 269.192 377.185,289.464 370.556,293.333 368.859 C 336.923 349.745,367.366 318.772,382.966 277.667 C 383.940 275.100,384.996 272.400,385.313 271.667 C 386.026 270.019,388.664 262.101,390.867 255.000 C 392.615 249.364,396.120 234.391,397.266 227.667 C 397.641 225.467,398.335 221.567,398.807 219.000 C 400.006 212.489,400.000 171.460,398.799 165.000 C 398.322 162.433,397.466 157.783,396.897 154.667 C 396.328 151.550,395.417 147.350,394.873 145.333 C 394.329 143.317,393.594 140.475,393.239 139.020 C 388.371 119.045,372.269 87.469,358.628 71.148 C 350.632 61.582,346.784 57.336,341.071 51.777 C 331.756 42.713,332.655 42.795,329.320 50.699 C 326.522 57.330,325.267 58.457,323.333 56.077 C 323.150 55.851,320.900 54.617,318.333 53.333 C 315.767 52.050,313.517 50.850,313.333 50.667 C 313.018 50.351,308.662 48.001,302.000 44.553 C 300.350 43.699,298.850 42.850,298.667 42.667 C 298.483 42.483,297.283 41.820,296.000 41.193 C 294.717 40.566,291.717 38.970,289.333 37.646 C 284.423 34.920,276.759 30.727,271.333 27.798 C 259.795 21.569,256.505 19.777,249.667 15.996 C 247.833 14.982,244.308 13.068,241.833 11.743 C 231.611 6.269,228.132 4.389,224.269 2.250 C 219.261 -0.523,218.934 -0.527,218.097 2.167 M218.392 44.420 C 218.163 45.018,217.518 48.393,216.960 51.920 C 216.401 55.447,215.669 59.833,215.333 61.667 C 214.997 63.500,214.266 67.886,213.707 71.413 C 212.424 79.513,212.291 79.830,209.962 80.342 C 201.897 82.113,201.373 92.446,209.152 96.339 C 209.236 96.381,208.996 98.197,208.619 100.374 C 207.674 105.832,206.026 116.227,206.012 116.824 C 206.005 117.094,204.995 117.736,203.766 118.249 C 198.363 120.506,196.983 126.787,200.963 131.006 L 203.259 133.441 202.036 139.221 C 200.751 145.295,199.675 153.333,200.147 153.333 C 200.300 153.333,201.904 152.908,203.712 152.389 C 217.909 148.309,235.087 150.851,249.361 159.142 C 249.559 159.257,250.159 157.630,250.694 155.526 C 251.633 151.833,251.783 151.654,255.000 150.354 C 264.002 146.719,265.043 136.173,256.583 134.315 C 254.162 133.783,254.197 133.059,257.425 116.534 C 258.132 112.916,261.272 110.000,264.461 110.000 C 264.723 110.000,265.926 109.041,267.135 107.869 C 271.529 103.611,268.713 94.667,262.979 94.667 C 261.250 94.667,261.177 94.541,261.548 92.167 C 264.382 74.009,264.233 74.467,267.695 73.324 C 275.327 70.805,276.738 60.791,269.862 57.943 C 267.975 57.161,267.231 51.880,268.788 50.323 C 269.708 49.403,305.872 65.816,306.556 67.464 C 306.678 67.759,307.095 68.000,307.484 68.000 C 307.872 68.000,310.089 69.200,312.412 70.667 C 314.734 72.133,316.916 73.333,317.261 73.333 C 317.607 73.333,317.989 73.560,318.111 73.836 C 318.233 74.113,320.433 75.682,323.000 77.322 C 325.567 78.962,327.817 80.467,328.000 80.666 C 328.183 80.865,331.159 83.115,334.613 85.665 C 347.732 95.353,366.667 113.040,366.667 115.607 C 366.667 116.188,365.506 118.839,364.088 121.498 C 362.670 124.157,359.179 130.683,356.331 136.000 C 353.484 141.317,349.774 148.306,348.089 151.532 L 345.024 157.397 347.009 161.198 C 348.100 163.289,351.170 168.815,353.830 173.478 C 356.490 178.141,358.667 182.266,358.667 182.645 C 358.667 183.023,358.901 183.333,359.187 183.333 C 359.473 183.333,360.048 184.158,360.464 185.167 C 360.880 186.175,362.293 188.875,363.604 191.167 L 365.987 195.333 364.160 195.328 C 362.408 195.323,356.293 194.624,346.333 193.289 C 343.767 192.945,337.917 192.218,333.333 191.674 C 328.750 191.130,322.900 190.385,320.333 190.018 C 317.767 189.652,311.767 188.879,307.000 188.301 C 302.233 187.724,296.383 186.985,294.000 186.660 C 273.378 183.849,271.334 183.802,272.539 186.168 C 273.347 187.753,274.571 191.494,276.084 197.000 C 277.306 201.446,277.312 217.852,276.094 222.333 C 273.513 231.828,270.146 239.034,265.349 245.333 C 261.772 250.029,261.578 250.426,262.833 250.480 C 263.292 250.500,266.067 250.851,269.000 251.262 C 271.933 251.672,277.783 252.476,282.000 253.048 C 286.217 253.620,291.467 254.352,293.667 254.674 C 295.867 254.995,301.267 255.745,305.667 256.340 C 310.067 256.935,315.617 257.702,318.000 258.045 C 320.383 258.387,324.883 258.977,328.000 259.355 C 335.416 260.255,336.667 260.550,336.667 261.401 C 336.667 262.064,339.119 268.027,342.052 274.493 C 342.757 276.047,343.333 277.489,343.333 277.696 C 343.333 277.903,343.902 279.332,344.598 280.870 C 345.293 282.408,346.309 284.746,346.855 286.066 L 347.848 288.466 339.091 292.652 C 334.274 294.954,321.755 301.033,311.271 306.161 L 292.209 315.484 291.037 318.908 C 289.425 323.619,287.281 329.516,283.610 339.333 C 281.896 343.917,280.215 348.656,279.873 349.866 C 279.466 351.309,278.636 352.312,277.460 352.782 C 276.474 353.177,275.067 353.741,274.333 354.035 C 271.435 355.200,264.667 357.307,258.329 359.016 C 245.091 362.585,237.487 363.981,217.729 366.466 L 214.458 366.877 214.949 364.605 C 215.219 363.356,215.853 359.633,216.359 356.333 C 216.864 353.033,217.423 349.733,217.602 349.000 C 217.780 348.267,218.101 346.573,218.314 345.237 C 218.657 343.079,219.107 342.614,222.320 341.093 C 230.761 337.096,230.660 329.091,222.115 324.893 C 221.786 324.731,225.062 304.023,225.473 303.661 C 225.580 303.568,227.539 302.553,229.827 301.406 C 234.527 299.050,236.408 296.101,235.686 292.218 C 235.273 289.999,231.387 286.000,229.643 286.000 C 229.106 286.000,228.667 285.749,228.667 285.442 C 228.667 284.831,230.348 273.896,231.084 269.722 C 231.497 267.376,231.420 267.157,230.327 267.577 C 219.980 271.548,188.307 264.481,183.167 257.056 C 182.112 255.532,180.000 262.932,180.000 268.149 C 180.000 269.536,179.470 270.065,177.167 270.977 C 168.620 274.363,167.224 284.989,175.068 286.957 C 176.482 287.312,176.725 287.668,176.371 288.864 C 175.861 290.587,174.961 295.620,173.880 302.799 C 173.160 307.576,172.967 307.990,171.101 308.763 C 164.433 311.525,162.980 317.726,167.819 322.777 L 170.160 325.220 168.787 332.443 C 168.032 336.416,167.224 341.017,166.992 342.667 C 166.332 347.351,166.062 347.880,164.114 348.308 C 160.554 349.090,156.568 354.377,157.570 356.988 C 158.016 358.151,156.600 358.342,154.824 357.359 C 154.188 357.006,150.457 355.206,146.535 353.358 C 124.059 342.772,104.103 327.462,90.451 310.333 C 88.698 308.133,86.904 305.881,86.465 305.328 C 84.379 302.702,78.000 292.770,78.000 292.148 C 78.000 291.761,77.763 291.344,77.474 291.222 C 75.062 290.204,65.091 265.411,62.371 253.667 C 61.776 251.100,61.013 247.950,60.676 246.667 C 59.953 243.920,58.291 226.804,58.712 226.435 C 58.983 226.198,61.220 226.425,74.333 228.022 C 77.267 228.379,83.717 229.120,88.667 229.669 C 93.617 230.218,99.917 230.942,102.667 231.277 C 105.417 231.613,112.017 232.367,117.333 232.955 C 122.650 233.542,129.250 234.310,132.000 234.663 C 134.750 235.015,140.150 235.610,144.000 235.986 C 147.850 236.361,153.100 236.957,155.667 237.310 C 158.233 237.663,161.761 238.107,163.505 238.297 L 166.677 238.643 165.076 235.483 C 159.995 225.457,157.813 206.495,160.571 196.333 C 162.964 187.515,167.050 178.816,171.006 174.114 C 171.920 173.029,172.667 172.002,172.667 171.831 C 172.667 171.401,159.480 169.373,147.667 167.987 C 144.367 167.600,139.717 167.001,137.333 166.655 C 134.950 166.310,129.100 165.541,124.333 164.946 C 119.567 164.350,113.867 163.612,111.667 163.304 C 109.467 162.996,103.917 162.279,99.333 161.710 C 94.750 161.141,88.750 160.348,86.000 159.948 C 83.250 159.547,77.850 158.870,74.000 158.443 C 65.502 157.500,65.558 157.616,69.011 148.237 C 71.537 141.374,79.881 123.829,80.802 123.444 C 81.094 123.322,81.333 122.957,81.333 122.632 C 81.333 122.109,85.699 115.375,87.785 112.680 C 97.723 99.840,109.506 88.257,122.029 79.014 C 125.496 76.455,128.483 74.174,128.667 73.946 C 128.976 73.560,134.362 70.236,141.854 65.807 C 157.513 56.549,178.750 48.783,196.667 45.763 C 213.044 43.002,219.080 42.629,218.392 44.420 " stroke="none" fill="#000000" fill-rule="evenodd"></path></g></svg>